<?xml version="1.0" encoding="utf-8"?>
<!-- Generator: Adobe Illustrator 23.0.3, SVG Export Plug-In . SVG Version: 6.00 Build 0)  -->
<svg version="1.1"
	 id="svglogo" inkscape:version="1.1.2 (0a00cf5339, 2022-02-04)" sodipodi:docname="logo.svg" xmlns:inkscape="http://www.inkscape.org/namespaces/inkscape" xmlns:sodipodi="http://sodipodi.sourceforge.net/DTD/sodipodi-0.dtd" xmlns:svg="http://www.w3.org/2000/svg"
	 xmlns="http://www.w3.org/2000/svg" xmlns:xlink="http://www.w3.org/1999/xlink" x="0px" y="0px" viewBox="0 0 254.6 90.1"
	 style="enable-background:new 0 0 254.6 90.1;" xml:space="preserve">
<style type="text/css">
	.st0{fill:none;}
	.st1{display:none;fill:#435352;}
	.st2{fill:#48C1BD;}
	.st3{fill:#435352;}
</style>
<g>
	<polygon class="st0" points="2,2 3,2 2,3 	"/>
	<g id="simple1noback" transform="translate(0.99,0.99702417)">
		<path id="Path_12" class="st1" d="M99.4,49.1l-3.7-1.5v-7.1l3.7-1.5c3.6-1.4,3.7-1.5,3.6-1.8c0-0.2-0.2-0.9-0.3-1.8
			c-0.3-1.5-0.7-3-1.2-4.5c-0.1-0.1-6.1,0.2-7.4,0.4l-0.5,0L93,29.9c-0.4-0.9-1.1-2.3-1.6-3.1l-0.9-1.6l0.3-0.3
			c0.2-0.2,1.4-1.6,2.7-3c1.6-1.8,2.3-2.6,2.3-2.7c0-0.1-0.6-0.8-1.1-1.5c-0.9-1.3-1.9-2.4-3-3.5c-0.2-0.1-0.9,0.3-3.6,1.8l-3.4,1.9
			l-1.1-0.9c-1.3-1.1-2.7-2.1-4.1-3.1c-0.1,0-0.2-0.1-0.3-0.3c0,0,0.5-1.8,1.1-3.9c0.9-2.8,1.1-3.8,0.9-3.8c-1.9-1.1-4-2.1-6.1-2.8
			c0,0-1,1.5-2.3,3.3s-2.3,3.2-2.3,3.3C70.1,9.3,69.6,9.2,69,9c-1.1-0.3-2.3-0.6-3.4-0.8c-1-0.2-1.8-0.3-1.9-0.3S63.5,6.1,63.1,4
			l-0.6-3.8l-0.8,0C59.9,0,58,0,56.2,0.1l-0.8,0l-0.6,3.8c-0.3,2.1-0.6,3.9-0.7,3.9c0,0-0.9,0.2-1.9,0.3C51.1,8.4,50,8.6,48.9,9
			c-0.9,0.2-1.6,0.5-1.6,0.5S46.2,8,45,6.2c-1.3-1.8-2.3-3.3-2.3-3.3c-2.1,0.8-4.1,1.8-6.1,2.8c-0.1,0,0.1,0.9,0.9,3.8
			c0.6,2,1.1,3.8,1.1,3.9c0,0.1-0.1,0.2-0.3,0.3c-1.4,1-2.8,2-4.1,3.1l-1.1,0.9l-3.4-1.9c-1.9-1-3.4-1.9-3.6-1.9
			c-0.3,0-2.5,2.6-3.9,4.6L22,19.2l2.4,2.6c1.3,1.4,2.5,2.7,2.7,2.9l0.3,0.3l-0.9,1.5c-0.5,0.8-1.1,2.2-1.6,3.1l-0.7,1.7l-0.5,0
			c-1.3-0.2-7.3-0.5-7.4-0.4c-0.5,1.5-0.9,2.9-1.2,4.5c-0.2,0.8-0.3,1.6-0.3,1.8c0,0.3,0,0.3,3.6,1.8l3.7,1.5v7.1l-3.7,1.5
			c-3.6,1.4-3.7,1.5-3.6,1.8c0,0.2,0.2,0.9,0.3,1.8c0.3,1.5,0.7,3,1.2,4.5c0.1,0.1,5.9-0.2,7.4-0.3l0.5,0l0.7,1.6
			c0.5,1.1,1,2.1,1.6,3.1l0.9,1.6l-0.3,0.3c-0.2,0.2-1.4,1.6-2.7,3c-1.6,1.8-2.3,2.6-2.3,2.7c0,0.1,0.6,0.8,1.1,1.5
			c0.9,1.3,1.9,2.4,3,3.5c0.2,0.1,0.9-0.3,3.6-1.8l3.4-1.9l1.1,0.9c1.3,1.1,2.7,2.1,4.1,3.1c0.1,0,0.2,0.1,0.3,0.3
			c0,0-0.5,1.8-1.1,3.9c-0.9,2.8-1.1,3.8-0.9,3.8c0.1,0,0.9,0.5,1.8,0.9c1.4,0.7,2.8,1.4,4.3,1.8c0.7-1.1,4.2-5.9,4.4-6.2l0.2-0.3
			l0.9,0.3c1.6,0.5,3.3,0.8,4.9,1.1l0.9,0.2l0.2,0.9c0,0.5,0.3,2.2,0.6,3.9l0.5,3l0.6,0l0,0c1.8,0.1,3.7,0.1,5.5,0l0.8,0l0.5-3
			c0.3-1.7,0.6-3.4,0.6-3.9l0.2-0.9l0.9-0.2c1.4-0.2,3.8-0.8,4.9-1.1l0.9-0.3l0.2,0.3c0.2,0.2,3.6,5.1,4.4,6.2
			c0.1,0.2,2.2-0.8,4.5-1.9c1.4-0.7,1.8-0.9,1.8-1.1c0-0.2-0.6-1.8-1.1-3.8L79,74.6l0.3-0.2c1.8-1.3,3.1-2.3,4.1-3.1l1.1-0.9
			l3.4,1.9c2.7,1.5,3.5,1.9,3.6,1.8c1.1-1.1,2.1-2.3,3-3.5c0.5-0.8,1-1.4,1.1-1.5c-0.6-1-1.4-1.9-2.3-2.7c-1.3-1.4-2.5-2.7-2.7-3
			l-0.3-0.3l0.9-1.6c0.5-0.9,1.1-2.3,1.6-3.1l0.7-1.6l0.5,0c2.5,0.2,5,0.4,7.4,0.3c0.5-1.5,0.9-2.9,1.2-4.5c0.2-0.8,0.3-1.6,0.3-1.8
			C103.1,50.6,103,50.6,99.4,49.1L99.4,49.1z M85.8,48.6c-0.9,5.3-3.4,10.1-7.1,14c-1.4,1.6-3.1,2.9-4.8,4.1
			c-3.4,2.2-7.2,3.6-11.2,4.2l0,0C61,70.9,59.3,71,57.6,71c-4.7-0.3-9.3-1.8-13.3-4.4c-1.8-1.1-3.4-2.5-4.8-4.1
			c-1.6-1.6-3-3.5-4.1-5.4c-3.6-6.3-4.4-13.8-2.2-20.7c1.2-4,3.4-7.6,6.3-10.6C50,14.9,67.4,14.7,78.3,25.2c0.2,0.2,0.4,0.4,0.6,0.6
			c3.7,3.8,6.2,8.7,7.1,14C86.2,42.7,86.2,45.7,85.8,48.6L85.8,48.6z"/>
		<path id="Path_13" class="st2" d="M131.7,74.1c-2.7-0.5-5.1-2.1-6.5-4.5c-2.2-4.2-2.4-9.2-0.5-13.6c1.2-2.8,3.8-4.9,6.8-5.5
			c4.3-0.9,8.2,0.6,10.2,3.9c0.7,1.2,0.8,1.7,0.2,2.2c-0.2,0.2-0.5,0.4-0.9,0.5c-0.8,0.2-1.1,0-1.8-1.2c-0.5-1-1.2-1.8-2.2-2.3
			c-1.5-0.8-3.3-0.9-5-0.5c-2.5,0.6-4.4,2.7-5.3,5.8c-0.3,1.1-0.4,2.3-0.3,3.4c-0.1,1.2,0,2.4,0.3,3.5c0.5,2.5,2.3,4.6,4.7,5.6
			c1.3,0.3,2.6,0.4,3.9,0.3c1.8-0.3,3.4-1.5,4.2-3.1c0.5-1,0.7-2.2,0.5-3.4l-0.2-0.4l-2.5,0c-2.3,0-2.5,0-2.8-0.4
			c-0.3-0.2-0.3-0.5-0.3-0.9c0-0.7,0.3-1.1,0.8-1.2c0.2,0,1.7,0,3.3,0c3.3,0,3.5,0.1,4,0.9c0.2,0.4,0.2,0.8,0.3,5.4
			c0.1,1.8,0,3.5-0.1,5.3c-0.4,0.6-1.2,0.9-1.8,0.5c0,0,0,0,0,0c-0.5-0.2-0.5-0.4-0.5-1.8v-1.1l-0.3,0.5c-1.1,1.2-2.6,2.1-4.2,2.4
			C134.3,74.3,133,74.3,131.7,74.1L131.7,74.1z"/>
		<path id="Path_14" class="st2" d="M221.3,74.1c-2.7-0.5-5.1-2.1-6.5-4.5c-2.2-4.2-2.4-9.2-0.5-13.6c1.2-2.8,3.8-4.9,6.8-5.5
			c4.3-0.9,8.2,0.6,10.2,3.9c0.7,1.2,0.8,1.7,0.2,2.2c-0.2,0.2-0.5,0.4-0.9,0.5c-0.8,0.2-1.1,0-1.8-1.2c-0.5-1-1.2-1.8-2.2-2.3
			c-1.5-0.8-3.3-0.9-5-0.5c-2.5,0.6-4.4,2.7-5.3,5.8c-0.3,1.1-0.4,2.3-0.3,3.4c-0.1,1.2,0,2.4,0.3,3.5c0.5,2.5,2.3,4.6,4.7,5.6
			c1.3,0.3,2.6,0.4,3.9,0.3c1.8-0.3,3.4-1.5,4.2-3.1c0.5-1,0.7-2.2,0.5-3.4l-0.2-0.4l-2.5,0c-2.3,0-2.5,0-2.8-0.4
			c-0.3-0.2-0.3-0.5-0.3-0.9c0-0.7,0.3-1.1,0.8-1.2c0.2,0,1.7,0,3.3,0c3.3,0,3.5,0.1,4,0.9c0.2,0.4,0.2,0.8,0.3,5.4
			c0.1,1.8,0,3.5-0.1,5.3c-0.4,0.6-1.2,0.9-1.8,0.5c0,0,0,0,0,0c-0.5-0.2-0.5-0.4-0.5-1.8v-1.1l-0.3,0.5c-1.1,1.2-2.6,2.1-4.2,2.4
			C223.9,74.4,222.6,74.3,221.3,74.1L221.3,74.1z"/>
		<path id="Path_15" class="st2" d="M162.1,62c-4.4-10.9-4.4-11-5.3-11.4c-1-0.4-2.1,0-2.7,0.9c-0.6,1.1-8.4,20.9-8.4,21.3
			c0,0.5,0.4,1,0.9,1.1l0,0c0.4,0.2,0.9,0.2,1.4,0c0.4-0.2,0.4-0.2,2-4.5l0.9-2.3h10.4l1.1,2.8c1.4,3.6,1.5,3.8,1.9,3.9
			c0.9,0.3,2.1-0.3,2.1-1C166.3,72.6,164.4,67.7,162.1,62L162.1,62z M156,64.6c-2.3,0-4.2,0-4.2,0s0.9-2.3,1.9-5
			c1-2.7,2-5.2,2.1-5.6c0-0.3,0.1-0.5,0.3-0.8c0.1,0.2,0.2,0.5,0.3,0.8c0.2,0.6,2.7,7.5,3.7,9.9l0.3,0.7L156,64.6z"/>
		<path id="Path_16" class="st2" d="M187.6,72.4c0-0.2-0.6-1.6-1.1-2.9c-2.1-5-2.8-6.2-4.2-6.9l-0.3-0.2l0.6-0.2
			c1.6-0.4,2.9-1.5,3.6-3c0.4-0.9,0.4-0.9,0.4-2.6c0.1-0.8,0-1.7-0.3-2.5c-0.5-1.2-1.4-2.1-2.6-2.7c-1.5-0.7-2.4-0.8-7.4-0.8
			c-4.5,0-4.5,0-5,0.3c-0.4,0.2-0.6,0.5-0.9,0.9l-0.3,0.5l0,10.3c0,5.7,0,10.5,0,10.6c0.1,0.2,0.2,0.4,0.5,0.5l0,0
			c0.3,0.1,0.6,0.2,0.9,0.2c0.4,0.1,0.7-0.1,0.9-0.4l0.4-0.4v-9.8h3c3.7,0,4.1,0,5.2,1.1c0.9,0.9,1.6,2.3,3,6.1
			c1.2,3.1,1.4,3.5,2.4,3.4C187.2,73.8,187.8,73.2,187.6,72.4L187.6,72.4z M181,60.9l-4.2,0l-4.2,0v-3.6c0-3.6,0-3.7,0.3-3.9
			s0.4-0.3,4.2-0.2l3.9,0l0.8,0.3c1.3,0.6,1.8,1.7,1.8,3.4c0.1,1.5-0.7,2.9-2,3.6L181,60.9z"/>
		<path id="Path_17" class="st2" d="M206.1,62c-4.4-10.9-4.4-11-5.3-11.4c-1-0.4-2.1,0-2.7,0.9c-0.6,1.1-8.4,20.9-8.4,21.3
			c0,0.5,0.4,1,0.9,1.1l0,0c0.4,0.2,0.9,0.2,1.4,0c0.4-0.2,0.4-0.2,2-4.5l0.9-2.3h10.4l1.1,2.8c1.4,3.6,1.5,3.8,1.9,3.9
			c0.9,0.3,2.1-0.3,2.1-1C210.4,72.6,208.5,67.7,206.1,62L206.1,62z M200.1,64.6c-2.3,0-4.2,0-4.2,0s0.9-2.3,1.9-5
			c1-2.7,2-5.2,2.1-5.6c-0.2-0.2-0.2-0.4,0-0.6s0.4-0.2,0.6,0s0.2,0.4,0,0.6c0,0,0,0,0,0c0.2,0.6,2.7,7.5,3.7,9.9l0.3,0.7
			L200.1,64.6z"/>
		<path id="Path_18" class="st2" d="M238.7,73.8c-0.6-0.2-1.2-0.5-1.6-1.1l-0.3-0.5V52.3l0.3-0.5c0.2-0.4,0.5-0.6,0.9-0.9l0.5-0.3
			l6.4,0l6.4,0l0.4,0.4c0.5,0.5,0.5,1.3,0,1.8l-0.3,0.3l-5.8,0c-5.6,0-5.9,0-6.1,0.3s-0.2,0.9-0.2,3.6v3.3h5.3c3.5,0,5.3,0,5.5,0.1
			c0.4,0.3,0.6,0.8,0.6,1.4c-0.1,0.2-0.2,0.4-0.3,0.6l-0.3,0.3h-10.6v3.9c0,3.1,0,3.9,0.2,4.2c0.1,0.2,0.5,0.2,6.2,0.3l6,0l0.3,0.3
			c0.5,0.5,0.4,1.3,0,1.8l-0.4,0.4h-6.3C241.9,73.8,238.9,73.8,238.7,73.8L238.7,73.8z"/>
		<path id="Path_19" class="st3" d="M179.9,23.8c-1.1-4.7-3.6-8.1-7.3-10c-3.2-1.4-6.8-1.8-10.2-1.1c-5.8,1.2-9.5,5.1-10.9,11.4
			c-0.2,1.4-0.3,2.7-0.3,4.1c-0.1,2.1,0.1,4.2,0.8,6.2c1.5,5.3,6,9.1,11.5,9.8c2.8,0.3,5.7,0,8.3-1.1c4.5-1.9,7.4-6.1,8.2-11.6
			C180.3,28.8,180.3,26.3,179.9,23.8L179.9,23.8z M173.5,31.7c-0.7,3.3-2.5,5.7-5.1,6.6c-1.5,0.4-3.1,0.4-4.6,0.2
			c-2.3-0.6-4.2-2.3-5.1-4.5c-1.3-3.3-1.4-7-0.4-10.5c0.7-2.7,2.8-4.9,5.6-5.6c2-0.4,4.1-0.1,5.8,0.9c1.8,1.2,3.1,3.1,3.6,5.3
			C173.9,26.6,173.9,29.2,173.5,31.7L173.5,31.7z"/>
		<path id="Path_20" class="st3" d="M132.4,42.9c0-0.3,0.1-6,0.2-12.5l0-11.9l-4.5,0.1c-2.5,0-4.8,0.1-5.2,0.2l-0.6,0v-6.1l1.1,0.1
			c0.6,0,6.1,0.1,12.3,0.1s11.7,0,12.3-0.1l1.1-0.1v6.1l-0.6,0c-0.3,0-2.6-0.1-5.2-0.2l-4.5-0.1l0,12c0,6.6,0.1,12.3,0.2,12.5
			l0.1,0.5h-6.9L132.4,42.9z"/>
		<path id="Path_21" class="st3" d="M190.5,42.5c-0.2-0.9-4.1-15.3-6.3-23.5c-0.8-2.9-1.4-5-1.8-5.8c0-0.2,0.1-0.2,3.5-0.2h3.6
			l0.1,0.9c0.1,1.3,0.2,1.8,2,9.9c0.9,3.8,1.7,7.8,1.9,8.9c0.2,1.3,0.4,1.8,0.5,1.6c0-0.2,0.2-1.1,0.5-2.1c0.2-0.9,1.3-5.2,2.5-9.3
			c1.1-4.2,2.2-8,2.2-8.4c0.3-1.6-0.1-1.4,3.1-1.4h2.8l0.2,1.1c0.1,0.6,1.2,4.6,2.4,8.9c1.2,4.3,2.3,8.6,2.5,9.5
			c0,0.6,0.2,1.1,0.5,1.6c0.1-0.5,0.2-1,0.3-1.5c0.1-0.8,1-4.7,1.9-8.9c1.7-7.5,1.9-8.5,2.1-10l0-0.8h7.2l-0.5,1.4
			c-0.5,1.5-6.7,24.2-7.5,27.2l-0.5,1.9l-3.1,0l-3.1,0l-0.3-1.4c-0.2-0.8-1.2-4.7-2.3-8.6c-1.1-3.9-2.2-8.1-2.4-9.2
			c-0.3-1.4-0.5-1.9-0.5-1.7c-0.2,0.6-0.3,1.2-0.3,1.8c-0.2,0.8-1.3,5-2.4,9.3c-1.1,4.4-2.2,8.2-2.3,8.6c-0.1,0.4-0.1,0.7-0.2,1.1
			l0,0.3h-6.2L190.5,42.5z"/>
		<path id="Path_22" class="st3" d="M225.2,43.3c0.5-1.1,0.5-28.9,0-30.1c0-0.2,0.2-0.2,3.4-0.2h3.6l0.5,1.1c0.3,0.6,3,4.8,6.2,9.5
			c3.1,4.6,5.9,8.9,6.3,9.6c0.6,1.2,0.9,1.4,0.7,0.8c0-0.2-0.2-4.7-0.2-10.1s-0.2-10-0.2-10.3l0-0.6h6.7l-0.1,0.7
			c-0.1,0.9-0.1,28.7,0,29.4l0.1,0.5h-7.2l-0.3-0.6c-1.6-2.8-3.4-5.5-5.3-8.1c-1.9-2.8-4.1-6.1-4.9-7.2c-0.8-1.2-1.8-2.8-2.3-3.7
			c-0.8-1.3-0.9-1.5-0.8-1c0,0.3,0.1,4.9,0.2,10.2c0,5.3,0.2,9.9,0.2,10.2l0.1,0.5h-3.4C225.4,43.5,225.1,43.5,225.2,43.3
			L225.2,43.3z"/>
		<path id="Path_23" class="st2" d="M106.2,10.6V2.6h6.3v16.1h-6.3V10.6z"/>
		<path id="Path_24" class="st2" d="M24.7,12.3l-3.7,0V1.7h3.3c1.8,0,3.5,0,3.7,0l0.4,0v2h-5.3l0,1.1l0,1.1h4.8l0,0.9l0,0.9H23v2.6
			l2.7,0l2.7,0v1c0,0.6,0,1-0.1,0.9C27.2,12.3,25.9,12.3,24.7,12.3L24.7,12.3z"/>
		<path id="Path_25" class="st2" d="M3.4,7.9l0-4.4L1.7,3.7L0,3.7v-2h9v2H7.3l-1.8,0v8.5H3.3L3.4,7.9z"/>
		<path id="Path_26" class="st2" d="M10.1,7V1.8h2.2l0,2l0,2H17l0-2l0-2h2.2v10.4H17V7.7h-4.7l0,2.3v2.2h-2.2V7z"/>
	</g>
	<g id="g1542" transform="translate(66.097,45.097)">
		<path id="simple1nobackGear" class="st3" d="M40.4,5l-3.7-1.5v-7.1L40.4-5c3.6-1.4,3.7-1.5,3.6-1.8c0-0.2-0.2-0.9-0.3-1.8
			c-0.3-1.5-0.7-3-1.2-4.5c-0.1-0.1-6.1,0.2-7.4,0.4l-0.5,0L34-14.2c-0.4-0.9-1.1-2.3-1.6-3.1l-0.9-1.6l0.3-0.3
			c0.2-0.2,1.4-1.6,2.7-3c1.6-1.8,2.3-2.6,2.3-2.7c0-0.1-0.6-0.8-1.1-1.5c-0.9-1.3-1.9-2.4-3-3.5c-0.2-0.1-0.9,0.3-3.6,1.8l-3.4,1.9
			l-1.1-0.9c-1.3-1.1-2.7-2.1-4.1-3.1c-0.1,0-0.2-0.1-0.3-0.3c0,0,0.5-1.8,1.1-3.9c0.9-2.8,1.1-3.8,0.9-3.8c-1.9-1.1-4-2.1-6.1-2.8
			c0,0-1,1.5-2.3,3.3s-2.3,3.2-2.3,3.3c-0.5-0.1-1.1-0.3-1.6-0.5c-1.1-0.3-2.3-0.6-3.4-0.8c-1-0.2-1.8-0.3-1.9-0.3S4.5-38,4.1-40.1
			L3.5-44l-0.8,0c-1.8-0.1-3.7-0.1-5.5,0l-0.8,0l-0.6,3.8c-0.3,2.1-0.6,3.9-0.7,3.9c0,0-0.9,0.2-1.9,0.3c-1.2,0.2-2.3,0.5-3.4,0.8
			c-0.9,0.2-1.6,0.5-1.6,0.5s-1-1.5-2.3-3.3c-1.3-1.8-2.3-3.3-2.3-3.3c-2.1,0.8-4.1,1.8-6.1,2.8c-0.1,0,0.1,0.9,0.9,3.8
			c0.6,2,1.1,3.8,1.1,3.9c0,0.1-0.1,0.2-0.3,0.3c-1.4,1-2.8,2-4.1,3.1l-1.1,0.9l-3.4-1.9c-1.9-1-3.4-1.9-3.6-1.9
			c-0.3,0-2.5,2.6-3.9,4.6l-0.4,0.6l2.4,2.6c1.3,1.4,2.5,2.7,2.7,2.9l0.3,0.3l-0.9,1.5c-0.5,0.8-1.1,2.2-1.6,3.1l-0.7,1.7l-0.5,0
			c-1.3-0.2-7.3-0.5-7.4-0.4c-0.5,1.5-0.9,2.9-1.2,4.5C-43.9-8-44-7.2-44.1-7.1c0,0.3,0,0.3,3.6,1.8l3.7,1.5v7.1l-3.7,1.5
			c-3.6,1.4-3.7,1.5-3.6,1.8c0,0.2,0.2,0.9,0.3,1.8c0.3,1.5,0.7,3,1.2,4.5c0.1,0.1,5.9-0.2,7.4-0.3l0.5,0l0.7,1.6
			c0.5,1.1,1,2.1,1.6,3.1l0.9,1.6l-0.3,0.3c-0.2,0.2-1.4,1.6-2.7,3c-1.6,1.8-2.3,2.6-2.3,2.7c0,0.1,0.6,0.8,1.1,1.5
			c0.9,1.3,1.9,2.4,3,3.5c0.2,0.1,0.9-0.3,3.6-1.8l3.4-1.9l1.1,0.9c1.3,1.1,2.7,2.1,4.1,3.1c0.1,0,0.2,0.1,0.3,0.3
			c0,0-0.5,1.8-1.1,3.9c-0.9,2.8-1.1,3.8-0.9,3.8c0.1,0,0.9,0.5,1.8,0.9c1.4,0.7,2.8,1.4,4.3,1.8c0.7-1.1,4.2-5.9,4.4-6.2l0.2-0.3
			l0.9,0.3c1.6,0.5,3.3,0.8,4.9,1.1l0.9,0.2l0.2,0.9c0,0.5,0.3,2.2,0.6,3.9l0.5,3l0.6,0l0,0c1.8,0.1,3.7,0.1,5.5,0l0.8,0l0.5-3
			c0.3-1.7,0.6-3.4,0.6-3.9l0.2-0.9l0.9-0.2c1.4-0.2,3.8-0.8,4.9-1.1l0.9-0.3l0.2,0.3c0.2,0.2,3.6,5.1,4.4,6.2
			c0.1,0.2,2.2-0.8,4.5-1.9c1.4-0.7,1.8-0.9,1.8-1.1c0-0.2-0.6-1.8-1.1-3.8L20,30.5l0.3-0.2c1.8-1.3,3.1-2.3,4.1-3.1l1.1-0.9
			l3.4,1.9c2.7,1.5,3.5,1.9,3.6,1.8c1.1-1.1,2.1-2.3,3-3.5c0.5-0.8,1-1.4,1.1-1.5c-0.6-1-1.4-1.9-2.3-2.7c-1.3-1.4-2.5-2.7-2.7-3
			l-0.3-0.3l0.9-1.6c0.5-0.9,1.1-2.3,1.6-3.1l0.7-1.6l0.5,0c2.5,0.2,5,0.4,7.4,0.3c0.5-1.5,0.9-2.9,1.2-4.5c0.2-0.8,0.3-1.6,0.3-1.8
			C44.1,6.5,44,6.5,40.4,5L40.4,5z M26.8,4.5c-0.9,5.3-3.4,10.1-7.1,14c-1.4,1.6-3.1,2.9-4.8,4.1c-3.4,2.2-7.2,3.6-11.2,4.2l0,0
			c-1.7,0.2-3.4,0.3-5.1,0.2c-4.7-0.3-9.3-1.8-13.3-4.4c-1.8-1.1-3.4-2.5-4.8-4.1c-1.6-1.6-3-3.5-4.1-5.4C-27.2,6.7-28-0.8-25.9-7.7
			c1.2-4,3.4-7.6,6.3-10.6C-9-29.2,8.4-29.4,19.3-18.9c0.2,0.2,0.4,0.4,0.6,0.6c3.7,3.8,6.2,8.7,7.1,14C27.2-1.4,27.2,1.6,26.8,4.5
			L26.8,4.5z"/>
	</g>
</g>
</svg>
