<?xml version="1.0" encoding="UTF-8"?>
<svg height="378.71mm" viewBox="0.0 0.0 62.10 378.71" width="62.10mm" xmlns="http://www.w3.org/2000/svg" xmlns:cc="http://creativecommons.org/ns#" xmlns:dc="http://purl.org/dc/elements/1.1/" xmlns:inkscape="http://www.inkscape.org/namespaces/inkscape" xmlns:rdf="http://www.w3.org/1999/02/22-rdf-syntax-ns#" xmlns:svg="http://www.w3.org/2000/svg" xmlns:xlink="http://www.w3.org/1999/xlink">
<!--
HexHoles - Hexagonal pattern of holes for ventilation

Created with Boxes.py (https://festi.info/boxes.py)
Creation date: 2021-10-31 18:17:37
Command line (remove spaces between dashes): boxes HexHoles - -HexHoles_diameter=10.0 - -HexHoles_distance=3.0 - -HexHoles_style=circle - -width=45 - -height=370 - -thickness=3.0 - -format=svg - -tabs=0.0 - -debug=0 - -labels=0 - -labels=1 - -reference=0 - -burn=0.1
Url: http://www.festi.info/HexHoles?HexHoles_diameter=10.0&HexHoles_distance=3.0&HexHoles_style=circle&width=45&height=370&thickness=3.0&format=svg&tabs=0.0&debug=0&labels=0&labels=1&reference=0&burn=0.1&render=1
SettingsUrl: http://www.festi.info/HexHoles?HexHoles_diameter=10.0&HexHoles_distance=3.0&HexHoles_style=circle&width=45&height=370&thickness=3.0&format=svg&tabs=0.0&debug=0&labels=0&labels=1&reference=0&burn=0.1
-->
<title>HexHoles</title>
<metadata>
<rdf:RDF><cc:Work>
<dc:title>Holes - HexHoles</dc:title>
<dc:date>2021-10-31 18:17:37</dc:date>
<dc:source>http://www.festi.info/HexHoles?HexHoles_diameter=10.0&amp;HexHoles_distance=3.0&amp;HexHoles_style=circle&amp;width=45&amp;height=370&amp;thickness=3.0&amp;format=svg&amp;tabs=0.0&amp;debug=0&amp;labels=0&amp;labels=1&amp;reference=0&amp;burn=0.1&amp;render=1</dc:source>
<dc:description>Hexagonal pattern of holes for ventilation

Created with Boxes.py (https://festi.info/boxes.py)
Command line: boxes HexHoles --HexHoles_diameter=10.0 --HexHoles_distance=3.0 --HexHoles_style=circle --width=45 --height=370 --thickness=3.0 --format=svg --tabs=0.0 --debug=0 --labels=0 --labels=1 --reference=0 --burn=0.1
Url: http://www.festi.info/HexHoles?HexHoles_diameter=10.0&amp;HexHoles_distance=3.0&amp;HexHoles_style=circle&amp;width=45&amp;height=370&amp;thickness=3.0&amp;format=svg&amp;tabs=0.0&amp;debug=0&amp;labels=0&amp;labels=1&amp;reference=0&amp;burn=0.1&amp;render=1
SettingsUrl: http://www.festi.info/HexHoles?HexHoles_diameter=10.0&amp;HexHoles_distance=3.0&amp;HexHoles_style=circle&amp;width=45&amp;height=370&amp;thickness=3.0&amp;format=svg&amp;tabs=0.0&amp;debug=0&amp;labels=0&amp;labels=1&amp;reference=0&amp;burn=0.1
</dc:description>
</cc:Work></rdf:RDF></metadata>
<g id="p-0" style="fill:none;stroke-linecap:round;stroke-linejoin:round;">
  <path d="M 19.602 363.858 C 19.602 364.798 19.332 365.717 18.824 366.508 C 18.316 367.298 17.592 367.925 16.737 368.316 C 15.883 368.706 14.934 368.842 14.004 368.708 C 13.074 368.575 12.203 368.177 11.493 367.562 C 10.783 366.946 10.265 366.140 10.000 365.239 C 9.735 364.338 9.735 363.379 10.000 362.478 C 10.265 361.577 10.783 360.770 11.493 360.155 C 12.203 359.540 13.074 359.142 14.004 359.008 C 14.934 358.875 15.883 359.011 16.737 359.401 C 17.592 359.791 18.316 360.419 18.824 361.209 C 19.332 361.999 19.602 362.919 19.602 363.858 Z" stroke="rgb(0,0,255)" stroke-width="0.20"/>
  <path d="M 32.602 363.858 C 32.602 364.798 32.332 365.717 31.824 366.508 C 31.316 367.298 30.592 367.925 29.737 368.316 C 28.883 368.706 27.934 368.842 27.004 368.708 C 26.074 368.575 25.203 368.177 24.493 367.562 C 23.783 366.946 23.265 366.140 23.000 365.239 C 22.735 364.338 22.735 363.379 23.000 362.478 C 23.265 361.577 23.783 360.770 24.493 360.155 C 25.203 359.540 26.074 359.142 27.004 359.008 C 27.934 358.875 28.883 359.011 29.737 359.401 C 30.592 359.791 31.316 360.419 31.824 361.209 C 32.332 361.999 32.602 362.919 32.602 363.858 Z" stroke="rgb(0,0,255)" stroke-width="0.20"/>
  <path d="M 45.602 363.858 C 45.602 364.798 45.332 365.717 44.824 366.508 C 44.316 367.298 43.592 367.925 42.737 368.316 C 41.883 368.706 40.934 368.842 40.004 368.708 C 39.074 368.575 38.203 368.177 37.493 367.562 C 36.783 366.946 36.265 366.140 36.000 365.239 C 35.735 364.338 35.735 363.379 36.000 362.478 C 36.265 361.577 36.783 360.770 37.493 360.155 C 38.203 359.540 39.074 359.142 40.004 359.008 C 40.934 358.875 41.883 359.011 42.737 359.401 C 43.592 359.791 44.316 360.419 44.824 361.209 C 45.332 361.999 45.602 362.919 45.602 363.858 Z" stroke="rgb(0,0,255)" stroke-width="0.20"/>
  <path d="M 26.102 352.600 C 26.102 353.539 25.832 354.459 25.324 355.249 C 24.816 356.039 24.092 356.667 23.237 357.057 C 22.383 357.447 21.434 357.584 20.504 357.450 C 19.574 357.316 18.703 356.918 17.993 356.303 C 17.283 355.688 16.765 354.882 16.500 353.981 C 16.235 353.079 16.235 352.121 16.500 351.220 C 16.765 350.318 17.283 349.512 17.993 348.897 C 18.703 348.282 19.574 347.884 20.504 347.750 C 21.434 347.616 22.383 347.753 23.237 348.143 C 24.092 348.533 24.816 349.161 25.324 349.951 C 25.832 350.741 26.102 351.661 26.102 352.600 Z" stroke="rgb(0,0,255)" stroke-width="0.20"/>
  <path d="M 39.102 352.600 C 39.102 353.539 38.832 354.459 38.324 355.249 C 37.816 356.039 37.092 356.667 36.237 357.057 C 35.383 357.447 34.434 357.584 33.504 357.450 C 32.574 357.316 31.703 356.918 30.993 356.303 C 30.283 355.688 29.765 354.882 29.500 353.981 C 29.235 353.079 29.235 352.121 29.500 351.220 C 29.765 350.318 30.283 349.512 30.993 348.897 C 31.703 348.282 32.574 347.884 33.504 347.750 C 34.434 347.616 35.383 347.753 36.237 348.143 C 37.092 348.533 37.816 349.161 38.324 349.951 C 38.832 350.741 39.102 351.661 39.102 352.600 Z" stroke="rgb(0,0,255)" stroke-width="0.20"/>
  <path d="M 52.102 352.600 C 52.102 353.539 51.832 354.459 51.324 355.249 C 50.816 356.039 50.092 356.667 49.237 357.057 C 48.383 357.447 47.434 357.584 46.504 357.450 C 45.574 357.316 44.703 356.918 43.993 356.303 C 43.283 355.688 42.765 354.882 42.500 353.981 C 42.235 353.079 42.235 352.121 42.500 351.220 C 42.765 350.318 43.283 349.512 43.993 348.897 C 44.703 348.282 45.574 347.884 46.504 347.750 C 47.434 347.616 48.383 347.753 49.237 348.143 C 50.092 348.533 50.816 349.161 51.324 349.951 C 51.832 350.741 52.102 351.661 52.102 352.600 Z" stroke="rgb(0,0,255)" stroke-width="0.20"/>
  <path d="M 19.602 341.342 C 19.602 342.281 19.332 343.201 18.824 343.991 C 18.316 344.781 17.592 345.409 16.737 345.799 C 15.883 346.189 14.934 346.326 14.004 346.192 C 13.074 346.058 12.203 345.660 11.493 345.045 C 10.783 344.430 10.265 343.623 10.000 342.722 C 9.735 341.821 9.735 340.863 10.000 339.961 C 10.265 339.060 10.783 338.254 11.493 337.639 C 12.203 337.023 13.074 336.625 14.004 336.492 C 14.934 336.358 15.883 336.494 16.737 336.885 C 17.592 337.275 18.316 337.902 18.824 338.693 C 19.332 339.483 19.602 340.402 19.602 341.342 Z" stroke="rgb(0,0,255)" stroke-width="0.20"/>
  <path d="M 32.602 341.342 C 32.602 342.281 32.332 343.201 31.824 343.991 C 31.316 344.781 30.592 345.409 29.737 345.799 C 28.883 346.189 27.934 346.326 27.004 346.192 C 26.074 346.058 25.203 345.660 24.493 345.045 C 23.783 344.430 23.265 343.623 23.000 342.722 C 22.735 341.821 22.735 340.863 23.000 339.961 C 23.265 339.060 23.783 338.254 24.493 337.639 C 25.203 337.023 26.074 336.625 27.004 336.492 C 27.934 336.358 28.883 336.494 29.737 336.885 C 30.592 337.275 31.316 337.902 31.824 338.693 C 32.332 339.483 32.602 340.402 32.602 341.342 Z" stroke="rgb(0,0,255)" stroke-width="0.20"/>
  <path d="M 45.602 341.342 C 45.602 342.281 45.332 343.201 44.824 343.991 C 44.316 344.781 43.592 345.409 42.737 345.799 C 41.883 346.189 40.934 346.326 40.004 346.192 C 39.074 346.058 38.203 345.660 37.493 345.045 C 36.783 344.430 36.265 343.623 36.000 342.722 C 35.735 341.821 35.735 340.863 36.000 339.961 C 36.265 339.060 36.783 338.254 37.493 337.639 C 38.203 337.023 39.074 336.625 40.004 336.492 C 40.934 336.358 41.883 336.494 42.737 336.885 C 43.592 337.275 44.316 337.902 44.824 338.693 C 45.332 339.483 45.602 340.402 45.602 341.342 Z" stroke="rgb(0,0,255)" stroke-width="0.20"/>
  <path d="M 26.102 330.083 C 26.102 331.023 25.832 331.942 25.324 332.733 C 24.816 333.523 24.092 334.150 23.237 334.541 C 22.383 334.931 21.434 335.067 20.504 334.933 C 19.574 334.800 18.703 334.402 17.993 333.787 C 17.283 333.171 16.765 332.365 16.500 331.464 C 16.235 330.563 16.235 329.604 16.500 328.703 C 16.765 327.802 17.283 326.995 17.993 326.380 C 18.703 325.765 19.574 325.367 20.504 325.233 C 21.434 325.100 22.383 325.236 23.237 325.626 C 24.092 326.016 24.816 326.644 25.324 327.434 C 25.832 328.224 26.102 329.144 26.102 330.083 Z" stroke="rgb(0,0,255)" stroke-width="0.20"/>
  <path d="M 39.102 330.083 C 39.102 331.023 38.832 331.942 38.324 332.733 C 37.816 333.523 37.092 334.150 36.237 334.541 C 35.383 334.931 34.434 335.067 33.504 334.933 C 32.574 334.800 31.703 334.402 30.993 333.787 C 30.283 333.171 29.765 332.365 29.500 331.464 C 29.235 330.563 29.235 329.604 29.500 328.703 C 29.765 327.802 30.283 326.995 30.993 326.380 C 31.703 325.765 32.574 325.367 33.504 325.233 C 34.434 325.100 35.383 325.236 36.237 325.626 C 37.092 326.016 37.816 326.644 38.324 327.434 C 38.832 328.224 39.102 329.144 39.102 330.083 Z" stroke="rgb(0,0,255)" stroke-width="0.20"/>
  <path d="M 52.102 330.083 C 52.102 331.023 51.832 331.942 51.324 332.733 C 50.816 333.523 50.092 334.150 49.237 334.541 C 48.383 334.931 47.434 335.067 46.504 334.933 C 45.574 334.800 44.703 334.402 43.993 333.787 C 43.283 333.171 42.765 332.365 42.500 331.464 C 42.235 330.563 42.235 329.604 42.500 328.703 C 42.765 327.802 43.283 326.995 43.993 326.380 C 44.703 325.765 45.574 325.367 46.504 325.233 C 47.434 325.100 48.383 325.236 49.237 325.626 C 50.092 326.016 50.816 326.644 51.324 327.434 C 51.832 328.224 52.102 329.144 52.102 330.083 Z" stroke="rgb(0,0,255)" stroke-width="0.20"/>
  <path d="M 19.602 318.825 C 19.602 319.764 19.332 320.684 18.824 321.474 C 18.316 322.264 17.592 322.892 16.737 323.282 C 15.883 323.672 14.934 323.809 14.004 323.675 C 13.074 323.541 12.203 323.143 11.493 322.528 C 10.783 321.913 10.265 321.107 10.000 320.206 C 9.735 319.304 9.735 318.346 10.000 317.445 C 10.265 316.543 10.783 315.737 11.493 315.122 C 12.203 314.507 13.074 314.109 14.004 313.975 C 14.934 313.841 15.883 313.978 16.737 314.368 C 17.592 314.758 18.316 315.386 18.824 316.176 C 19.332 316.966 19.602 317.886 19.602 318.825 Z" stroke="rgb(0,0,255)" stroke-width="0.20"/>
  <path d="M 32.602 318.825 C 32.602 319.764 32.332 320.684 31.824 321.474 C 31.316 322.264 30.592 322.892 29.737 323.282 C 28.883 323.672 27.934 323.809 27.004 323.675 C 26.074 323.541 25.203 323.143 24.493 322.528 C 23.783 321.913 23.265 321.107 23.000 320.206 C 22.735 319.304 22.735 318.346 23.000 317.445 C 23.265 316.543 23.783 315.737 24.493 315.122 C 25.203 314.507 26.074 314.109 27.004 313.975 C 27.934 313.841 28.883 313.978 29.737 314.368 C 30.592 314.758 31.316 315.386 31.824 316.176 C 32.332 316.966 32.602 317.886 32.602 318.825 Z" stroke="rgb(0,0,255)" stroke-width="0.20"/>
  <path d="M 45.602 318.825 C 45.602 319.764 45.332 320.684 44.824 321.474 C 44.316 322.264 43.592 322.892 42.737 323.282 C 41.883 323.672 40.934 323.809 40.004 323.675 C 39.074 323.541 38.203 323.143 37.493 322.528 C 36.783 321.913 36.265 321.107 36.000 320.206 C 35.735 319.304 35.735 318.346 36.000 317.445 C 36.265 316.543 36.783 315.737 37.493 315.122 C 38.203 314.507 39.074 314.109 40.004 313.975 C 40.934 313.841 41.883 313.978 42.737 314.368 C 43.592 314.758 44.316 315.386 44.824 316.176 C 45.332 316.966 45.602 317.886 45.602 318.825 Z" stroke="rgb(0,0,255)" stroke-width="0.20"/>
  <path d="M 26.102 307.567 C 26.102 308.506 25.832 309.426 25.324 310.216 C 24.816 311.006 24.092 311.634 23.237 312.024 C 22.383 312.414 21.434 312.551 20.504 312.417 C 19.574 312.283 18.703 311.885 17.993 311.270 C 17.283 310.655 16.765 309.849 16.500 308.947 C 16.235 308.046 16.235 307.088 16.500 306.186 C 16.765 305.285 17.283 304.479 17.993 303.864 C 18.703 303.248 19.574 302.850 20.504 302.717 C 21.434 302.583 22.383 302.719 23.237 303.110 C 24.092 303.500 24.816 304.127 25.324 304.918 C 25.832 305.708 26.102 306.627 26.102 307.567 Z" stroke="rgb(0,0,255)" stroke-width="0.20"/>
  <path d="M 39.102 307.567 C 39.102 308.506 38.832 309.426 38.324 310.216 C 37.816 311.006 37.092 311.634 36.237 312.024 C 35.383 312.414 34.434 312.551 33.504 312.417 C 32.574 312.283 31.703 311.885 30.993 311.270 C 30.283 310.655 29.765 309.849 29.500 308.947 C 29.235 308.046 29.235 307.088 29.500 306.186 C 29.765 305.285 30.283 304.479 30.993 303.864 C 31.703 303.248 32.574 302.850 33.504 302.717 C 34.434 302.583 35.383 302.719 36.237 303.110 C 37.092 303.500 37.816 304.127 38.324 304.918 C 38.832 305.708 39.102 306.627 39.102 307.567 Z" stroke="rgb(0,0,255)" stroke-width="0.20"/>
  <path d="M 52.102 307.567 C 52.102 308.506 51.832 309.426 51.324 310.216 C 50.816 311.006 50.092 311.634 49.237 312.024 C 48.383 312.414 47.434 312.551 46.504 312.417 C 45.574 312.283 44.703 311.885 43.993 311.270 C 43.283 310.655 42.765 309.849 42.500 308.947 C 42.235 308.046 42.235 307.088 42.500 306.186 C 42.765 305.285 43.283 304.479 43.993 303.864 C 44.703 303.248 45.574 302.850 46.504 302.717 C 47.434 302.583 48.383 302.719 49.237 303.110 C 50.092 303.500 50.816 304.127 51.324 304.918 C 51.832 305.708 52.102 306.627 52.102 307.567 Z" stroke="rgb(0,0,255)" stroke-width="0.20"/>
  <path d="M 19.602 296.308 C 19.602 297.248 19.332 298.167 18.824 298.958 C 18.316 299.748 17.592 300.375 16.737 300.766 C 15.883 301.156 14.934 301.292 14.004 301.159 C 13.074 301.025 12.203 300.627 11.493 300.012 C 10.783 299.396 10.265 298.590 10.000 297.689 C 9.735 296.788 9.735 295.829 10.000 294.928 C 10.265 294.027 10.783 293.220 11.493 292.605 C 12.203 291.990 13.074 291.592 14.004 291.458 C 14.934 291.325 15.883 291.461 16.737 291.851 C 17.592 292.241 18.316 292.869 18.824 293.659 C 19.332 294.449 19.602 295.369 19.602 296.308 Z" stroke="rgb(0,0,255)" stroke-width="0.20"/>
  <path d="M 32.602 296.308 C 32.602 297.248 32.332 298.167 31.824 298.958 C 31.316 299.748 30.592 300.375 29.737 300.766 C 28.883 301.156 27.934 301.292 27.004 301.159 C 26.074 301.025 25.203 300.627 24.493 300.012 C 23.783 299.396 23.265 298.590 23.000 297.689 C 22.735 296.788 22.735 295.829 23.000 294.928 C 23.265 294.027 23.783 293.220 24.493 292.605 C 25.203 291.990 26.074 291.592 27.004 291.458 C 27.934 291.325 28.883 291.461 29.737 291.851 C 30.592 292.241 31.316 292.869 31.824 293.659 C 32.332 294.449 32.602 295.369 32.602 296.308 Z" stroke="rgb(0,0,255)" stroke-width="0.20"/>
  <path d="M 45.602 296.308 C 45.602 297.248 45.332 298.167 44.824 298.958 C 44.316 299.748 43.592 300.375 42.737 300.766 C 41.883 301.156 40.934 301.292 40.004 301.159 C 39.074 301.025 38.203 300.627 37.493 300.012 C 36.783 299.396 36.265 298.590 36.000 297.689 C 35.735 296.788 35.735 295.829 36.000 294.928 C 36.265 294.027 36.783 293.220 37.493 292.605 C 38.203 291.990 39.074 291.592 40.004 291.458 C 40.934 291.325 41.883 291.461 42.737 291.851 C 43.592 292.241 44.316 292.869 44.824 293.659 C 45.332 294.449 45.602 295.369 45.602 296.308 Z" stroke="rgb(0,0,255)" stroke-width="0.20"/>
  <path d="M 26.102 285.050 C 26.102 285.989 25.832 286.909 25.324 287.699 C 24.816 288.489 24.092 289.117 23.237 289.507 C 22.383 289.897 21.434 290.034 20.504 289.900 C 19.574 289.766 18.703 289.368 17.993 288.753 C 17.283 288.138 16.765 287.332 16.500 286.431 C 16.235 285.529 16.235 284.571 16.500 283.670 C 16.765 282.768 17.283 281.962 17.993 281.347 C 18.703 280.732 19.574 280.334 20.504 280.200 C 21.434 280.066 22.383 280.203 23.237 280.593 C 24.092 280.983 24.816 281.611 25.324 282.401 C 25.832 283.191 26.102 284.111 26.102 285.050 Z" stroke="rgb(0,0,255)" stroke-width="0.20"/>
  <path d="M 39.102 285.050 C 39.102 285.989 38.832 286.909 38.324 287.699 C 37.816 288.489 37.092 289.117 36.237 289.507 C 35.383 289.897 34.434 290.034 33.504 289.900 C 32.574 289.766 31.703 289.368 30.993 288.753 C 30.283 288.138 29.765 287.332 29.500 286.431 C 29.235 285.529 29.235 284.571 29.500 283.670 C 29.765 282.768 30.283 281.962 30.993 281.347 C 31.703 280.732 32.574 280.334 33.504 280.200 C 34.434 280.066 35.383 280.203 36.237 280.593 C 37.092 280.983 37.816 281.611 38.324 282.401 C 38.832 283.191 39.102 284.111 39.102 285.050 Z" stroke="rgb(0,0,255)" stroke-width="0.20"/>
  <path d="M 52.102 285.050 C 52.102 285.989 51.832 286.909 51.324 287.699 C 50.816 288.489 50.092 289.117 49.237 289.507 C 48.383 289.897 47.434 290.034 46.504 289.900 C 45.574 289.766 44.703 289.368 43.993 288.753 C 43.283 288.138 42.765 287.332 42.500 286.431 C 42.235 285.529 42.235 284.571 42.500 283.670 C 42.765 282.768 43.283 281.962 43.993 281.347 C 44.703 280.732 45.574 280.334 46.504 280.200 C 47.434 280.066 48.383 280.203 49.237 280.593 C 50.092 280.983 50.816 281.611 51.324 282.401 C 51.832 283.191 52.102 284.111 52.102 285.050 Z" stroke="rgb(0,0,255)" stroke-width="0.20"/>
  <path d="M 19.602 273.792 C 19.602 274.731 19.332 275.651 18.824 276.441 C 18.316 277.231 17.592 277.859 16.737 278.249 C 15.883 278.639 14.934 278.776 14.004 278.642 C 13.074 278.508 12.203 278.110 11.493 277.495 C 10.783 276.880 10.265 276.074 10.000 275.172 C 9.735 274.271 9.735 273.313 10.000 272.411 C 10.265 271.510 10.783 270.704 11.493 270.089 C 12.203 269.473 13.074 269.075 14.004 268.942 C 14.934 268.808 15.883 268.944 16.737 269.335 C 17.592 269.725 18.316 270.352 18.824 271.143 C 19.332 271.933 19.602 272.852 19.602 273.792 Z" stroke="rgb(0,0,255)" stroke-width="0.20"/>
  <path d="M 32.602 273.792 C 32.602 274.731 32.332 275.651 31.824 276.441 C 31.316 277.231 30.592 277.859 29.737 278.249 C 28.883 278.639 27.934 278.776 27.004 278.642 C 26.074 278.508 25.203 278.110 24.493 277.495 C 23.783 276.880 23.265 276.074 23.000 275.172 C 22.735 274.271 22.735 273.313 23.000 272.411 C 23.265 271.510 23.783 270.704 24.493 270.089 C 25.203 269.473 26.074 269.075 27.004 268.942 C 27.934 268.808 28.883 268.944 29.737 269.335 C 30.592 269.725 31.316 270.352 31.824 271.143 C 32.332 271.933 32.602 272.852 32.602 273.792 Z" stroke="rgb(0,0,255)" stroke-width="0.20"/>
  <path d="M 45.602 273.792 C 45.602 274.731 45.332 275.651 44.824 276.441 C 44.316 277.231 43.592 277.859 42.737 278.249 C 41.883 278.639 40.934 278.776 40.004 278.642 C 39.074 278.508 38.203 278.110 37.493 277.495 C 36.783 276.880 36.265 276.074 36.000 275.172 C 35.735 274.271 35.735 273.313 36.000 272.411 C 36.265 271.510 36.783 270.704 37.493 270.089 C 38.203 269.473 39.074 269.075 40.004 268.942 C 40.934 268.808 41.883 268.944 42.737 269.335 C 43.592 269.725 44.316 270.352 44.824 271.143 C 45.332 271.933 45.602 272.852 45.602 273.792 Z" stroke="rgb(0,0,255)" stroke-width="0.20"/>
  <path d="M 26.102 262.533 C 26.102 263.473 25.832 264.392 25.324 265.183 C 24.816 265.973 24.092 266.600 23.237 266.991 C 22.383 267.381 21.434 267.517 20.504 267.384 C 19.574 267.250 18.703 266.852 17.993 266.237 C 17.283 265.621 16.765 264.815 16.500 263.914 C 16.235 263.013 16.235 262.054 16.500 261.153 C 16.765 260.252 17.283 259.445 17.993 258.830 C 18.703 258.215 19.574 257.817 20.504 257.683 C 21.434 257.550 22.383 257.686 23.237 258.076 C 24.092 258.466 24.816 259.094 25.324 259.884 C 25.832 260.674 26.102 261.594 26.102 262.533 Z" stroke="rgb(0,0,255)" stroke-width="0.20"/>
  <path d="M 39.102 262.533 C 39.102 263.473 38.832 264.392 38.324 265.183 C 37.816 265.973 37.092 266.600 36.237 266.991 C 35.383 267.381 34.434 267.517 33.504 267.384 C 32.574 267.250 31.703 266.852 30.993 266.237 C 30.283 265.621 29.765 264.815 29.500 263.914 C 29.235 263.013 29.235 262.054 29.500 261.153 C 29.765 260.252 30.283 259.445 30.993 258.830 C 31.703 258.215 32.574 257.817 33.504 257.683 C 34.434 257.550 35.383 257.686 36.237 258.076 C 37.092 258.466 37.816 259.094 38.324 259.884 C 38.832 260.674 39.102 261.594 39.102 262.533 Z" stroke="rgb(0,0,255)" stroke-width="0.20"/>
  <path d="M 52.102 262.533 C 52.102 263.473 51.832 264.392 51.324 265.183 C 50.816 265.973 50.092 266.600 49.237 266.991 C 48.383 267.381 47.434 267.517 46.504 267.384 C 45.574 267.250 44.703 266.852 43.993 266.237 C 43.283 265.621 42.765 264.815 42.500 263.914 C 42.235 263.013 42.235 262.054 42.500 261.153 C 42.765 260.252 43.283 259.445 43.993 258.830 C 44.703 258.215 45.574 257.817 46.504 257.683 C 47.434 257.550 48.383 257.686 49.237 258.076 C 50.092 258.466 50.816 259.094 51.324 259.884 C 51.832 260.674 52.102 261.594 52.102 262.533 Z" stroke="rgb(0,0,255)" stroke-width="0.20"/>
  <path d="M 19.602 251.275 C 19.602 252.214 19.332 253.134 18.824 253.924 C 18.316 254.714 17.592 255.342 16.737 255.732 C 15.883 256.122 14.934 256.259 14.004 256.125 C 13.074 255.992 12.203 255.593 11.493 254.978 C 10.783 254.363 10.265 253.557 10.000 252.656 C 9.735 251.754 9.735 250.796 10.000 249.895 C 10.265 248.993 10.783 248.187 11.493 247.572 C 12.203 246.957 13.074 246.559 14.004 246.425 C 14.934 246.291 15.883 246.428 16.737 246.818 C 17.592 247.208 18.316 247.836 18.824 248.626 C 19.332 249.416 19.602 250.336 19.602 251.275 Z" stroke="rgb(0,0,255)" stroke-width="0.20"/>
  <path d="M 32.602 251.275 C 32.602 252.214 32.332 253.134 31.824 253.924 C 31.316 254.714 30.592 255.342 29.737 255.732 C 28.883 256.122 27.934 256.259 27.004 256.125 C 26.074 255.992 25.203 255.593 24.493 254.978 C 23.783 254.363 23.265 253.557 23.000 252.656 C 22.735 251.754 22.735 250.796 23.000 249.895 C 23.265 248.993 23.783 248.187 24.493 247.572 C 25.203 246.957 26.074 246.559 27.004 246.425 C 27.934 246.291 28.883 246.428 29.737 246.818 C 30.592 247.208 31.316 247.836 31.824 248.626 C 32.332 249.416 32.602 250.336 32.602 251.275 Z" stroke="rgb(0,0,255)" stroke-width="0.20"/>
  <path d="M 45.602 251.275 C 45.602 252.214 45.332 253.134 44.824 253.924 C 44.316 254.714 43.592 255.342 42.737 255.732 C 41.883 256.122 40.934 256.259 40.004 256.125 C 39.074 255.992 38.203 255.593 37.493 254.978 C 36.783 254.363 36.265 253.557 36.000 252.656 C 35.735 251.754 35.735 250.796 36.000 249.895 C 36.265 248.993 36.783 248.187 37.493 247.572 C 38.203 246.957 39.074 246.559 40.004 246.425 C 40.934 246.291 41.883 246.428 42.737 246.818 C 43.592 247.208 44.316 247.836 44.824 248.626 C 45.332 249.416 45.602 250.336 45.602 251.275 Z" stroke="rgb(0,0,255)" stroke-width="0.20"/>
  <path d="M 26.102 240.017 C 26.102 240.956 25.832 241.876 25.324 242.666 C 24.816 243.456 24.092 244.084 23.237 244.474 C 22.383 244.864 21.434 245.001 20.504 244.867 C 19.574 244.733 18.703 244.335 17.993 243.720 C 17.283 243.105 16.765 242.299 16.500 241.397 C 16.235 240.496 16.235 239.538 16.500 238.636 C 16.765 237.735 17.283 236.929 17.993 236.314 C 18.703 235.698 19.574 235.300 20.504 235.167 C 21.434 235.033 22.383 235.169 23.237 235.560 C 24.092 235.950 24.816 236.577 25.324 237.368 C 25.832 238.158 26.102 239.077 26.102 240.017 Z" stroke="rgb(0,0,255)" stroke-width="0.20"/>
  <path d="M 39.102 240.017 C 39.102 240.956 38.832 241.876 38.324 242.666 C 37.816 243.456 37.092 244.084 36.237 244.474 C 35.383 244.864 34.434 245.001 33.504 244.867 C 32.574 244.733 31.703 244.335 30.993 243.720 C 30.283 243.105 29.765 242.299 29.500 241.397 C 29.235 240.496 29.235 239.538 29.500 238.636 C 29.765 237.735 30.283 236.929 30.993 236.314 C 31.703 235.698 32.574 235.300 33.504 235.167 C 34.434 235.033 35.383 235.169 36.237 235.560 C 37.092 235.950 37.816 236.577 38.324 237.368 C 38.832 238.158 39.102 239.077 39.102 240.017 Z" stroke="rgb(0,0,255)" stroke-width="0.20"/>
  <path d="M 52.102 240.017 C 52.102 240.956 51.832 241.876 51.324 242.666 C 50.816 243.456 50.092 244.084 49.237 244.474 C 48.383 244.864 47.434 245.001 46.504 244.867 C 45.574 244.733 44.703 244.335 43.993 243.720 C 43.283 243.105 42.765 242.299 42.500 241.397 C 42.235 240.496 42.235 239.538 42.500 238.636 C 42.765 237.735 43.283 236.929 43.993 236.314 C 44.703 235.698 45.574 235.300 46.504 235.167 C 47.434 235.033 48.383 235.169 49.237 235.560 C 50.092 235.950 50.816 236.577 51.324 237.368 C 51.832 238.158 52.102 239.077 52.102 240.017 Z" stroke="rgb(0,0,255)" stroke-width="0.20"/>
  <path d="M 19.602 228.758 C 19.602 229.698 19.332 230.617 18.824 231.408 C 18.316 232.198 17.592 232.825 16.737 233.216 C 15.883 233.606 14.934 233.742 14.004 233.609 C 13.074 233.475 12.203 233.077 11.493 232.462 C 10.783 231.846 10.265 231.040 10.000 230.139 C 9.735 229.238 9.735 228.279 10.000 227.378 C 10.265 226.477 10.783 225.670 11.493 225.055 C 12.203 224.440 13.074 224.042 14.004 223.908 C 14.934 223.775 15.883 223.911 16.737 224.301 C 17.592 224.691 18.316 225.319 18.824 226.109 C 19.332 226.899 19.602 227.819 19.602 228.758 Z" stroke="rgb(0,0,255)" stroke-width="0.20"/>
  <path d="M 32.602 228.758 C 32.602 229.698 32.332 230.617 31.824 231.408 C 31.316 232.198 30.592 232.825 29.737 233.216 C 28.883 233.606 27.934 233.742 27.004 233.609 C 26.074 233.475 25.203 233.077 24.493 232.462 C 23.783 231.846 23.265 231.040 23.000 230.139 C 22.735 229.238 22.735 228.279 23.000 227.378 C 23.265 226.477 23.783 225.670 24.493 225.055 C 25.203 224.440 26.074 224.042 27.004 223.908 C 27.934 223.775 28.883 223.911 29.737 224.301 C 30.592 224.691 31.316 225.319 31.824 226.109 C 32.332 226.899 32.602 227.819 32.602 228.758 Z" stroke="rgb(0,0,255)" stroke-width="0.20"/>
  <path d="M 45.602 228.758 C 45.602 229.698 45.332 230.617 44.824 231.408 C 44.316 232.198 43.592 232.825 42.737 233.216 C 41.883 233.606 40.934 233.742 40.004 233.609 C 39.074 233.475 38.203 233.077 37.493 232.462 C 36.783 231.846 36.265 231.040 36.000 230.139 C 35.735 229.238 35.735 228.279 36.000 227.378 C 36.265 226.477 36.783 225.670 37.493 225.055 C 38.203 224.440 39.074 224.042 40.004 223.908 C 40.934 223.775 41.883 223.911 42.737 224.301 C 43.592 224.691 44.316 225.319 44.824 226.109 C 45.332 226.899 45.602 227.819 45.602 228.758 Z" stroke="rgb(0,0,255)" stroke-width="0.20"/>
  <path d="M 26.102 217.500 C 26.102 218.439 25.832 219.359 25.324 220.149 C 24.816 220.939 24.092 221.567 23.237 221.957 C 22.383 222.347 21.434 222.484 20.504 222.350 C 19.574 222.217 18.703 221.818 17.993 221.203 C 17.283 220.588 16.765 219.782 16.500 218.881 C 16.235 217.979 16.235 217.021 16.500 216.120 C 16.765 215.218 17.283 214.412 17.993 213.797 C 18.703 213.182 19.574 212.784 20.504 212.650 C 21.434 212.516 22.383 212.653 23.237 213.043 C 24.092 213.433 24.816 214.061 25.324 214.851 C 25.832 215.641 26.102 216.561 26.102 217.500 Z" stroke="rgb(0,0,255)" stroke-width="0.20"/>
  <path d="M 39.102 217.500 C 39.102 218.439 38.832 219.359 38.324 220.149 C 37.816 220.939 37.092 221.567 36.237 221.957 C 35.383 222.347 34.434 222.484 33.504 222.350 C 32.574 222.217 31.703 221.818 30.993 221.203 C 30.283 220.588 29.765 219.782 29.500 218.881 C 29.235 217.979 29.235 217.021 29.500 216.120 C 29.765 215.218 30.283 214.412 30.993 213.797 C 31.703 213.182 32.574 212.784 33.504 212.650 C 34.434 212.516 35.383 212.653 36.237 213.043 C 37.092 213.433 37.816 214.061 38.324 214.851 C 38.832 215.641 39.102 216.561 39.102 217.500 Z" stroke="rgb(0,0,255)" stroke-width="0.20"/>
  <path d="M 52.102 217.500 C 52.102 218.439 51.832 219.359 51.324 220.149 C 50.816 220.939 50.092 221.567 49.237 221.957 C 48.383 222.347 47.434 222.484 46.504 222.350 C 45.574 222.217 44.703 221.818 43.993 221.203 C 43.283 220.588 42.765 219.782 42.500 218.881 C 42.235 217.979 42.235 217.021 42.500 216.120 C 42.765 215.218 43.283 214.412 43.993 213.797 C 44.703 213.182 45.574 212.784 46.504 212.650 C 47.434 212.516 48.383 212.653 49.237 213.043 C 50.092 213.433 50.816 214.061 51.324 214.851 C 51.832 215.641 52.102 216.561 52.102 217.500 Z" stroke="rgb(0,0,255)" stroke-width="0.20"/>
  <path d="M 19.602 206.242 C 19.602 207.181 19.332 208.101 18.824 208.891 C 18.316 209.681 17.592 210.309 16.737 210.699 C 15.883 211.089 14.934 211.226 14.004 211.092 C 13.074 210.958 12.203 210.560 11.493 209.945 C 10.783 209.330 10.265 208.524 10.000 207.622 C 9.735 206.721 9.735 205.763 10.000 204.861 C 10.265 203.960 10.783 203.154 11.493 202.539 C 12.203 201.923 13.074 201.525 14.004 201.392 C 14.934 201.258 15.883 201.394 16.737 201.785 C 17.592 202.175 18.316 202.802 18.824 203.593 C 19.332 204.383 19.602 205.302 19.602 206.242 Z" stroke="rgb(0,0,255)" stroke-width="0.20"/>
  <path d="M 32.602 206.242 C 32.602 207.181 32.332 208.101 31.824 208.891 C 31.316 209.681 30.592 210.309 29.737 210.699 C 28.883 211.089 27.934 211.226 27.004 211.092 C 26.074 210.958 25.203 210.560 24.493 209.945 C 23.783 209.330 23.265 208.524 23.000 207.622 C 22.735 206.721 22.735 205.763 23.000 204.861 C 23.265 203.960 23.783 203.154 24.493 202.539 C 25.203 201.923 26.074 201.525 27.004 201.392 C 27.934 201.258 28.883 201.394 29.737 201.785 C 30.592 202.175 31.316 202.802 31.824 203.593 C 32.332 204.383 32.602 205.302 32.602 206.242 Z" stroke="rgb(0,0,255)" stroke-width="0.20"/>
  <path d="M 45.602 206.242 C 45.602 207.181 45.332 208.101 44.824 208.891 C 44.316 209.681 43.592 210.309 42.737 210.699 C 41.883 211.089 40.934 211.226 40.004 211.092 C 39.074 210.958 38.203 210.560 37.493 209.945 C 36.783 209.330 36.265 208.524 36.000 207.622 C 35.735 206.721 35.735 205.763 36.000 204.861 C 36.265 203.960 36.783 203.154 37.493 202.539 C 38.203 201.923 39.074 201.525 40.004 201.392 C 40.934 201.258 41.883 201.394 42.737 201.785 C 43.592 202.175 44.316 202.802 44.824 203.593 C 45.332 204.383 45.602 205.302 45.602 206.242 Z" stroke="rgb(0,0,255)" stroke-width="0.20"/>
  <path d="M 26.102 194.983 C 26.102 195.923 25.832 196.842 25.324 197.633 C 24.816 198.423 24.092 199.050 23.237 199.441 C 22.383 199.831 21.434 199.967 20.504 199.834 C 19.574 199.700 18.703 199.302 17.993 198.687 C 17.283 198.071 16.765 197.265 16.500 196.364 C 16.235 195.463 16.235 194.504 16.500 193.603 C 16.765 192.702 17.283 191.895 17.993 191.280 C 18.703 190.665 19.574 190.267 20.504 190.133 C 21.434 190.000 22.383 190.136 23.237 190.526 C 24.092 190.916 24.816 191.544 25.324 192.334 C 25.832 193.125 26.102 194.044 26.102 194.983 Z" stroke="rgb(0,0,255)" stroke-width="0.20"/>
  <path d="M 39.102 194.983 C 39.102 195.923 38.832 196.842 38.324 197.633 C 37.816 198.423 37.092 199.050 36.237 199.441 C 35.383 199.831 34.434 199.967 33.504 199.834 C 32.574 199.700 31.703 199.302 30.993 198.687 C 30.283 198.071 29.765 197.265 29.500 196.364 C 29.235 195.463 29.235 194.504 29.500 193.603 C 29.765 192.702 30.283 191.895 30.993 191.280 C 31.703 190.665 32.574 190.267 33.504 190.133 C 34.434 190.000 35.383 190.136 36.237 190.526 C 37.092 190.916 37.816 191.544 38.324 192.334 C 38.832 193.125 39.102 194.044 39.102 194.983 Z" stroke="rgb(0,0,255)" stroke-width="0.20"/>
  <path d="M 52.102 194.983 C 52.102 195.923 51.832 196.842 51.324 197.633 C 50.816 198.423 50.092 199.050 49.237 199.441 C 48.383 199.831 47.434 199.967 46.504 199.834 C 45.574 199.700 44.703 199.302 43.993 198.687 C 43.283 198.071 42.765 197.265 42.500 196.364 C 42.235 195.463 42.235 194.504 42.500 193.603 C 42.765 192.702 43.283 191.895 43.993 191.280 C 44.703 190.665 45.574 190.267 46.504 190.133 C 47.434 190.000 48.383 190.136 49.237 190.526 C 50.092 190.916 50.816 191.544 51.324 192.334 C 51.832 193.125 52.102 194.044 52.102 194.983 Z" stroke="rgb(0,0,255)" stroke-width="0.20"/>
  <path d="M 19.602 183.725 C 19.602 184.664 19.332 185.584 18.824 186.374 C 18.316 187.164 17.592 187.792 16.737 188.182 C 15.883 188.572 14.934 188.709 14.004 188.575 C 13.074 188.442 12.203 188.043 11.493 187.428 C 10.783 186.813 10.265 186.007 10.000 185.106 C 9.735 184.204 9.735 183.246 10.000 182.345 C 10.265 181.443 10.783 180.637 11.493 180.022 C 12.203 179.407 13.074 179.009 14.004 178.875 C 14.934 178.741 15.883 178.878 16.737 179.268 C 17.592 179.658 18.316 180.286 18.824 181.076 C 19.332 181.866 19.602 182.786 19.602 183.725 Z" stroke="rgb(0,0,255)" stroke-width="0.20"/>
  <path d="M 32.602 183.725 C 32.602 184.664 32.332 185.584 31.824 186.374 C 31.316 187.164 30.592 187.792 29.737 188.182 C 28.883 188.572 27.934 188.709 27.004 188.575 C 26.074 188.442 25.203 188.043 24.493 187.428 C 23.783 186.813 23.265 186.007 23.000 185.106 C 22.735 184.204 22.735 183.246 23.000 182.345 C 23.265 181.443 23.783 180.637 24.493 180.022 C 25.203 179.407 26.074 179.009 27.004 178.875 C 27.934 178.741 28.883 178.878 29.737 179.268 C 30.592 179.658 31.316 180.286 31.824 181.076 C 32.332 181.866 32.602 182.786 32.602 183.725 Z" stroke="rgb(0,0,255)" stroke-width="0.20"/>
  <path d="M 45.602 183.725 C 45.602 184.664 45.332 185.584 44.824 186.374 C 44.316 187.164 43.592 187.792 42.737 188.182 C 41.883 188.572 40.934 188.709 40.004 188.575 C 39.074 188.442 38.203 188.043 37.493 187.428 C 36.783 186.813 36.265 186.007 36.000 185.106 C 35.735 184.204 35.735 183.246 36.000 182.345 C 36.265 181.443 36.783 180.637 37.493 180.022 C 38.203 179.407 39.074 179.009 40.004 178.875 C 40.934 178.741 41.883 178.878 42.737 179.268 C 43.592 179.658 44.316 180.286 44.824 181.076 C 45.332 181.866 45.602 182.786 45.602 183.725 Z" stroke="rgb(0,0,255)" stroke-width="0.20"/>
  <path d="M 26.102 172.467 C 26.102 173.406 25.832 174.326 25.324 175.116 C 24.816 175.906 24.092 176.534 23.237 176.924 C 22.383 177.314 21.434 177.451 20.504 177.317 C 19.574 177.183 18.703 176.785 17.993 176.170 C 17.283 175.555 16.765 174.749 16.500 173.847 C 16.235 172.946 16.235 171.988 16.500 171.086 C 16.765 170.185 17.283 169.379 17.993 168.764 C 18.703 168.148 19.574 167.750 20.504 167.617 C 21.434 167.483 22.383 167.619 23.237 168.010 C 24.092 168.400 24.816 169.027 25.324 169.818 C 25.832 170.608 26.102 171.527 26.102 172.467 Z" stroke="rgb(0,0,255)" stroke-width="0.20"/>
  <path d="M 39.102 172.467 C 39.102 173.406 38.832 174.326 38.324 175.116 C 37.816 175.906 37.092 176.534 36.237 176.924 C 35.383 177.314 34.434 177.451 33.504 177.317 C 32.574 177.183 31.703 176.785 30.993 176.170 C 30.283 175.555 29.765 174.749 29.500 173.847 C 29.235 172.946 29.235 171.988 29.500 171.086 C 29.765 170.185 30.283 169.379 30.993 168.764 C 31.703 168.148 32.574 167.750 33.504 167.617 C 34.434 167.483 35.383 167.619 36.237 168.010 C 37.092 168.400 37.816 169.027 38.324 169.818 C 38.832 170.608 39.102 171.527 39.102 172.467 Z" stroke="rgb(0,0,255)" stroke-width="0.20"/>
  <path d="M 52.102 172.467 C 52.102 173.406 51.832 174.326 51.324 175.116 C 50.816 175.906 50.092 176.534 49.237 176.924 C 48.383 177.314 47.434 177.451 46.504 177.317 C 45.574 177.183 44.703 176.785 43.993 176.170 C 43.283 175.555 42.765 174.749 42.500 173.847 C 42.235 172.946 42.235 171.988 42.500 171.086 C 42.765 170.185 43.283 169.379 43.993 168.764 C 44.703 168.148 45.574 167.750 46.504 167.617 C 47.434 167.483 48.383 167.619 49.237 168.010 C 50.092 168.400 50.816 169.027 51.324 169.818 C 51.832 170.608 52.102 171.527 52.102 172.467 Z" stroke="rgb(0,0,255)" stroke-width="0.20"/>
  <path d="M 19.602 161.208 C 19.602 162.148 19.332 163.067 18.824 163.858 C 18.316 164.648 17.592 165.275 16.737 165.666 C 15.883 166.056 14.934 166.192 14.004 166.059 C 13.074 165.925 12.203 165.527 11.493 164.912 C 10.783 164.296 10.265 163.490 10.000 162.589 C 9.735 161.688 9.735 160.729 10.000 159.828 C 10.265 158.927 10.783 158.120 11.493 157.505 C 12.203 156.890 13.074 156.492 14.004 156.358 C 14.934 156.225 15.883 156.361 16.737 156.751 C 17.592 157.141 18.316 157.769 18.824 158.559 C 19.332 159.350 19.602 160.269 19.602 161.208 Z" stroke="rgb(0,0,255)" stroke-width="0.20"/>
  <path d="M 32.602 161.208 C 32.602 162.148 32.332 163.067 31.824 163.858 C 31.316 164.648 30.592 165.275 29.737 165.666 C 28.883 166.056 27.934 166.192 27.004 166.059 C 26.074 165.925 25.203 165.527 24.493 164.912 C 23.783 164.296 23.265 163.490 23.000 162.589 C 22.735 161.688 22.735 160.729 23.000 159.828 C 23.265 158.927 23.783 158.120 24.493 157.505 C 25.203 156.890 26.074 156.492 27.004 156.358 C 27.934 156.225 28.883 156.361 29.737 156.751 C 30.592 157.141 31.316 157.769 31.824 158.559 C 32.332 159.350 32.602 160.269 32.602 161.208 Z" stroke="rgb(0,0,255)" stroke-width="0.20"/>
  <path d="M 45.602 161.208 C 45.602 162.148 45.332 163.067 44.824 163.858 C 44.316 164.648 43.592 165.275 42.737 165.666 C 41.883 166.056 40.934 166.192 40.004 166.059 C 39.074 165.925 38.203 165.527 37.493 164.912 C 36.783 164.296 36.265 163.490 36.000 162.589 C 35.735 161.688 35.735 160.729 36.000 159.828 C 36.265 158.927 36.783 158.120 37.493 157.505 C 38.203 156.890 39.074 156.492 40.004 156.358 C 40.934 156.225 41.883 156.361 42.737 156.751 C 43.592 157.141 44.316 157.769 44.824 158.559 C 45.332 159.350 45.602 160.269 45.602 161.208 Z" stroke="rgb(0,0,255)" stroke-width="0.20"/>
  <path d="M 26.102 149.950 C 26.102 150.889 25.832 151.809 25.324 152.599 C 24.816 153.389 24.092 154.017 23.237 154.407 C 22.383 154.798 21.434 154.934 20.504 154.800 C 19.574 154.667 18.703 154.268 17.993 153.653 C 17.283 153.038 16.765 152.232 16.500 151.331 C 16.235 150.429 16.235 149.471 16.500 148.570 C 16.765 147.668 17.283 146.862 17.993 146.247 C 18.703 145.632 19.574 145.234 20.504 145.100 C 21.434 144.966 22.383 145.103 23.237 145.493 C 24.092 145.883 24.816 146.511 25.324 147.301 C 25.832 148.091 26.102 149.011 26.102 149.950 Z" stroke="rgb(0,0,255)" stroke-width="0.20"/>
  <path d="M 39.102 149.950 C 39.102 150.889 38.832 151.809 38.324 152.599 C 37.816 153.389 37.092 154.017 36.237 154.407 C 35.383 154.798 34.434 154.934 33.504 154.800 C 32.574 154.667 31.703 154.268 30.993 153.653 C 30.283 153.038 29.765 152.232 29.500 151.331 C 29.235 150.429 29.235 149.471 29.500 148.570 C 29.765 147.668 30.283 146.862 30.993 146.247 C 31.703 145.632 32.574 145.234 33.504 145.100 C 34.434 144.966 35.383 145.103 36.237 145.493 C 37.092 145.883 37.816 146.511 38.324 147.301 C 38.832 148.091 39.102 149.011 39.102 149.950 Z" stroke="rgb(0,0,255)" stroke-width="0.20"/>
  <path d="M 52.102 149.950 C 52.102 150.889 51.832 151.809 51.324 152.599 C 50.816 153.389 50.092 154.017 49.237 154.407 C 48.383 154.798 47.434 154.934 46.504 154.800 C 45.574 154.667 44.703 154.268 43.993 153.653 C 43.283 153.038 42.765 152.232 42.500 151.331 C 42.235 150.429 42.235 149.471 42.500 148.570 C 42.765 147.668 43.283 146.862 43.993 146.247 C 44.703 145.632 45.574 145.234 46.504 145.100 C 47.434 144.966 48.383 145.103 49.237 145.493 C 50.092 145.883 50.816 146.511 51.324 147.301 C 51.832 148.091 52.102 149.011 52.102 149.950 Z" stroke="rgb(0,0,255)" stroke-width="0.20"/>
  <path d="M 19.602 138.692 C 19.602 139.631 19.332 140.551 18.824 141.341 C 18.316 142.131 17.592 142.759 16.737 143.149 C 15.883 143.539 14.934 143.676 14.004 143.542 C 13.074 143.408 12.203 143.010 11.493 142.395 C 10.783 141.780 10.265 140.974 10.000 140.072 C 9.735 139.171 9.735 138.213 10.000 137.311 C 10.265 136.410 10.783 135.604 11.493 134.989 C 12.203 134.373 13.074 133.975 14.004 133.842 C 14.934 133.708 15.883 133.844 16.737 134.235 C 17.592 134.625 18.316 135.252 18.824 136.043 C 19.332 136.833 19.602 137.752 19.602 138.692 Z" stroke="rgb(0,0,255)" stroke-width="0.20"/>
  <path d="M 32.602 138.692 C 32.602 139.631 32.332 140.551 31.824 141.341 C 31.316 142.131 30.592 142.759 29.737 143.149 C 28.883 143.539 27.934 143.676 27.004 143.542 C 26.074 143.408 25.203 143.010 24.493 142.395 C 23.783 141.780 23.265 140.974 23.000 140.072 C 22.735 139.171 22.735 138.213 23.000 137.311 C 23.265 136.410 23.783 135.604 24.493 134.989 C 25.203 134.373 26.074 133.975 27.004 133.842 C 27.934 133.708 28.883 133.844 29.737 134.235 C 30.592 134.625 31.316 135.252 31.824 136.043 C 32.332 136.833 32.602 137.752 32.602 138.692 Z" stroke="rgb(0,0,255)" stroke-width="0.20"/>
  <path d="M 45.602 138.692 C 45.602 139.631 45.332 140.551 44.824 141.341 C 44.316 142.131 43.592 142.759 42.737 143.149 C 41.883 143.539 40.934 143.676 40.004 143.542 C 39.074 143.408 38.203 143.010 37.493 142.395 C 36.783 141.780 36.265 140.974 36.000 140.072 C 35.735 139.171 35.735 138.213 36.000 137.311 C 36.265 136.410 36.783 135.604 37.493 134.989 C 38.203 134.373 39.074 133.975 40.004 133.842 C 40.934 133.708 41.883 133.844 42.737 134.235 C 43.592 134.625 44.316 135.252 44.824 136.043 C 45.332 136.833 45.602 137.752 45.602 138.692 Z" stroke="rgb(0,0,255)" stroke-width="0.20"/>
  <path d="M 26.102 127.433 C 26.102 128.373 25.832 129.292 25.324 130.083 C 24.816 130.873 24.092 131.500 23.237 131.891 C 22.383 132.281 21.434 132.417 20.504 132.284 C 19.574 132.150 18.703 131.752 17.993 131.137 C 17.283 130.521 16.765 129.715 16.500 128.814 C 16.235 127.913 16.235 126.954 16.500 126.053 C 16.765 125.152 17.283 124.345 17.993 123.730 C 18.703 123.115 19.574 122.717 20.504 122.583 C 21.434 122.450 22.383 122.586 23.237 122.976 C 24.092 123.366 24.816 123.994 25.324 124.784 C 25.832 125.575 26.102 126.494 26.102 127.433 Z" stroke="rgb(0,0,255)" stroke-width="0.20"/>
  <path d="M 39.102 127.433 C 39.102 128.373 38.832 129.292 38.324 130.083 C 37.816 130.873 37.092 131.500 36.237 131.891 C 35.383 132.281 34.434 132.417 33.504 132.284 C 32.574 132.150 31.703 131.752 30.993 131.137 C 30.283 130.521 29.765 129.715 29.500 128.814 C 29.235 127.913 29.235 126.954 29.500 126.053 C 29.765 125.152 30.283 124.345 30.993 123.730 C 31.703 123.115 32.574 122.717 33.504 122.583 C 34.434 122.450 35.383 122.586 36.237 122.976 C 37.092 123.366 37.816 123.994 38.324 124.784 C 38.832 125.575 39.102 126.494 39.102 127.433 Z" stroke="rgb(0,0,255)" stroke-width="0.20"/>
  <path d="M 52.102 127.433 C 52.102 128.373 51.832 129.292 51.324 130.083 C 50.816 130.873 50.092 131.500 49.237 131.891 C 48.383 132.281 47.434 132.417 46.504 132.284 C 45.574 132.150 44.703 131.752 43.993 131.137 C 43.283 130.521 42.765 129.715 42.500 128.814 C 42.235 127.913 42.235 126.954 42.500 126.053 C 42.765 125.152 43.283 124.345 43.993 123.730 C 44.703 123.115 45.574 122.717 46.504 122.583 C 47.434 122.450 48.383 122.586 49.237 122.976 C 50.092 123.366 50.816 123.994 51.324 124.784 C 51.832 125.575 52.102 126.494 52.102 127.433 Z" stroke="rgb(0,0,255)" stroke-width="0.20"/>
  <path d="M 19.602 116.175 C 19.602 117.114 19.332 118.034 18.824 118.824 C 18.316 119.614 17.592 120.242 16.737 120.632 C 15.883 121.023 14.934 121.159 14.004 121.025 C 13.074 120.892 12.203 120.493 11.493 119.878 C 10.783 119.263 10.265 118.457 10.000 117.556 C 9.735 116.654 9.735 115.696 10.000 114.795 C 10.265 113.893 10.783 113.087 11.493 112.472 C 12.203 111.857 13.074 111.459 14.004 111.325 C 14.934 111.191 15.883 111.328 16.737 111.718 C 17.592 112.108 18.316 112.736 18.824 113.526 C 19.332 114.316 19.602 115.236 19.602 116.175 Z" stroke="rgb(0,0,255)" stroke-width="0.20"/>
  <path d="M 32.602 116.175 C 32.602 117.114 32.332 118.034 31.824 118.824 C 31.316 119.614 30.592 120.242 29.737 120.632 C 28.883 121.023 27.934 121.159 27.004 121.025 C 26.074 120.892 25.203 120.493 24.493 119.878 C 23.783 119.263 23.265 118.457 23.000 117.556 C 22.735 116.654 22.735 115.696 23.000 114.795 C 23.265 113.893 23.783 113.087 24.493 112.472 C 25.203 111.857 26.074 111.459 27.004 111.325 C 27.934 111.191 28.883 111.328 29.737 111.718 C 30.592 112.108 31.316 112.736 31.824 113.526 C 32.332 114.316 32.602 115.236 32.602 116.175 Z" stroke="rgb(0,0,255)" stroke-width="0.20"/>
  <path d="M 45.602 116.175 C 45.602 117.114 45.332 118.034 44.824 118.824 C 44.316 119.614 43.592 120.242 42.737 120.632 C 41.883 121.023 40.934 121.159 40.004 121.025 C 39.074 120.892 38.203 120.493 37.493 119.878 C 36.783 119.263 36.265 118.457 36.000 117.556 C 35.735 116.654 35.735 115.696 36.000 114.795 C 36.265 113.893 36.783 113.087 37.493 112.472 C 38.203 111.857 39.074 111.459 40.004 111.325 C 40.934 111.191 41.883 111.328 42.737 111.718 C 43.592 112.108 44.316 112.736 44.824 113.526 C 45.332 114.316 45.602 115.236 45.602 116.175 Z" stroke="rgb(0,0,255)" stroke-width="0.20"/>
  <path d="M 26.102 104.917 C 26.102 105.856 25.832 106.776 25.324 107.566 C 24.816 108.356 24.092 108.984 23.237 109.374 C 22.383 109.764 21.434 109.901 20.504 109.767 C 19.574 109.633 18.703 109.235 17.993 108.620 C 17.283 108.005 16.765 107.199 16.500 106.297 C 16.235 105.396 16.235 104.438 16.500 103.536 C 16.765 102.635 17.283 101.829 17.993 101.214 C 18.703 100.598 19.574 100.200 20.504 100.067 C 21.434 99.933 22.383 100.069 23.237 100.460 C 24.092 100.850 24.816 101.477 25.324 102.268 C 25.832 103.058 26.102 103.977 26.102 104.917 Z" stroke="rgb(0,0,255)" stroke-width="0.20"/>
  <path d="M 39.102 104.917 C 39.102 105.856 38.832 106.776 38.324 107.566 C 37.816 108.356 37.092 108.984 36.237 109.374 C 35.383 109.764 34.434 109.901 33.504 109.767 C 32.574 109.633 31.703 109.235 30.993 108.620 C 30.283 108.005 29.765 107.199 29.500 106.297 C 29.235 105.396 29.235 104.438 29.500 103.536 C 29.765 102.635 30.283 101.829 30.993 101.214 C 31.703 100.598 32.574 100.200 33.504 100.067 C 34.434 99.933 35.383 100.069 36.237 100.460 C 37.092 100.850 37.816 101.477 38.324 102.268 C 38.832 103.058 39.102 103.977 39.102 104.917 Z" stroke="rgb(0,0,255)" stroke-width="0.20"/>
  <path d="M 52.102 104.917 C 52.102 105.856 51.832 106.776 51.324 107.566 C 50.816 108.356 50.092 108.984 49.237 109.374 C 48.383 109.764 47.434 109.901 46.504 109.767 C 45.574 109.633 44.703 109.235 43.993 108.620 C 43.283 108.005 42.765 107.199 42.500 106.297 C 42.235 105.396 42.235 104.438 42.500 103.536 C 42.765 102.635 43.283 101.829 43.993 101.214 C 44.703 100.598 45.574 100.200 46.504 100.067 C 47.434 99.933 48.383 100.069 49.237 100.460 C 50.092 100.850 50.816 101.477 51.324 102.268 C 51.832 103.058 52.102 103.977 52.102 104.917 Z" stroke="rgb(0,0,255)" stroke-width="0.20"/>
  <path d="M 19.602 93.658 C 19.602 94.598 19.332 95.517 18.824 96.308 C 18.316 97.098 17.592 97.725 16.737 98.116 C 15.883 98.506 14.934 98.642 14.004 98.509 C 13.074 98.375 12.203 97.977 11.493 97.362 C 10.783 96.746 10.265 95.940 10.000 95.039 C 9.735 94.138 9.735 93.179 10.000 92.278 C 10.265 91.377 10.783 90.570 11.493 89.955 C 12.203 89.340 13.074 88.942 14.004 88.808 C 14.934 88.675 15.883 88.811 16.737 89.201 C 17.592 89.591 18.316 90.219 18.824 91.009 C 19.332 91.800 19.602 92.719 19.602 93.658 Z" stroke="rgb(0,0,255)" stroke-width="0.20"/>
  <path d="M 32.602 93.658 C 32.602 94.598 32.332 95.517 31.824 96.308 C 31.316 97.098 30.592 97.725 29.737 98.116 C 28.883 98.506 27.934 98.642 27.004 98.509 C 26.074 98.375 25.203 97.977 24.493 97.362 C 23.783 96.746 23.265 95.940 23.000 95.039 C 22.735 94.138 22.735 93.179 23.000 92.278 C 23.265 91.377 23.783 90.570 24.493 89.955 C 25.203 89.340 26.074 88.942 27.004 88.808 C 27.934 88.675 28.883 88.811 29.737 89.201 C 30.592 89.591 31.316 90.219 31.824 91.009 C 32.332 91.800 32.602 92.719 32.602 93.658 Z" stroke="rgb(0,0,255)" stroke-width="0.20"/>
  <path d="M 45.602 93.658 C 45.602 94.598 45.332 95.517 44.824 96.308 C 44.316 97.098 43.592 97.725 42.737 98.116 C 41.883 98.506 40.934 98.642 40.004 98.509 C 39.074 98.375 38.203 97.977 37.493 97.362 C 36.783 96.746 36.265 95.940 36.000 95.039 C 35.735 94.138 35.735 93.179 36.000 92.278 C 36.265 91.377 36.783 90.570 37.493 89.955 C 38.203 89.340 39.074 88.942 40.004 88.808 C 40.934 88.675 41.883 88.811 42.737 89.201 C 43.592 89.591 44.316 90.219 44.824 91.009 C 45.332 91.800 45.602 92.719 45.602 93.658 Z" stroke="rgb(0,0,255)" stroke-width="0.20"/>
  <path d="M 26.102 82.400 C 26.102 83.339 25.832 84.259 25.324 85.049 C 24.816 85.839 24.092 86.467 23.237 86.857 C 22.383 87.248 21.434 87.384 20.504 87.250 C 19.574 87.117 18.703 86.718 17.993 86.103 C 17.283 85.488 16.765 84.682 16.500 83.781 C 16.235 82.879 16.235 81.921 16.500 81.020 C 16.765 80.118 17.283 79.312 17.993 78.697 C 18.703 78.082 19.574 77.684 20.504 77.550 C 21.434 77.416 22.383 77.553 23.237 77.943 C 24.092 78.333 24.816 78.961 25.324 79.751 C 25.832 80.541 26.102 81.461 26.102 82.400 Z" stroke="rgb(0,0,255)" stroke-width="0.20"/>
  <path d="M 39.102 82.400 C 39.102 83.339 38.832 84.259 38.324 85.049 C 37.816 85.839 37.092 86.467 36.237 86.857 C 35.383 87.248 34.434 87.384 33.504 87.250 C 32.574 87.117 31.703 86.718 30.993 86.103 C 30.283 85.488 29.765 84.682 29.500 83.781 C 29.235 82.879 29.235 81.921 29.500 81.020 C 29.765 80.118 30.283 79.312 30.993 78.697 C 31.703 78.082 32.574 77.684 33.504 77.550 C 34.434 77.416 35.383 77.553 36.237 77.943 C 37.092 78.333 37.816 78.961 38.324 79.751 C 38.832 80.541 39.102 81.461 39.102 82.400 Z" stroke="rgb(0,0,255)" stroke-width="0.20"/>
  <path d="M 52.102 82.400 C 52.102 83.339 51.832 84.259 51.324 85.049 C 50.816 85.839 50.092 86.467 49.237 86.857 C 48.383 87.248 47.434 87.384 46.504 87.250 C 45.574 87.117 44.703 86.718 43.993 86.103 C 43.283 85.488 42.765 84.682 42.500 83.781 C 42.235 82.879 42.235 81.921 42.500 81.020 C 42.765 80.118 43.283 79.312 43.993 78.697 C 44.703 78.082 45.574 77.684 46.504 77.550 C 47.434 77.416 48.383 77.553 49.237 77.943 C 50.092 78.333 50.816 78.961 51.324 79.751 C 51.832 80.541 52.102 81.461 52.102 82.400 Z" stroke="rgb(0,0,255)" stroke-width="0.20"/>
  <path d="M 19.602 71.142 C 19.602 72.081 19.332 73.001 18.824 73.791 C 18.316 74.581 17.592 75.209 16.737 75.599 C 15.883 75.989 14.934 76.126 14.004 75.992 C 13.074 75.858 12.203 75.460 11.493 74.845 C 10.783 74.230 10.265 73.424 10.000 72.522 C 9.735 71.621 9.735 70.663 10.000 69.761 C 10.265 68.860 10.783 68.054 11.493 67.439 C 12.203 66.823 13.074 66.425 14.004 66.292 C 14.934 66.158 15.883 66.294 16.737 66.685 C 17.592 67.075 18.316 67.702 18.824 68.493 C 19.332 69.283 19.602 70.202 19.602 71.142 Z" stroke="rgb(0,0,255)" stroke-width="0.20"/>
  <path d="M 32.602 71.142 C 32.602 72.081 32.332 73.001 31.824 73.791 C 31.316 74.581 30.592 75.209 29.737 75.599 C 28.883 75.989 27.934 76.126 27.004 75.992 C 26.074 75.858 25.203 75.460 24.493 74.845 C 23.783 74.230 23.265 73.424 23.000 72.522 C 22.735 71.621 22.735 70.663 23.000 69.761 C 23.265 68.860 23.783 68.054 24.493 67.439 C 25.203 66.823 26.074 66.425 27.004 66.292 C 27.934 66.158 28.883 66.294 29.737 66.685 C 30.592 67.075 31.316 67.702 31.824 68.493 C 32.332 69.283 32.602 70.202 32.602 71.142 Z" stroke="rgb(0,0,255)" stroke-width="0.20"/>
  <path d="M 45.602 71.142 C 45.602 72.081 45.332 73.001 44.824 73.791 C 44.316 74.581 43.592 75.209 42.737 75.599 C 41.883 75.989 40.934 76.126 40.004 75.992 C 39.074 75.858 38.203 75.460 37.493 74.845 C 36.783 74.230 36.265 73.424 36.000 72.522 C 35.735 71.621 35.735 70.663 36.000 69.761 C 36.265 68.860 36.783 68.054 37.493 67.439 C 38.203 66.823 39.074 66.425 40.004 66.292 C 40.934 66.158 41.883 66.294 42.737 66.685 C 43.592 67.075 44.316 67.702 44.824 68.493 C 45.332 69.283 45.602 70.202 45.602 71.142 Z" stroke="rgb(0,0,255)" stroke-width="0.20"/>
  <path d="M 26.102 59.883 C 26.102 60.823 25.832 61.742 25.324 62.533 C 24.816 63.323 24.092 63.950 23.237 64.341 C 22.383 64.731 21.434 64.867 20.504 64.734 C 19.574 64.600 18.703 64.202 17.993 63.587 C 17.283 62.971 16.765 62.165 16.500 61.264 C 16.235 60.363 16.235 59.404 16.500 58.503 C 16.765 57.602 17.283 56.795 17.993 56.180 C 18.703 55.565 19.574 55.167 20.504 55.033 C 21.434 54.900 22.383 55.036 23.237 55.426 C 24.092 55.816 24.816 56.444 25.324 57.234 C 25.832 58.025 26.102 58.944 26.102 59.883 Z" stroke="rgb(0,0,255)" stroke-width="0.20"/>
  <path d="M 39.102 59.883 C 39.102 60.823 38.832 61.742 38.324 62.533 C 37.816 63.323 37.092 63.950 36.237 64.341 C 35.383 64.731 34.434 64.867 33.504 64.734 C 32.574 64.600 31.703 64.202 30.993 63.587 C 30.283 62.971 29.765 62.165 29.500 61.264 C 29.235 60.363 29.235 59.404 29.500 58.503 C 29.765 57.602 30.283 56.795 30.993 56.180 C 31.703 55.565 32.574 55.167 33.504 55.033 C 34.434 54.900 35.383 55.036 36.237 55.426 C 37.092 55.816 37.816 56.444 38.324 57.234 C 38.832 58.025 39.102 58.944 39.102 59.883 Z" stroke="rgb(0,0,255)" stroke-width="0.20"/>
  <path d="M 52.102 59.883 C 52.102 60.823 51.832 61.742 51.324 62.533 C 50.816 63.323 50.092 63.950 49.237 64.341 C 48.383 64.731 47.434 64.867 46.504 64.734 C 45.574 64.600 44.703 64.202 43.993 63.587 C 43.283 62.971 42.765 62.165 42.500 61.264 C 42.235 60.363 42.235 59.404 42.500 58.503 C 42.765 57.602 43.283 56.795 43.993 56.180 C 44.703 55.565 45.574 55.167 46.504 55.033 C 47.434 54.900 48.383 55.036 49.237 55.426 C 50.092 55.816 50.816 56.444 51.324 57.234 C 51.832 58.025 52.102 58.944 52.102 59.883 Z" stroke="rgb(0,0,255)" stroke-width="0.20"/>
  <path d="M 19.602 48.625 C 19.602 49.564 19.332 50.484 18.824 51.274 C 18.316 52.064 17.592 52.692 16.737 53.082 C 15.883 53.473 14.934 53.609 14.004 53.475 C 13.074 53.342 12.203 52.943 11.493 52.328 C 10.783 51.713 10.265 50.907 10.000 50.006 C 9.735 49.104 9.735 48.146 10.000 47.245 C 10.265 46.343 10.783 45.537 11.493 44.922 C 12.203 44.307 13.074 43.909 14.004 43.775 C 14.934 43.641 15.883 43.778 16.737 44.168 C 17.592 44.558 18.316 45.186 18.824 45.976 C 19.332 46.766 19.602 47.686 19.602 48.625 Z" stroke="rgb(0,0,255)" stroke-width="0.20"/>
  <path d="M 32.602 48.625 C 32.602 49.564 32.332 50.484 31.824 51.274 C 31.316 52.064 30.592 52.692 29.737 53.082 C 28.883 53.473 27.934 53.609 27.004 53.475 C 26.074 53.342 25.203 52.943 24.493 52.328 C 23.783 51.713 23.265 50.907 23.000 50.006 C 22.735 49.104 22.735 48.146 23.000 47.245 C 23.265 46.343 23.783 45.537 24.493 44.922 C 25.203 44.307 26.074 43.909 27.004 43.775 C 27.934 43.641 28.883 43.778 29.737 44.168 C 30.592 44.558 31.316 45.186 31.824 45.976 C 32.332 46.766 32.602 47.686 32.602 48.625 Z" stroke="rgb(0,0,255)" stroke-width="0.20"/>
  <path d="M 45.602 48.625 C 45.602 49.564 45.332 50.484 44.824 51.274 C 44.316 52.064 43.592 52.692 42.737 53.082 C 41.883 53.473 40.934 53.609 40.004 53.475 C 39.074 53.342 38.203 52.943 37.493 52.328 C 36.783 51.713 36.265 50.907 36.000 50.006 C 35.735 49.104 35.735 48.146 36.000 47.245 C 36.265 46.343 36.783 45.537 37.493 44.922 C 38.203 44.307 39.074 43.909 40.004 43.775 C 40.934 43.641 41.883 43.778 42.737 44.168 C 43.592 44.558 44.316 45.186 44.824 45.976 C 45.332 46.766 45.602 47.686 45.602 48.625 Z" stroke="rgb(0,0,255)" stroke-width="0.20"/>
  <path d="M 26.102 37.367 C 26.102 38.306 25.832 39.226 25.324 40.016 C 24.816 40.806 24.092 41.434 23.237 41.824 C 22.383 42.214 21.434 42.351 20.504 42.217 C 19.574 42.083 18.703 41.685 17.993 41.070 C 17.283 40.455 16.765 39.649 16.500 38.747 C 16.235 37.846 16.235 36.888 16.500 35.986 C 16.765 35.085 17.283 34.279 17.993 33.664 C 18.703 33.048 19.574 32.650 20.504 32.517 C 21.434 32.383 22.383 32.519 23.237 32.910 C 24.092 33.300 24.816 33.927 25.324 34.718 C 25.832 35.508 26.102 36.427 26.102 37.367 Z" stroke="rgb(0,0,255)" stroke-width="0.20"/>
  <path d="M 39.102 37.367 C 39.102 38.306 38.832 39.226 38.324 40.016 C 37.816 40.806 37.092 41.434 36.237 41.824 C 35.383 42.214 34.434 42.351 33.504 42.217 C 32.574 42.083 31.703 41.685 30.993 41.070 C 30.283 40.455 29.765 39.649 29.500 38.747 C 29.235 37.846 29.235 36.888 29.500 35.986 C 29.765 35.085 30.283 34.279 30.993 33.664 C 31.703 33.048 32.574 32.650 33.504 32.517 C 34.434 32.383 35.383 32.519 36.237 32.910 C 37.092 33.300 37.816 33.927 38.324 34.718 C 38.832 35.508 39.102 36.427 39.102 37.367 Z" stroke="rgb(0,0,255)" stroke-width="0.20"/>
  <path d="M 52.102 37.367 C 52.102 38.306 51.832 39.226 51.324 40.016 C 50.816 40.806 50.092 41.434 49.237 41.824 C 48.383 42.214 47.434 42.351 46.504 42.217 C 45.574 42.083 44.703 41.685 43.993 41.070 C 43.283 40.455 42.765 39.649 42.500 38.747 C 42.235 37.846 42.235 36.888 42.500 35.986 C 42.765 35.085 43.283 34.279 43.993 33.664 C 44.703 33.048 45.574 32.650 46.504 32.517 C 47.434 32.383 48.383 32.519 49.237 32.910 C 50.092 33.300 50.816 33.927 51.324 34.718 C 51.832 35.508 52.102 36.427 52.102 37.367 Z" stroke="rgb(0,0,255)" stroke-width="0.20"/>
  <path d="M 19.602 26.108 C 19.602 27.048 19.332 27.967 18.824 28.758 C 18.316 29.548 17.592 30.175 16.737 30.566 C 15.883 30.956 14.934 31.092 14.004 30.959 C 13.074 30.825 12.203 30.427 11.493 29.812 C 10.783 29.196 10.265 28.390 10.000 27.489 C 9.735 26.588 9.735 25.629 10.000 24.728 C 10.265 23.827 10.783 23.020 11.493 22.405 C 12.203 21.790 13.074 21.392 14.004 21.258 C 14.934 21.125 15.883 21.261 16.737 21.651 C 17.592 22.041 18.316 22.669 18.824 23.459 C 19.332 24.250 19.602 25.169 19.602 26.108 Z" stroke="rgb(0,0,255)" stroke-width="0.20"/>
  <path d="M 32.602 26.108 C 32.602 27.048 32.332 27.967 31.824 28.758 C 31.316 29.548 30.592 30.175 29.737 30.566 C 28.883 30.956 27.934 31.092 27.004 30.959 C 26.074 30.825 25.203 30.427 24.493 29.812 C 23.783 29.196 23.265 28.390 23.000 27.489 C 22.735 26.588 22.735 25.629 23.000 24.728 C 23.265 23.827 23.783 23.020 24.493 22.405 C 25.203 21.790 26.074 21.392 27.004 21.258 C 27.934 21.125 28.883 21.261 29.737 21.651 C 30.592 22.041 31.316 22.669 31.824 23.459 C 32.332 24.250 32.602 25.169 32.602 26.108 Z" stroke="rgb(0,0,255)" stroke-width="0.20"/>
  <path d="M 45.602 26.108 C 45.602 27.048 45.332 27.967 44.824 28.758 C 44.316 29.548 43.592 30.175 42.737 30.566 C 41.883 30.956 40.934 31.092 40.004 30.959 C 39.074 30.825 38.203 30.427 37.493 29.812 C 36.783 29.196 36.265 28.390 36.000 27.489 C 35.735 26.588 35.735 25.629 36.000 24.728 C 36.265 23.827 36.783 23.020 37.493 22.405 C 38.203 21.790 39.074 21.392 40.004 21.258 C 40.934 21.125 41.883 21.261 42.737 21.651 C 43.592 22.041 44.316 22.669 44.824 23.459 C 45.332 24.250 45.602 25.169 45.602 26.108 Z" stroke="rgb(0,0,255)" stroke-width="0.20"/>
  <path d="M 26.102 14.850 C 26.102 15.789 25.832 16.709 25.324 17.499 C 24.816 18.289 24.092 18.917 23.237 19.307 C 22.383 19.698 21.434 19.834 20.504 19.700 C 19.574 19.567 18.703 19.168 17.993 18.553 C 17.283 17.938 16.765 17.132 16.500 16.231 C 16.235 15.329 16.235 14.371 16.500 13.470 C 16.765 12.568 17.283 11.762 17.993 11.147 C 18.703 10.532 19.574 10.134 20.504 10.000 C 21.434 9.866 22.383 10.003 23.237 10.393 C 24.092 10.783 24.816 11.411 25.324 12.201 C 25.832 12.991 26.102 13.911 26.102 14.850 Z" stroke="rgb(0,0,255)" stroke-width="0.20"/>
  <path d="M 39.102 14.850 C 39.102 15.789 38.832 16.709 38.324 17.499 C 37.816 18.289 37.092 18.917 36.237 19.307 C 35.383 19.698 34.434 19.834 33.504 19.700 C 32.574 19.567 31.703 19.168 30.993 18.553 C 30.283 17.938 29.765 17.132 29.500 16.231 C 29.235 15.329 29.235 14.371 29.500 13.470 C 29.765 12.568 30.283 11.762 30.993 11.147 C 31.703 10.532 32.574 10.134 33.504 10.000 C 34.434 9.866 35.383 10.003 36.237 10.393 C 37.092 10.783 37.816 11.411 38.324 12.201 C 38.832 12.991 39.102 13.911 39.102 14.850 Z" stroke="rgb(0,0,255)" stroke-width="0.20"/>
  <path d="M 52.102 14.850 C 52.102 15.789 51.832 16.709 51.324 17.499 C 50.816 18.289 50.092 18.917 49.237 19.307 C 48.383 19.698 47.434 19.834 46.504 19.700 C 45.574 19.567 44.703 19.168 43.993 18.553 C 43.283 17.938 42.765 17.132 42.500 16.231 C 42.235 15.329 42.235 14.371 42.500 13.470 C 42.765 12.568 43.283 11.762 43.993 11.147 C 44.703 10.532 45.574 10.134 46.504 10.000 C 47.434 9.866 48.383 10.003 49.237 10.393 C 50.092 10.783 50.816 11.411 51.324 12.201 C 51.832 12.991 52.102 13.911 52.102 14.850 Z" stroke="rgb(0,0,255)" stroke-width="0.20"/>
</g>
</svg>