<?xml version="1.0" encoding="UTF-8" standalone="no"?>
<!-- Created with Inkscape (http://www.inkscape.org/) -->

<svg
   width="210mm"
   height="297mm"
   viewBox="0 0 210 297"
   version="1.1"
   id="svg5"
   inkscape:version="1.1.1 (3bf5ae0d25, 2021-09-20)"
   sodipodi:docname="electronics-sign.svg"
   xmlns:inkscape="http://www.inkscape.org/namespaces/inkscape"
   xmlns:sodipodi="http://sodipodi.sourceforge.net/DTD/sodipodi-0.dtd"
   xmlns="http://www.w3.org/2000/svg"
   xmlns:svg="http://www.w3.org/2000/svg">
  <sodipodi:namedview
     id="namedview7"
     pagecolor="#ffffff"
     bordercolor="#666666"
     borderopacity="1.0"
     inkscape:pageshadow="2"
     inkscape:pageopacity="0.0"
     inkscape:pagecheckerboard="0"
     inkscape:document-units="mm"
     showgrid="false"
     showborder="false"
     inkscape:zoom="0.097006212"
     inkscape:cx="4469.3208"
     inkscape:cy="973.56508"
     inkscape:window-width="1920"
     inkscape:window-height="1057"
     inkscape:window-x="-8"
     inkscape:window-y="-8"
     inkscape:window-maximized="1"
     inkscape:current-layer="layer1"
     inkscape:rotation="2" />
  <defs
     id="defs2" />
  <g
     inkscape:label="Layer 1"
     inkscape:groupmode="layer"
     id="layer1">
    <text
       xml:space="preserve"
       style="font-style:normal;font-variant:normal;font-weight:normal;font-stretch:normal;font-size:150px;line-height:45.0996px;font-family:'Copperplate Gothic Bold';-inkscape-font-specification:'Copperplate Gothic Bold, Normal';font-variant-ligatures:normal;font-variant-caps:normal;font-variant-numeric:normal;font-variant-east-asian:normal;letter-spacing:0px;word-spacing:0px;stroke-width:0.264583"
       x="62.998928"
       y="128.40482"
       id="text7118"><tspan
         sodipodi:role="line"
         id="tspan7116"
         style="font-style:normal;font-variant:normal;font-weight:normal;font-stretch:normal;font-size:150px;font-family:'Copperplate Gothic Bold';-inkscape-font-specification:'Copperplate Gothic Bold, Normal';font-variant-ligatures:normal;font-variant-caps:normal;font-variant-numeric:normal;font-variant-east-asian:normal;stroke-width:0.264583"
         x="62.998928"
         y="128.40482">ELECTRONICS</tspan></text>
    <rect
       style="fill:#000000;stroke:none;stroke-width:4.59999"
       id="rect20008"
       width="1237.0458"
       height="15"
       x="57.220181"
       y="12.159134"
       rx="4.1085973"
       ry="4" />
    <rect
       style="fill:#000000;stroke:none;stroke-width:4.59999"
       id="rect20090"
       width="1237.0458"
       height="15"
       x="57.220181"
       y="129.6344"
       rx="4.1085973"
       ry="4" />
    <rect
       style="fill:#000000;stroke:none;stroke-width:4.59999"
       id="rect20400"
       width="4"
       height="11.391"
       x="199.32468"
       y="20.491648"
       rx="1.8503724e-17"
       ry="2.7755586e-17" />
    <rect
       style="fill:#000000;stroke:none;stroke-width:4.59999"
       id="rect20651"
       width="4"
       height="11.391"
       x="84.495468"
       y="20.491648"
       rx="1.8503724e-17"
       ry="2.7755586e-17" />
    <rect
       style="fill:#000000;stroke:none;stroke-width:4.59999"
       id="rect20653"
       width="4"
       height="11.391"
       x="305.68704"
       y="20.491648"
       rx="1.8503724e-17"
       ry="2.7755586e-17" />
    <rect
       style="fill:#000000;stroke:none;stroke-width:4.59999"
       id="rect20655"
       width="4"
       height="11.391"
       x="199.32468"
       y="121.03329"
       rx="1.8503724e-17"
       ry="2.7755586e-17" />
    <rect
       style="fill:#000000;stroke:none;stroke-width:4.59999"
       id="rect20657"
       width="4"
       height="11.391"
       x="570.79944"
       y="121.03329"
       rx="1.8503724e-17"
       ry="2.7755586e-17" />
    <rect
       style="fill:#000000;stroke:none;stroke-width:4.59999"
       id="rect20659"
       width="4"
       height="11.391"
       x="646.47058"
       y="23.137486"
       rx="1.8503724e-17"
       ry="2.7755586e-17" />
    <rect
       style="fill:#000000;stroke:none;stroke-width:4.59999"
       id="rect20661"
       width="4"
       height="11.391"
       x="646.47058"
       y="119.97498"
       rx="1.8503724e-17"
       ry="2.7755586e-17" />
    <rect
       style="fill:#000000;stroke:none;stroke-width:4.59999"
       id="rect20663"
       width="4"
       height="11.391"
       x="720.5542"
       y="121.03332"
       rx="1.8503724e-17"
       ry="2.7755586e-17" />
    <rect
       style="fill:#000000;stroke:none;stroke-width:4.59999"
       id="rect20665"
       width="4"
       height="11.391"
       x="693.56635"
       y="20.491678"
       rx="1.8503724e-17"
       ry="2.7755586e-17" />
    <rect
       style="fill:#000000;stroke:none;stroke-width:4.59999"
       id="rect20667"
       width="4"
       height="11.391"
       x="893.06293"
       y="20.491678"
       rx="1.8503724e-17"
       ry="2.7755586e-17" />
    <rect
       style="fill:#000000;stroke:none;stroke-width:4.59999"
       id="rect20669"
       width="4"
       height="11.391"
       x="893.06293"
       y="121.03333"
       rx="1.8503724e-17"
       ry="2.7755586e-17" />
    <rect
       style="fill:#000000;stroke:none;stroke-width:4.59999"
       id="rect20671"
       width="4"
       height="11.391"
       x="977.20074"
       y="121.03333"
       rx="1.8503724e-17"
       ry="2.7755586e-17" />
    <rect
       style="fill:#000000;stroke:none;stroke-width:4.59999"
       id="rect20673"
       width="4"
       height="11.391"
       x="977.20074"
       y="20.491678"
       rx="1.8503724e-17"
       ry="2.7755586e-17" />
    <rect
       style="fill:#000000;stroke:none;stroke-width:4.59999"
       id="rect20675"
       width="4"
       height="11.391"
       x="1024.8259"
       y="20.491678"
       rx="1.8503724e-17"
       ry="2.7755586e-17" />
    <rect
       style="fill:#000000;stroke:none;stroke-width:4.59999"
       id="rect20677"
       width="4"
       height="11.391"
       x="1024.8259"
       y="121.03333"
       rx="1.8503724e-17"
       ry="2.7755586e-17" />
    <rect
       style="fill:#000000;stroke:none;stroke-width:4.59999"
       id="rect20679"
       width="4"
       height="11.391"
       x="305.68704"
       y="121.03333"
       rx="1.8503724e-17"
       ry="2.7755586e-17" />
    <rect
       style="fill:#000000;stroke:none;stroke-width:4.59999"
       id="rect20681"
       width="4"
       height="11.391"
       x="84.495468"
       y="121.03329"
       rx="1.8503724e-17"
       ry="2.7755586e-17" />
    <g
       aria-label="ELECTRONICS"
       id="text3337"
       style="font-size:150px;line-height:45.0996px;font-family:'Copperplate Gothic Bold';-inkscape-font-specification:'Copperplate Gothic Bold, Normal';letter-spacing:0px;word-spacing:0px;stroke-width:0.264583">
      <path
         id="path5006"
         style="stroke-width:0.999999"
         d="M 304.6875 -974.54492 C 296.08468 -974.54492 289.1582 -967.80317 289.1582 -959.42773 L 289.1582 -932.9707 C 289.1582 -924.59527 296.08468 -917.85156 304.6875 -917.85156 L 392.24609 -917.85156 L 392.24609 -913.05273 L 345.04883 -913.05273 L 345.04883 -904.19336 C 351.69253 -902.34789 356.30501 -899.94886 358.88867 -896.99609 C 361.47233 -894.04335 362.76367 -889.7073 362.76367 -883.98633 L 362.76367 -564.25781 C 362.76367 -558.53687 361.47233 -554.20082 358.88867 -551.24805 C 356.30501 -548.2953 351.69253 -545.89627 345.04883 -544.05078 L 345.04883 -535.19141 L 392.24609 -535.19141 L 392.24609 -530.54492 L 304.6875 -530.54492 C 296.08468 -530.54492 289.1582 -523.80121 289.1582 -515.42578 L 289.1582 -488.96875 C 289.1582 -480.59332 296.08468 -473.85156 304.6875 -473.85156 L 4949.0781 -473.85156 C 4957.6809 -473.85156 4964.6074 -480.59332 4964.6074 -488.96875 L 4964.6074 -515.42578 C 4964.6074 -523.80121 4957.6809 -530.54492 4949.0781 -530.54492 L 4767.6973 -530.54492 C 4782.4005 -532.22849 4796.559 -534.9764 4810.168 -538.79102 C 4842.8327 -547.83384 4866.9159 -561.76603 4882.418 -580.58984 C 4899.5808 -601.25915 4908.1621 -624.88224 4908.1621 -651.45703 C 4908.1621 -668.25083 4904.4718 -684.02918 4897.0898 -698.79297 C 4889.8926 -713.55674 4880.0175 -725.45913 4867.4688 -734.50195 C 4855.1042 -743.17567 4840.8955 -749.9127 4824.8398 -754.71094 C 4808.9689 -759.50915 4788.1139 -763.29232 4762.2773 -766.06055 L 4718.8164 -770.49023 C 4689.6581 -773.443 4670.6495 -776.21126 4661.791 -778.79492 C 4644.6282 -783.96224 4636.0469 -793.64923 4636.0469 -807.85938 C 4636.0469 -816.53304 4639.3681 -824.56146 4646.0117 -831.94336 C 4652.8401 -839.32526 4661.6996 -844.8618 4672.5879 -848.55273 C 4687.5362 -853.35097 4704.7914 -855.75 4724.3535 -855.75 C 4768.6448 -855.75 4807.2151 -844.30768 4840.0645 -821.42383 C 4850.7683 -814.22647 4856.1191 -807.49139 4856.1191 -801.2168 C 4856.1191 -800.1095 4856.0272 -798.63258 4855.8438 -796.78711 L 4863.5957 -792.35742 L 4908.7168 -881.2168 L 4900.9648 -885.36914 C 4895.7975 -881.12455 4891.2759 -879.00391 4887.4004 -879.00391 C 4885.0014 -879.00391 4878.45 -881.12455 4867.7461 -885.36914 C 4836.5577 -898.47201 4810.5375 -907.42249 4789.6836 -912.2207 C 4779.1821 -914.72994 4768.2561 -916.60593 4756.9121 -917.85156 L 4949.0781 -917.85156 C 4957.6809 -917.85156 4964.6074 -924.59527 4964.6074 -932.9707 L 4964.6074 -959.42773 C 4964.6074 -967.80317 4957.6809 -974.54492 4949.0781 -974.54492 L 304.6875 -974.54492 z M 407.36328 -917.85156 L 695.28125 -917.85156 C 694.99066 -917.52767 694.69867 -917.21104 694.39648 -916.92773 C 691.44372 -914.34407 687.19851 -913.05273 681.66211 -913.05273 L 407.36328 -913.05273 L 407.36328 -917.85156 z M 710.45117 -917.85156 L 826.24609 -917.85156 L 826.24609 -913.05273 L 775.78125 -913.05273 L 775.78125 -904.19336 C 782.42495 -902.34789 787.03939 -899.94886 789.62305 -896.99609 C 792.20671 -894.04335 793.49805 -889.7073 793.49805 -883.98633 L 793.49805 -564.25781 C 793.49805 -558.53687 792.20671 -554.20082 789.62305 -551.24805 C 787.03939 -548.2953 782.42495 -545.89627 775.78125 -544.05078 L 775.78125 -535.19141 L 826.24609 -535.19141 L 826.24609 -530.54492 L 717.0957 -530.54492 L 717.0957 -615.19336 L 708.23633 -615.19336 C 706.39084 -608.54966 703.99181 -603.93522 701.03906 -601.35156 C 698.08629 -598.7679 693.84304 -597.47656 688.30664 -597.47656 L 445.25781 -597.47656 L 445.25781 -701.00781 L 598.61523 -701.00781 C 604.15166 -701.00781 608.39687 -699.62367 611.34961 -696.85547 C 614.30238 -694.27181 616.70141 -689.75018 618.54688 -683.29102 L 627.40625 -683.29102 L 627.40625 -778.79492 L 618.54688 -778.79492 C 616.70141 -772.15122 614.30238 -767.53678 611.34961 -764.95312 C 608.39687 -762.36949 604.15166 -761.07813 598.61523 -761.07812 L 445.25781 -761.07812 L 445.25781 -850.76758 L 681.66211 -850.76758 C 687.19851 -850.76758 691.44372 -849.47624 694.39648 -846.89258 C 697.34923 -844.30892 699.74828 -839.78729 701.59375 -833.32812 L 710.45117 -833.32812 L 710.45117 -917.85156 z M 841.36328 -917.85156 L 1228.2461 -917.85156 L 1228.2461 -913.05273 L 1176.8945 -913.05273 L 1176.8945 -904.19336 C 1183.5382 -902.34789 1188.1527 -899.94886 1190.7363 -896.99609 C 1193.32 -894.04335 1194.6113 -889.7073 1194.6113 -883.98633 L 1194.6113 -564.25781 C 1194.6113 -558.53687 1193.32 -554.20082 1190.7363 -551.24805 C 1188.1527 -548.2953 1183.5382 -545.89627 1176.8945 -544.05078 L 1176.8945 -535.19141 L 1228.2461 -535.19141 L 1228.2461 -530.54492 L 1137.3086 -530.54492 L 1137.3086 -615.19336 L 1128.4512 -615.19336 C 1126.6057 -608.54966 1124.2066 -603.93522 1121.2539 -601.35156 C 1118.3011 -598.7679 1113.9651 -597.47656 1108.2441 -597.47656 L 875.99023 -597.47656 L 875.99023 -883.98633 C 875.99023 -889.7073 877.28157 -894.04335 879.86523 -896.99609 C 882.44889 -900.1334 887.06333 -902.53243 893.70703 -904.19336 L 893.70703 -913.05273 L 841.36328 -913.05273 L 841.36328 -917.85156 z M 1243.3633 -917.85156 L 1526.7129 -917.85156 C 1526.5244 -917.65385 1526.4354 -917.10886 1526.2422 -916.92773 C 1523.2894 -914.34407 1519.0462 -913.05273 1513.5098 -913.05273 L 1243.3633 -913.05273 L 1243.3633 -917.85156 z M 1542.2988 -917.85156 L 1784.8359 -917.85156 C 1721.5227 -911.18308 1672.879 -886.42338 1638.9082 -843.57031 C 1612.1488 -809.79817 1598.7695 -770.02748 1598.7695 -724.25977 C 1598.7695 -690.67216 1606.2431 -659.94476 1621.1914 -632.07812 C 1634.1097 -607.71802 1651.827 -587.32704 1674.3418 -570.90234 C 1704.2518 -548.79495 1740.7245 -535.34316 1783.7578 -530.54492 L 1548.9414 -530.54492 L 1548.9414 -615.19336 L 1540.084 -615.19336 C 1538.2385 -608.54966 1535.8395 -603.93522 1532.8867 -601.35156 C 1529.934 -598.7679 1525.6888 -597.47656 1520.1523 -597.47656 L 1277.1035 -597.47656 L 1277.1035 -701.00781 L 1430.4629 -701.00781 C 1435.9993 -701.00781 1440.2445 -699.62367 1443.1973 -696.85547 C 1446.15 -694.27181 1448.5491 -689.75018 1450.3945 -683.29102 L 1459.252 -683.29102 L 1459.252 -778.79492 L 1450.3945 -778.79492 C 1448.5491 -772.15122 1446.15 -767.53678 1443.1973 -764.95312 C 1440.2445 -762.36961 1435.9993 -761.07813 1430.4629 -761.07812 L 1277.1035 -761.07812 L 1277.1035 -850.76758 L 1513.5098 -850.76758 C 1519.0462 -850.76758 1523.2894 -849.47624 1526.2422 -846.89258 C 1529.1949 -844.30892 1531.594 -839.78729 1533.4395 -833.32812 L 1542.2988 -833.32812 L 1542.2988 -917.85156 z M 1858.5156 -917.85156 L 2053.0332 -917.85156 L 2053.0332 -833.32812 L 2061.8906 -833.32812 C 2063.7361 -839.97183 2066.1351 -844.49346 2069.0879 -846.89258 C 2072.0406 -849.47624 2076.2858 -850.76758 2081.8223 -850.76758 L 2199.1934 -850.76758 L 2199.1934 -564.25781 C 2199.1934 -558.53687 2197.902 -554.20082 2195.3184 -551.24805 C 2192.7347 -548.2953 2188.1222 -545.89627 2181.4785 -544.05078 L 2181.4785 -535.19141 L 2230.2461 -535.19141 L 2230.2461 -530.54492 L 1859.6406 -530.54492 C 1873.7323 -532.10337 1886.622 -534.56856 1898.2891 -537.95898 C 1920.0656 -544.41812 1946.8262 -556.7845 1978.5684 -575.05469 C 1993.8858 -583.91294 2003.2055 -588.3418 2006.5273 -588.3418 C 2009.8492 -588.3418 2014.0924 -585.94274 2019.2598 -581.14453 L 2026.459 -586.12695 L 1973.8613 -665.02148 L 1966.3887 -659.76172 C 1966.7578 -656.99349 1966.9414 -654.59446 1966.9414 -652.56445 C 1966.9414 -647.21259 1964.6352 -642.13613 1960.0215 -637.33789 C 1955.4078 -632.72422 1947.1958 -627.09683 1935.3848 -620.45312 C 1902.7199 -601.99853 1868.1165 -592.76953 1831.5762 -592.76953 C 1788.3921 -592.76953 1753.9743 -603.56619 1728.3223 -625.1582 C 1698.0565 -650.44118 1682.9238 -683.47481 1682.9238 -724.25977 C 1682.9238 -765.0447 1698.0565 -798.07835 1728.3223 -823.36133 C 1753.9743 -844.95337 1788.3921 -855.75 1831.5762 -855.75 C 1868.1165 -855.75 1902.7199 -846.52309 1935.3848 -828.06836 C 1947.1958 -821.42466 1955.4078 -815.70253 1960.0215 -810.9043 C 1964.6352 -806.29063 1966.9414 -801.30892 1966.9414 -795.95703 C 1966.9414 -793.92702 1966.7578 -791.43519 1966.3887 -788.48242 L 1973.8613 -783.5 L 2026.459 -862.39453 L 2019.2598 -867.37695 C 2014.0924 -862.57872 2009.8492 -860.17969 2006.5273 -860.17969 C 2003.2055 -860.17969 1993.8858 -864.51574 1978.5684 -873.18945 C 1946.4571 -891.64418 1919.6965 -904.00858 1898.2891 -910.2832 C 1886.3517 -913.78208 1873.0927 -916.30375 1858.5156 -917.85156 z M 2068.207 -917.85156 L 2412.7266 -917.85156 C 2412.4204 -917.52278 2412.1121 -917.20695 2411.793 -916.92773 C 2408.8402 -914.34407 2404.5022 -913.05273 2398.7812 -913.05273 L 2081.8223 -913.05273 C 2076.2858 -913.05273 2072.0406 -914.34407 2069.0879 -916.92773 C 2068.7888 -917.20689 2068.4975 -917.52286 2068.207 -917.85156 z M 2427.8477 -917.85156 L 2516.2461 -917.85156 L 2516.2461 -913.05273 L 2465.4961 -913.05273 L 2465.4961 -904.19336 C 2472.1398 -902.34789 2476.7542 -899.94886 2479.3379 -896.99609 C 2481.9216 -894.04335 2483.2129 -889.7073 2483.2129 -883.98633 L 2483.2129 -563.98047 C 2483.2129 -558.44407 2481.9216 -554.20082 2479.3379 -551.24805 C 2476.7542 -548.2953 2472.1398 -545.89627 2465.4961 -544.05078 L 2465.4961 -535.19141 L 2516.2461 -535.19141 L 2516.2461 -530.54492 L 2245.3633 -530.54492 L 2245.3633 -535.19141 L 2299.4043 -535.19141 L 2299.4043 -544.05078 C 2292.7606 -545.89627 2288.1462 -548.2953 2285.5625 -551.24805 C 2282.9788 -554.20082 2281.6875 -558.53687 2281.6875 -564.25781 L 2281.6875 -850.76758 L 2398.7812 -850.76758 C 2404.5022 -850.76758 2408.8402 -849.47624 2411.793 -846.89258 C 2414.7457 -844.49346 2417.1448 -839.97183 2418.9902 -833.32812 L 2427.8477 -833.32812 L 2427.8477 -917.85156 z M 2531.3652 -917.85156 L 2694.2461 -917.85156 L 2694.2461 -913.05273 L 2531.3652 -913.05273 L 2531.3652 -917.85156 z M 2709.3633 -917.85156 L 3092.1582 -917.85156 C 3021.0633 -910.36925 2969.3148 -880.44496 2936.9219 -828.06836 C 2917.5444 -796.69533 2907.8555 -762.09195 2907.8555 -724.25977 C 2907.8555 -698.42314 2912.5608 -673.78711 2921.9727 -650.34961 C 2932.6764 -623.77482 2948.3639 -600.98299 2969.0332 -581.97461 C 3000.1599 -553.23081 3040.0064 -536.09216 3088.5605 -530.54492 L 2811.3652 -530.54492 L 2811.3652 -535.19141 L 2878.5117 -535.19141 L 2878.5117 -544.05078 C 2869.838 -544.60443 2862.4572 -547.46354 2856.3672 -552.63086 C 2850.4617 -557.98272 2841.0492 -569.79427 2828.1309 -588.06445 L 2754.7734 -692.42578 C 2823.2405 -702.94496 2857.4746 -739.02333 2857.4746 -800.66211 C 2857.4746 -818.74775 2854.0607 -835.72661 2847.2324 -851.59766 C 2840.0351 -868.02237 2829.1456 -881.03246 2814.5664 -890.62891 C 2802.0172 -898.93354 2787.2537 -904.74651 2770.2754 -908.06836 C 2754.9714 -911.09552 2734.6289 -912.7295 2709.3633 -912.99805 L 2709.3633 -917.85156 z M 3159.6172 -917.85156 L 3448.248 -917.85156 L 3448.248 -913.05273 L 3401.7031 -913.05273 L 3401.7031 -904.19336 C 3408.3468 -902.34789 3412.9613 -899.94886 3415.5449 -896.99609 C 3418.1286 -894.04335 3419.4199 -889.8001 3419.4199 -884.26367 L 3419.4199 -564.25781 C 3419.4199 -558.53687 3418.1286 -554.20082 3415.5449 -551.24805 C 3412.9613 -548.2953 3408.3468 -545.89627 3401.7031 -544.05078 L 3401.7031 -535.19141 L 3448.248 -535.19141 L 3448.248 -530.54492 L 3161.6289 -530.54492 C 3229.833 -538.21526 3280.2472 -568.17266 3312.8438 -620.45312 C 3332.4054 -651.82615 3342.1875 -685.59827 3342.1875 -721.76953 C 3342.1875 -780.82465 3321.7947 -828.99099 3281.0098 -866.26953 C 3249.6016 -895.27327 3209.1366 -912.46583 3159.6172 -917.85156 z M 3463.3672 -917.85156 L 3766.25 -917.85156 L 3766.25 -913.05273 L 3716.7266 -913.05273 L 3716.7266 -904.19336 C 3723.3703 -902.34789 3727.9827 -899.94886 3730.5664 -896.99609 C 3733.1501 -894.04335 3734.4434 -889.8001 3734.4434 -884.26367 L 3734.4434 -660.03711 L 3525.9961 -876.78906 C 3520.8288 -882.14095 3518.2461 -887.03181 3518.2461 -891.46094 C 3518.2461 -897.9201 3522.2129 -902.16335 3530.1484 -904.19336 L 3530.1484 -913.05273 L 3463.3672 -913.05273 L 3463.3672 -917.85156 z M 3781.3691 -917.85156 L 3946.25 -917.85156 L 3946.25 -913.05273 L 3895.8301 -913.05273 L 3895.8301 -904.19336 C 3902.4737 -902.34789 3907.0862 -899.94886 3909.6699 -896.99609 C 3912.2536 -894.04335 3913.5449 -889.8001 3913.5449 -884.26367 L 3913.5449 -564.25781 C 3913.5449 -558.53687 3912.2536 -554.20082 3909.6699 -551.24805 C 3907.0862 -548.2953 3902.4737 -545.89627 3895.8301 -544.05078 L 3895.8301 -535.19141 L 3946.25 -535.19141 L 3946.25 -530.54492 L 3781.3691 -530.54492 L 3781.3691 -535.19141 L 3827.7305 -535.19141 L 3827.7305 -544.05078 C 3821.0868 -545.89627 3816.4743 -548.2953 3813.8906 -551.24805 C 3811.3069 -554.20082 3810.0156 -558.53687 3810.0156 -564.25781 L 3810.0156 -884.26367 C 3810.0156 -889.8001 3811.3069 -894.04335 3813.8906 -896.99609 C 3816.4743 -899.94886 3821.0868 -902.34789 3827.7305 -904.19336 L 3827.7305 -913.05273 L 3781.3691 -913.05273 L 3781.3691 -917.85156 z M 3961.3691 -917.85156 L 4258.7832 -917.85156 C 4195.47 -911.18308 4146.8282 -886.42338 4112.8574 -843.57031 C 4086.0981 -809.79817 4072.7187 -770.02748 4072.7188 -724.25977 C 4072.7188 -690.67216 4080.1923 -659.94476 4095.1406 -632.07812 C 4108.0588 -607.71795 4125.7742 -587.32704 4148.2891 -570.90234 C 4178.199 -548.79493 4214.6738 -535.34315 4257.707 -530.54492 L 3961.3691 -530.54492 L 3961.3691 -535.19141 L 4013.7559 -535.19141 L 4013.7559 -544.05078 C 4007.2966 -545.71171 4002.6822 -548.01793 3999.9141 -550.9707 C 3997.3304 -554.10801 3996.0391 -558.53687 3996.0391 -564.25781 L 3996.0391 -884.26367 C 3996.0391 -889.8001 3997.3304 -894.04335 3999.9141 -896.99609 C 4002.4977 -900.1334 4007.1122 -902.53243 4013.7559 -904.19336 L 4013.7559 -913.05273 L 3961.3691 -913.05273 L 3961.3691 -917.85156 z M 4332.4629 -917.85156 L 4687.6133 -917.85156 C 4646.9803 -913.273 4615.2993 -900.14337 4592.5859 -878.44922 C 4570.6249 -857.59537 4559.6445 -831.20597 4559.6445 -799.2793 C 4559.6445 -779.90184 4563.983 -762.7374 4572.6562 -747.78906 C 4582.2527 -731.17983 4595.4465 -718.72455 4612.2402 -710.41992 C 4624.0513 -704.51441 4635.8628 -700.1764 4647.6738 -697.4082 C 4659.4849 -694.82452 4679.6922 -692.05626 4708.2969 -689.10352 L 4750.9277 -684.67578 C 4779.5327 -681.5385 4798.5413 -678.1226 4807.9531 -674.43164 C 4821.4251 -669.07978 4828.1602 -660.12929 4828.1602 -647.58008 C 4828.1602 -639.27545 4825.301 -631.24903 4819.5801 -623.49805 C 4813.8591 -615.93161 4806.2 -609.84023 4796.6035 -605.22656 C 4779.256 -596.92193 4758.3104 -592.76953 4733.7656 -592.76953 C 4711.251 -592.76953 4687.4443 -596.6455 4662.3457 -604.39648 C 4637.2474 -612.14746 4618.7005 -621.37443 4606.7051 -632.07812 C 4598.7693 -639.09091 4594.8008 -646.75006 4594.8008 -655.05469 L 4594.8008 -658.6543 L 4586.7734 -662.5293 L 4545.8047 -569.79492 L 4553.832 -565.64258 C 4558.9994 -569.70262 4562.7826 -571.73242 4565.1816 -571.73242 C 4567.2118 -571.73242 4573.3938 -569.33337 4583.7285 -564.53516 C 4621.0482 -546.15798 4658.7485 -534.84522 4696.8262 -530.54492 L 4333.5879 -530.54492 C 4347.6799 -532.10336 4360.5711 -534.5685 4372.2383 -537.95898 C 4394.0149 -544.41812 4420.7734 -556.7845 4452.5156 -575.05469 C 4467.833 -583.91294 4477.1529 -588.3418 4480.4746 -588.3418 C 4483.7966 -588.3418 4488.0416 -585.94274 4493.209 -581.14453 L 4500.4062 -586.12695 L 4447.8105 -665.02148 L 4440.3359 -659.76172 C 4440.7051 -656.99349 4440.8906 -654.59446 4440.8906 -652.56445 C 4440.8906 -647.21259 4438.5819 -642.13613 4433.9688 -637.33789 C 4429.3552 -632.72422 4421.1431 -627.09683 4409.332 -620.45312 C 4376.6671 -601.99846 4342.0637 -592.76953 4305.5234 -592.76953 C 4262.3393 -592.76953 4227.9217 -603.56619 4202.2695 -625.1582 C 4172.0038 -650.44118 4156.8711 -683.47481 4156.8711 -724.25977 C 4156.8711 -765.0447 4172.0038 -798.07835 4202.2695 -823.36133 C 4227.9217 -844.95337 4262.3393 -855.75 4305.5234 -855.75 C 4342.0637 -855.75 4376.6671 -846.52309 4409.332 -828.06836 C 4421.1431 -821.42466 4429.3552 -815.70253 4433.9688 -810.9043 C 4438.5819 -806.29063 4440.8906 -801.30892 4440.8906 -795.95703 C 4440.8906 -793.92702 4440.7051 -791.43519 4440.3359 -788.48242 L 4447.8105 -783.5 L 4500.4062 -862.39453 L 4493.209 -867.37695 C 4488.0416 -862.57872 4483.7966 -860.17969 4480.4746 -860.17969 C 4477.1529 -860.17969 4467.833 -864.51574 4452.5156 -873.18945 C 4420.4043 -891.64418 4393.6458 -904.00858 4372.2383 -910.2832 C 4360.3009 -913.78208 4347.0399 -916.30375 4332.4629 -917.85156 z M 3124.6055 -855.75 C 3160.9613 -855.38089 3191.2286 -844.67706 3215.4043 -823.63867 C 3243.8246 -799.09389 3258.0332 -765.41458 3258.0332 -722.59961 C 3258.0332 -705.06764 3254.712 -688.08878 3248.0684 -671.66406 C 3240.5019 -653.20933 3229.6144 -637.61462 3215.4043 -624.88086 C 3191.5977 -603.47339 3161.516 -592.76953 3125.1602 -592.76953 C 3088.8044 -592.76953 3058.6298 -603.47339 3034.6387 -624.88086 C 3006.2184 -650.16383 2992.0098 -683.29027 2992.0098 -724.25977 C 2992.0098 -765.22924 3006.2184 -798.3557 3034.6387 -823.63867 C 3058.6298 -845.04617 3088.6187 -855.75 3124.6055 -855.75 z M 2565.7051 -850.76758 L 2693.043 -850.76758 C 2712.2359 -850.76758 2725.5224 -850.21472 2732.9043 -849.10742 C 2740.4707 -848.18469 2747.577 -845.87648 2754.2207 -842.18555 C 2768.2463 -834.61911 2775.2578 -820.96334 2775.2578 -801.2168 C 2775.2578 -781.47023 2768.2463 -767.81253 2754.2207 -760.24609 C 2747.7616 -756.7397 2740.6553 -754.43345 2732.9043 -753.32617 C 2725.1533 -752.21887 2711.8668 -751.66602 2693.043 -751.66602 L 2565.7051 -751.66602 L 2565.7051 -850.76758 z M 3494.9922 -794.01953 L 3706.7598 -575.33008 C 3715.8026 -566.10271 3720.3242 -559.64406 3720.3242 -555.95312 C 3720.3242 -549.67861 3716.4502 -545.71171 3708.6992 -544.05078 L 3708.6992 -535.19141 L 3766.25 -535.19141 L 3766.25 -530.54492 L 3463.3672 -530.54492 L 3463.3672 -535.19141 L 3512.709 -535.19141 L 3512.709 -544.05078 C 3506.0653 -545.89627 3501.4528 -548.2953 3498.8691 -551.24805 C 3496.2855 -554.20082 3494.9922 -558.53687 3494.9922 -564.25781 L 3494.9922 -794.01953 z M 2565.7051 -689.38086 L 2666.4688 -689.38086 L 2742.8711 -578.09961 C 2751.5448 -565.36585 2755.8809 -557.33748 2755.8809 -554.01562 C 2755.8809 -548.84841 2751.1756 -545.52717 2741.7637 -544.05078 L 2741.7637 -535.19141 L 2796.248 -535.19141 L 2796.248 -530.54492 L 2531.3652 -530.54492 L 2531.3652 -535.19141 L 2583.4219 -535.19141 L 2583.4219 -544.05078 C 2576.9627 -545.71171 2572.3483 -548.01793 2569.5801 -550.9707 C 2566.9964 -554.10801 2565.7051 -558.44407 2565.7051 -563.98047 L 2565.7051 -689.38086 z M 407.36328 -535.19141 L 688.30664 -535.19141 C 693.84304 -535.19141 698.08629 -533.90007 701.03906 -531.31641 C 701.30673 -531.08219 701.56565 -530.8125 701.82422 -530.54492 L 407.36328 -530.54492 L 407.36328 -535.19141 z M 841.36328 -535.19141 L 1108.2441 -535.19141 C 1113.9651 -535.19141 1118.3011 -533.90007 1121.2539 -531.31641 C 1121.5216 -531.08219 1121.7805 -530.8125 1122.0391 -530.54492 L 841.36328 -530.54492 L 841.36328 -535.19141 z M 1243.3633 -535.19141 L 1520.1523 -535.19141 C 1525.6888 -535.19141 1529.934 -533.90007 1532.8867 -531.31641 C 1533.1543 -531.08228 1533.4114 -530.81239 1533.6699 -530.54492 L 1243.3633 -530.54492 L 1243.3633 -535.19141 z "
         transform="scale(0.26458333)" />
    </g>
  </g>
</svg>
