<?xml version="1.0" encoding="UTF-8" standalone="no"?>
<svg
   height="212.65mm"
   viewBox="0.0 0.0 727.00 212.65"
   width="727.00mm"
   version="1.1"
   id="svg133"
   sodipodi:docname="electronics-tray.svg"
   inkscape:version="1.1.1 (3bf5ae0d25, 2021-09-20)"
   xmlns:inkscape="http://www.inkscape.org/namespaces/inkscape"
   xmlns:sodipodi="http://sodipodi.sourceforge.net/DTD/sodipodi-0.dtd"
   xmlns="http://www.w3.org/2000/svg"
   xmlns:svg="http://www.w3.org/2000/svg"
   xmlns:rdf="http://www.w3.org/1999/02/22-rdf-syntax-ns#"
   xmlns:cc="http://creativecommons.org/ns#"
   xmlns:dc="http://purl.org/dc/elements/1.1/">
  <defs
     id="defs137" />
  <sodipodi:namedview
     id="namedview135"
     pagecolor="#ffffff"
     bordercolor="#666666"
     borderopacity="1.0"
     inkscape:pageshadow="2"
     inkscape:pageopacity="0.0"
     inkscape:pagecheckerboard="0"
     inkscape:document-units="mm"
     showgrid="false"
     showguides="true"
     inkscape:guide-bbox="true"
     inkscape:snap-midpoints="true"
     inkscape:zoom="0.77009399"
     inkscape:cx="456.43779"
     inkscape:cy="488.90136"
     inkscape:window-width="1920"
     inkscape:window-height="1057"
     inkscape:window-x="-8"
     inkscape:window-y="-8"
     inkscape:window-maximized="1"
     inkscape:current-layer="svg133"
     inkscape:snap-text-baseline="true">
    <sodipodi:guide
       position="247.3724,113.01389"
       orientation="1,0"
       id="guide954" />
    <sodipodi:guide
       position="8.2457469,46.36077"
       orientation="0,-1"
       id="guide9892" />
  </sodipodi:namedview>
  <!--
TrayLayout2 - Generate a typetray from a layout file


Edit the layout text graphics to adjust your tray.
Put in the sizes for each column and row. You can replace the hyphens and
vertial bars representing the walls with a space character to remove the walls.
You can replace the space characters representing the floor by a "X" to remove the floor for this compartment.



Created with Boxes.py (https://festi.info/boxes.py)
Creation date: 2022-01-09 16:48:25
Command line (remove spaces between dashes): boxes TrayLayout2 - -FingerJoint_angle=90.0 - -FingerJoint_style=rectangular - -FingerJoint_surroundingspaces=2.0 - -FingerJoint_edge_width=1.0 - -FingerJoint_finger=2.0 - -FingerJoint_play=0.0 - -FingerJoint_space=2.0 - -FingerJoint_width=1.0 - -h=22 - -hi=0.0 - -outside=0 - -outside=1 '- -layout= ,> 60.0mm\n | ,> 30.0mm\n | | ,> 70.0mm\n | | | ,> 70.0mm\n+-+-+-+-+\n| | | | | 70.0mm\n+ + +-+-+\n| | | | | 70.0mm\n+-+-+-+-+\n' - -thickness=3.0 - -format=svg - -tabs=0.0 - -debug=0 - -labels=0 - -labels=1 - -reference=0 - -burn=0.1
Url: http://www.festi.info/TrayLayout2?FingerJoint_angle=90.0&FingerJoint_style=rectangular&FingerJoint_surroundingspaces=2.0&FingerJoint_edge_width=1.0&FingerJoint_finger=2.0&FingerJoint_play=0.0&FingerJoint_space=2.0&FingerJoint_width=1.0&h=22&hi=0.0&outside=0&outside=1&layout=+%2C%3E+60.0mm%0D%0A+%7C+%2C%3E+30.0mm%0D%0A+%7C+%7C+%2C%3E+70.0mm%0D%0A+%7C+%7C+%7C+%2C%3E+70.0mm%0D%0A%2B-%2B-%2B-%2B-%2B%0D%0A%7C+%7C+%7C+%7C+%7C+70.0mm%0D%0A%2B+%2B+%2B-%2B-%2B%0D%0A%7C+%7C+%7C+%7C+%7C+70.0mm%0D%0A%2B-%2B-%2B-%2B-%2B%0D%0A&thickness=3.0&format=svg&tabs=0.0&debug=0&labels=0&labels=1&reference=0&burn=0.1&render=1
SettingsUrl: http://www.festi.info/TrayLayout2?FingerJoint_angle=90.0&FingerJoint_style=rectangular&FingerJoint_surroundingspaces=2.0&FingerJoint_edge_width=1.0&FingerJoint_finger=2.0&FingerJoint_play=0.0&FingerJoint_space=2.0&FingerJoint_width=1.0&h=22&hi=0.0&outside=0&outside=1&layout=+%2C%3E+60.0mm%0D%0A+%7C+%2C%3E+30.0mm%0D%0A+%7C+%7C+%2C%3E+70.0mm%0D%0A+%7C+%7C+%7C+%2C%3E+70.0mm%0D%0A%2B-%2B-%2B-%2B-%2B%0D%0A%7C+%7C+%7C+%7C+%7C+70.0mm%0D%0A%2B+%2B+%2B-%2B-%2B%0D%0A%7C+%7C+%7C+%7C+%7C+70.0mm%0D%0A%2B-%2B-%2B-%2B-%2B%0D%0A&thickness=3.0&format=svg&tabs=0.0&debug=0&labels=0&labels=1&reference=0&burn=0.1
-->
  <title
     id="title2">TrayLayout2</title>
  <metadata
     id="metadata4">
    <rdf:RDF>
      <cc:Work>
        <dc:title>Tray - TrayLayout2</dc:title>
        <dc:date>2022-01-09 16:48:25</dc:date>
        <dc:source>http://www.festi.info/TrayLayout2?FingerJoint_angle=90.0&amp;FingerJoint_style=rectangular&amp;FingerJoint_surroundingspaces=2.0&amp;FingerJoint_edge_width=1.0&amp;FingerJoint_finger=2.0&amp;FingerJoint_play=0.0&amp;FingerJoint_space=2.0&amp;FingerJoint_width=1.0&amp;h=22&amp;hi=0.0&amp;outside=0&amp;outside=1&amp;layout=+%2C%3E+60.0mm%0D%0A+%7C+%2C%3E+30.0mm%0D%0A+%7C+%7C+%2C%3E+70.0mm%0D%0A+%7C+%7C+%7C+%2C%3E+70.0mm%0D%0A%2B-%2B-%2B-%2B-%2B%0D%0A%7C+%7C+%7C+%7C+%7C+70.0mm%0D%0A%2B+%2B+%2B-%2B-%2B%0D%0A%7C+%7C+%7C+%7C+%7C+70.0mm%0D%0A%2B-%2B-%2B-%2B-%2B%0D%0A&amp;thickness=3.0&amp;format=svg&amp;tabs=0.0&amp;debug=0&amp;labels=0&amp;labels=1&amp;reference=0&amp;burn=0.1&amp;render=1</dc:source>
        <dc:description>Generate a typetray from a layout file

Edit the layout text graphics to adjust your tray.
Put in the sizes for each column and row. You can replace the hyphens and
vertial bars representing the walls with a space character to remove the walls.
You can replace the space characters representing the floor by a &quot;X&quot; to remove the floor for this compartment.


Created with Boxes.py (https://festi.info/boxes.py)
Command line: boxes TrayLayout2 --FingerJoint_angle=90.0 --FingerJoint_style=rectangular --FingerJoint_surroundingspaces=2.0 --FingerJoint_edge_width=1.0 --FingerJoint_finger=2.0 --FingerJoint_play=0.0 --FingerJoint_space=2.0 --FingerJoint_width=1.0 --h=22 --hi=0.0 --outside=0 --outside=1 '--layout= ,&gt; 60.0mm\n | ,&gt; 30.0mm\n | | ,&gt; 70.0mm\n | | | ,&gt; 70.0mm\n+-+-+-+-+\n| | | | | 70.0mm\n+ + +-+-+\n| | | | | 70.0mm\n+-+-+-+-+\n' --thickness=3.0 --format=svg --tabs=0.0 --debug=0 --labels=0 --labels=1 --reference=0 --burn=0.1
Url: http://www.festi.info/TrayLayout2?FingerJoint_angle=90.0&amp;FingerJoint_style=rectangular&amp;FingerJoint_surroundingspaces=2.0&amp;FingerJoint_edge_width=1.0&amp;FingerJoint_finger=2.0&amp;FingerJoint_play=0.0&amp;FingerJoint_space=2.0&amp;FingerJoint_width=1.0&amp;h=22&amp;hi=0.0&amp;outside=0&amp;outside=1&amp;layout=+%2C%3E+60.0mm%0D%0A+%7C+%2C%3E+30.0mm%0D%0A+%7C+%7C+%2C%3E+70.0mm%0D%0A+%7C+%7C+%7C+%2C%3E+70.0mm%0D%0A%2B-%2B-%2B-%2B-%2B%0D%0A%7C+%7C+%7C+%7C+%7C+70.0mm%0D%0A%2B+%2B+%2B-%2B-%2B%0D%0A%7C+%7C+%7C+%7C+%7C+70.0mm%0D%0A%2B-%2B-%2B-%2B-%2B%0D%0A&amp;thickness=3.0&amp;format=svg&amp;tabs=0.0&amp;debug=0&amp;labels=0&amp;labels=1&amp;reference=0&amp;burn=0.1&amp;render=1
SettingsUrl: http://www.festi.info/TrayLayout2?FingerJoint_angle=90.0&amp;FingerJoint_style=rectangular&amp;FingerJoint_surroundingspaces=2.0&amp;FingerJoint_edge_width=1.0&amp;FingerJoint_finger=2.0&amp;FingerJoint_play=0.0&amp;FingerJoint_space=2.0&amp;FingerJoint_width=1.0&amp;h=22&amp;hi=0.0&amp;outside=0&amp;outside=1&amp;layout=+%2C%3E+60.0mm%0D%0A+%7C+%2C%3E+30.0mm%0D%0A+%7C+%7C+%2C%3E+70.0mm%0D%0A+%7C+%7C+%7C+%2C%3E+70.0mm%0D%0A%2B-%2B-%2B-%2B-%2B%0D%0A%7C+%7C+%7C+%7C+%7C+70.0mm%0D%0A%2B+%2B+%2B-%2B-%2B%0D%0A%7C+%7C+%7C+%7C+%7C+70.0mm%0D%0A%2B-%2B-%2B-%2B-%2B%0D%0A&amp;thickness=3.0&amp;format=svg&amp;tabs=0.0&amp;debug=0&amp;labels=0&amp;labels=1&amp;reference=0&amp;burn=0.1
</dc:description>
      </cc:Work>
    </rdf:RDF>
  </metadata>
  <g
     id="p-0"
     style="fill:none;stroke-linecap:round;stroke-linejoin:round"
     transform="translate(7.172394,-28.840213)">
    <text
       alignment-baseline="hanging"
       font-size="4px"
       style="font-style:normal;font-weight:normal;font-family:sans-serif;fill:#ff0000"
       text-anchor="middle"
       transform="translate(125.1,189.65)"
       id="text6" />
    <path
       d="m 13.1,199.65 h 6.943 c 0.1,0 0,-0.1 0,0 v 2.9 c 0,0.055 0.045,0.1 0.1,0.1 h 6 c 0.056,0 0.1,-0.045 0.1,-0.1 v -2.9 c 0,-0.1 -0.1,0 0,0 h 5.8 c 0.1,0 0,-0.1 0,0 v 2.9 c 0,0.055 0.045,0.1 0.1,0.1 h 6 c 0.056,0 0.1,-0.045 0.1,-0.1 v -2.9 c 0,-0.1 -0.1,0 0,0 h 5.8 c 0.1,0 0,-0.1 0,0 v 2.9 c 0,0.055 0.045,0.1 0.1,0.1 h 6 c 0.056,0 0.1,-0.045 0.1,-0.1 v -2.9 c 0,-0.1 -0.1,0 0,0 h 5.8 c 0.1,0 0,-0.1 0,0 v 2.9 c 0,0.055 0.045,0.1 0.1,0.1 h 6 c 0.056,0 0.1,-0.045 0.1,-0.1 v -2.9 c 0,-0.1 -0.1,0 0,0 h 6.944 3 10.922 c 0.1,0 0,-0.1 0,0 v 2.9 c 0,0.055 0.044,0.1 0.1,0.1 h 6 c 0.055,0 0.1,-0.045 0.1,-0.1 v -2.9 c 0,-0.1 -0.1,0 0,0 h 10.921 3 11.618 c 0.1,0 0,-0.1 0,0 v 2.9 c 0,0.055 0.045,0.1 0.1,0.1 h 6 c 0.055,0 0.1,-0.045 0.1,-0.1 v -2.9 c 0,-0.1 -0.1,0 0,0 h 5.8 c 0.1,0 0,-0.1 0,0 v 2.9 c 0,0.055 0.045,0.1 0.1,0.1 h 6 c 0.055,0 0.1,-0.045 0.1,-0.1 v -2.9 c 0,-0.1 -0.1,0 0,0 h 5.8 c 0.1,0 0,-0.1 0,0 v 2.9 c 0,0.055 0.045,0.1 0.1,0.1 h 6 c 0.055,0 0.1,-0.045 0.1,-0.1 v -2.9 c 0,-0.1 -0.1,0 0,0 h 5.8 c 0.1,0 0,-0.1 0,0 v 2.9 c 0,0.055 0.045,0.1 0.1,0.1 h 6 c 0.055,0 0.1,-0.045 0.1,-0.1 v -2.9 c 0,-0.1 -0.1,0 0,0 h 11.617 3 11.618 c 0.1,0 0,-0.1 0,0 v 2.9 c 0,0.055 0.044,0.1 0.1,0.1 h 6 c 0.055,0 0.1,-0.045 0.1,-0.1 v -2.9 c 0,-0.1 -0.1,0 0,0 h 5.8 c 0.1,0 0,-0.1 0,0 v 2.9 c 0,0.055 0.044,0.1 0.1,0.1 h 6 c 0.055,0 0.1,-0.045 0.1,-0.1 v -2.9 c 0,-0.1 -0.1,0 0,0 h 5.8 c 0.1,0 0,-0.1 0,0 v 2.9 c 0,0.055 0.044,0.1 0.1,0.1 h 6 c 0.055,0 0.1,-0.045 0.1,-0.1 v -2.9 c 0,-0.1 -0.1,0 0,0 h 5.8 c 0.1,0 0,-0.1 0,0 v 2.9 c 0,0.055 0.044,0.1 0.1,0.1 h 6 c 0.055,0 0.1,-0.045 0.1,-0.1 v -2.9 c 0,-0.1 -0.1,0 0,0 H 237.1 c 0.055,0 0.1,-0.045 0.1,-0.1 v -6.4 c 0,-0.1 -0.1,0 0,0 h 2.9 c 0.055,0 0.1,-0.045 0.1,-0.1 v -6 c 0,-0.055 -0.045,-0.1 -0.1,-0.1 h -2.9 c -0.1,0 0,0.1 0,0 v -6.4 c 0,-0.055 -0.045,-0.1 -0.1,-0.1 h -224 c -0.055,0 -0.1,0.045 -0.1,0.1 v 6.4 c 0,0.1 0.1,0 0,0 h -2.9 c -0.055,0 -0.1,0.045 -0.1,0.1 v 6 c 0,0.055 0.045,0.1 0.1,0.1 H 13 c 0.1,0 0,-0.1 0,0 v 6.4 c 0,0.055 0.045,0.1 0.1,0.1"
       stroke="#000000"
       stroke-width="0.2"
       id="path8" />
    <path
       d="m 72.087,190.05 v 2.9 c 0,0.1 0.1,0 0,0 h -2.8 c -0.1,0 0,0.1 0,0 v -5.8 c 0,-0.1 -0.1,0 0,0 h 2.8 c 0.1,0 0,-0.1 0,0 z"
       stroke="#0000ff"
       stroke-width="0.2"
       id="path10" />
    <path
       d="m 103.13,190.05 v 2.9 c 0,0.1 0.1,0 0,0 h -2.8 c -0.1,0 0,0.1 0,0 v -5.8 c 0,-0.1 -0.1,0 0,0 h 2.8 c 0.1,0 0,-0.1 0,0 z"
       stroke="#0000ff"
       stroke-width="0.2"
       id="path12" />
    <path
       d="m 171.565,190.05 v 2.9 c 0,0.1 0.1,0 0,0 h -2.8 c -0.1,0 0,0.1 0,0 v -5.8 c 0,-0.1 -0.1,0 0,0 h 2.8 c 0.1,0 0,-0.1 0,0 z"
       stroke="#0000ff"
       stroke-width="0.2"
       id="path14" />
  </g>
  <g
     id="p-1"
     style="fill:none;stroke-linecap:round;stroke-linejoin:round"
     transform="translate(5.672394,-52.588136)">
    <text
       alignment-baseline="hanging"
       font-size="4px"
       style="font-style:normal;font-weight:normal;font-family:sans-serif;fill:#ff0000"
       text-anchor="middle"
       transform="translate(311.735,189.65)"
       id="text17" />
    <path
       d="m 244.8,199.65 h 11.617 c 0.1,0 0,-0.1 0,0 v 2.9 c 0,0.055 0.045,0.1 0.1,0.1 h 6 c 0.056,0 0.1,-0.045 0.1,-0.1 v -2.9 c 0,-0.1 -0.1,0 0,0 h 5.8 c 0.1,0 0,-0.1 0,0 v 2.9 c 0,0.055 0.045,0.1 0.1,0.1 h 6 c 0.056,0 0.1,-0.045 0.1,-0.1 v -2.9 c 0,-0.1 -0.1,0 0,0 h 5.8 c 0.1,0 0,-0.1 0,0 v 2.9 c 0,0.055 0.045,0.1 0.1,0.1 h 6 c 0.056,0 0.1,-0.045 0.1,-0.1 v -2.9 c 0,-0.1 -0.1,0 0,0 h 5.8 c 0.1,0 0,-0.1 0,0 v 2.9 c 0,0.055 0.045,0.1 0.1,0.1 h 6 c 0.056,0 0.1,-0.045 0.1,-0.1 v -2.9 c 0,-0.1 -0.1,0 0,0 h 11.618 c 0.055,0 0.1,-0.045 0.1,-0.1 v -9.4 c 0,-0.1 -0.1,0 0,0 h 2.8 c 0.1,0 0,-0.1 0,0 v 9.4 c 0,0.055 0.045,0.1 0.1,0.1 h 11.617 c 0.1,0 0,-0.1 0,0 v 2.9 c 0,0.055 0.045,0.1 0.1,0.1 h 6 c 0.055,0 0.1,-0.045 0.1,-0.1 v -2.9 c 0,-0.1 -0.1,0 0,0 h 5.8 c 0.1,0 0,-0.1 0,0 v 2.9 c 0,0.055 0.045,0.1 0.1,0.1 h 6 c 0.055,0 0.1,-0.045 0.1,-0.1 v -2.9 c 0,-0.1 -0.1,0 0,0 h 5.8 c 0.1,0 0,-0.1 0,0 v 2.9 c 0,0.055 0.045,0.1 0.1,0.1 h 6 c 0.055,0 0.1,-0.045 0.1,-0.1 v -2.9 c 0,-0.1 -0.1,0 0,0 h 5.8 c 0.1,0 0,-0.1 0,0 v 2.9 c 0,0.055 0.045,0.1 0.1,0.1 h 6 c 0.055,0 0.1,-0.045 0.1,-0.1 v -2.9 c 0,-0.1 -0.1,0 0,0 h 11.618 c 0.055,0 0.1,-0.045 0.1,-0.1 v -6.4 c 0,-0.1 -0.1,0 0,0 h 2.9 c 0.055,0 0.1,-0.045 0.1,-0.1 v -6 c 0,-0.055 -0.045,-0.1 -0.1,-0.1 h -2.9 c -0.1,0 0,0.1 0,0 v -6.4 c 0,-0.055 -0.045,-0.1 -0.1,-0.1 H 244.8 c -0.055,0 -0.1,0.045 -0.1,0.1 v 6.4 c 0,0.1 0.1,0 0,0 h -2.9 c -0.055,0 -0.1,0.045 -0.1,0.1 v 6 c 0,0.055 0.045,0.1 0.1,0.1 h 2.9 c 0.1,0 0,-0.1 0,0 v 6.4 c 0,0.055 0.045,0.1 0.1,0.1"
       stroke="#000000"
       stroke-width="0.2"
       id="path19" />
  </g>
  <g
     id="p-2"
     style="fill:none;stroke-linecap:round;stroke-linejoin:round"
     transform="translate(-366.09761,-5.4493384)">
    <text
       alignment-baseline="hanging"
       font-size="4px"
       style="font-style:normal;font-weight:normal;font-family:sans-serif;fill:#ff0000"
       text-anchor="middle"
       transform="translate(498.37,189.65)"
       id="text22" />
    <path
       d="m 386.37,199.65 h 6.943 c 0.1,0 0,-0.1 0,0 v 2.9 c 0,0.055 0.045,0.1 0.1,0.1 h 6 c 0.055,0 0.1,-0.045 0.1,-0.1 v -2.9 c 0,-0.1 -0.1,0 0,0 h 5.8 c 0.1,0 0,-0.1 0,0 v 2.9 c 0,0.055 0.045,0.1 0.1,0.1 h 6 c 0.055,0 0.1,-0.045 0.1,-0.1 v -2.9 c 0,-0.1 -0.1,0 0,0 h 5.8 c 0.1,0 0,-0.1 0,0 v 2.9 c 0,0.055 0.045,0.1 0.1,0.1 h 6 c 0.055,0 0.1,-0.045 0.1,-0.1 v -2.9 c 0,-0.1 -0.1,0 0,0 h 5.8 c 0.1,0 0,-0.1 0,0 v 2.9 c 0,0.055 0.045,0.1 0.1,0.1 h 6 c 0.055,0 0.1,-0.045 0.1,-0.1 v -2.9 c 0,-0.1 -0.1,0 0,0 h 6.944 3 10.921 c 0.1,0 0,-0.1 0,0 v 2.9 c 0,0.055 0.045,0.1 0.1,0.1 h 6 c 0.055,0 0.1,-0.045 0.1,-0.1 v -2.9 c 0,-0.1 -0.1,0 0,0 h 10.922 3 11.617 c 0.1,0 0,-0.1 0,0 v 2.9 c 0,0.055 0.045,0.1 0.1,0.1 h 6 c 0.056,0 0.1,-0.045 0.1,-0.1 v -2.9 c 0,-0.1 -0.1,0 0,0 h 5.8 c 0.1,0 0,-0.1 0,0 v 2.9 c 0,0.055 0.045,0.1 0.1,0.1 h 6 c 0.056,0 0.1,-0.045 0.1,-0.1 v -2.9 c 0,-0.1 -0.1,0 0,0 h 5.8 c 0.1,0 0,-0.1 0,0 v 2.9 c 0,0.055 0.045,0.1 0.1,0.1 h 6 c 0.056,0 0.1,-0.045 0.1,-0.1 v -2.9 c 0,-0.1 -0.1,0 0,0 h 5.8 c 0.1,0 0,-0.1 0,0 v 2.9 c 0,0.055 0.045,0.1 0.1,0.1 h 6 c 0.056,0 0.1,-0.045 0.1,-0.1 v -2.9 c 0,-0.1 -0.1,0 0,0 h 11.618 3 11.617 c 0.1,0 0,-0.1 0,0 v 2.9 c 0,0.055 0.045,0.1 0.1,0.1 h 6 c 0.055,0 0.1,-0.045 0.1,-0.1 v -2.9 c 0,-0.1 -0.1,0 0,0 h 5.8 c 0.1,0 0,-0.1 0,0 v 2.9 c 0,0.055 0.045,0.1 0.1,0.1 h 6 c 0.055,0 0.1,-0.045 0.1,-0.1 v -2.9 c 0,-0.1 -0.1,0 0,0 h 5.8 c 0.1,0 0,-0.1 0,0 v 2.9 c 0,0.055 0.045,0.1 0.1,0.1 h 6 c 0.055,0 0.1,-0.045 0.1,-0.1 v -2.9 c 0,-0.1 -0.1,0 0,0 h 5.8 c 0.1,0 0,-0.1 0,0 v 2.9 c 0,0.055 0.045,0.1 0.1,0.1 h 6 c 0.055,0 0.1,-0.045 0.1,-0.1 v -2.9 c 0,-0.1 -0.1,0 0,0 h 11.618 c 0.055,0 0.1,-0.045 0.1,-0.1 v -6.4 c 0,-0.1 -0.1,0 0,0 h 2.9 c 0.055,0 0.1,-0.045 0.1,-0.1 v -6 c 0,-0.055 -0.045,-0.1 -0.1,-0.1 h -2.9 c -0.1,0 0,0.1 0,0 v -6.4 c 0,-0.055 -0.045,-0.1 -0.1,-0.1 h -224 c -0.056,0 -0.1,0.045 -0.1,0.1 v 6.4 c 0,0.1 0.1,0 0,0 h -2.9 c -0.056,0 -0.1,0.045 -0.1,0.1 v 6 c 0,0.055 0.044,0.1 0.1,0.1 h 2.9 c 0.1,0 0,-0.1 0,0 v 6.4 c 0,0.055 0.044,0.1 0.1,0.1"
       stroke="#000000"
       stroke-width="0.2"
       id="path24" />
    <path
       d="m 445.357,190.05 v 2.9 c 0,0.1 0.1,0 0,0 h -2.8 c -0.1,0 0,0.1 0,0 v -5.8 c 0,-0.1 -0.1,0 0,0 h 2.8 c 0.1,0 0,-0.1 0,0 z"
       stroke="#0000ff"
       stroke-width="0.2"
       id="path26" />
    <path
       d="m 476.4,190.05 v 2.9 c 0,0.1 0.1,0 0,0 h -2.8 c -0.1,0 0,0.1 0,0 v -5.8 c 0,-0.1 -0.1,0 0,0 h 2.8 c 0.1,0 0,-0.1 0,0 z"
       stroke="#0000ff"
       stroke-width="0.2"
       id="path28" />
    <path
       d="m 544.835,190.05 v 2.9 c 0,0.1 0.1,0 0,0 h -2.8 c -0.1,0 0,0.1 0,0 v -5.8 c 0,-0.1 -0.1,0 0,0 h 2.8 c 0.1,0 0,-0.1 0,0 z"
       stroke="#0000ff"
       stroke-width="0.2"
       id="path30" />
  </g>
  <g
     id="p-3"
     style="fill:none;stroke-linecap:round;stroke-linejoin:round"
     transform="translate(237.37239,-146.362)">
    <text
       alignment-baseline="hanging"
       font-size="4px"
       style="font-style:normal;font-weight:normal;font-family:sans-serif;fill:#ff0000"
       text-anchor="middle"
       transform="translate(80.1,165.95)"
       id="text33" />
    <path
       d="m 13.1,175.95 h 11.65 c 0.1,0 0,-0.1 0,0 v 2.9 c 0,0.055 0.045,0.1 0.1,0.1 h 6 c 0.055,0 0.1,-0.045 0.1,-0.1 v -2.9 c 0,-0.1 -0.1,0 0,0 h 5.8 c 0.1,0 0,-0.1 0,0 v 2.9 c 0,0.055 0.045,0.1 0.1,0.1 h 6 c 0.055,0 0.1,-0.045 0.1,-0.1 v -2.9 c 0,-0.1 -0.1,0 0,0 h 5.8 c 0.1,0 0,-0.1 0,0 v 2.9 c 0,0.055 0.045,0.1 0.1,0.1 h 6 c 0.055,0 0.1,-0.045 0.1,-0.1 v -2.9 c 0,-0.1 -0.1,0 0,0 h 5.8 c 0.1,0 0,-0.1 0,0 v 2.9 c 0,0.055 0.045,0.1 0.1,0.1 h 6 c 0.055,0 0.1,-0.045 0.1,-0.1 v -2.9 c 0,-0.1 -0.1,0 0,0 h 11.65 3 11.65 c 0.1,0 0,-0.1 0,0 v 2.9 c 0,0.055 0.045,0.1 0.1,0.1 h 6 c 0.055,0 0.1,-0.045 0.1,-0.1 v -2.9 c 0,-0.1 -0.1,0 0,0 h 5.8 c 0.1,0 0,-0.1 0,0 v 2.9 c 0,0.055 0.045,0.1 0.1,0.1 h 6 c 0.055,0 0.1,-0.045 0.1,-0.1 v -2.9 c 0,-0.1 -0.1,0 0,0 h 5.8 c 0.1,0 0,-0.1 0,0 v 2.9 c 0,0.055 0.045,0.1 0.1,0.1 h 6 c 0.055,0 0.1,-0.045 0.1,-0.1 v -2.9 c 0,-0.1 -0.1,0 0,0 h 5.8 c 0.1,0 0,-0.1 0,0 v 2.9 c 0,0.055 0.045,0.1 0.1,0.1 h 6 c 0.055,0 0.1,-0.045 0.1,-0.1 v -2.9 c 0,-0.1 -0.1,0 0,0 h 11.65 3 c 0.055,0 0.1,-0.045 0.1,-0.1 v -6.5 c 0,-0.055 -0.045,-0.1 -0.1,-0.1 h -2.9 c -0.1,0 0,0.1 0,0 v -5.8 c 0,-0.1 -0.1,0 0,0 h 2.9 c 0.055,0 0.1,-0.045 0.1,-0.1 v -6.5 c 0,-0.055 -0.045,-0.1 -0.1,-0.1 h -3 -65.5 -3 -65.5 -3 c -0.055,0 -0.1,0.045 -0.1,0.1 v 6.5 c 0,0.055 0.045,0.1 0.1,0.1 H 13 c 0.1,0 0,-0.1 0,0 v 5.8 c 0,0.1 0.1,0 0,0 h -2.9 c -0.055,0 -0.1,0.045 -0.1,0.1 v 6.5 c 0,0.055 0.045,0.1 0.1,0.1 h 3"
       stroke="#000000"
       stroke-width="0.2"
       id="path35" />
  </g>
  <g
     id="p-4"
     style="fill:none;stroke-linecap:round;stroke-linejoin:round"
     transform="translate(95.672394,-122.86723)">
    <text
       alignment-baseline="hanging"
       font-size="4px"
       style="font-style:normal;font-weight:normal;font-family:sans-serif;fill:#ff0000"
       text-anchor="middle"
       transform="translate(221.8,165.95)"
       id="text38" />
    <path
       d="m 154.8,175.95 h 11.65 c 0.1,0 0,-0.1 0,0 v 2.9 c 0,0.055 0.045,0.1 0.1,0.1 h 6 c 0.055,0 0.1,-0.045 0.1,-0.1 v -2.9 c 0,-0.1 -0.1,0 0,0 h 5.8 c 0.1,0 0,-0.1 0,0 v 2.9 c 0,0.055 0.045,0.1 0.1,0.1 h 6 c 0.055,0 0.1,-0.045 0.1,-0.1 v -2.9 c 0,-0.1 -0.1,0 0,0 h 5.8 c 0.1,0 0,-0.1 0,0 v 2.9 c 0,0.055 0.045,0.1 0.1,0.1 h 6 c 0.055,0 0.1,-0.045 0.1,-0.1 v -2.9 c 0,-0.1 -0.1,0 0,0 h 5.8 c 0.1,0 0,-0.1 0,0 v 2.9 c 0,0.055 0.045,0.1 0.1,0.1 h 6 c 0.055,0 0.1,-0.045 0.1,-0.1 v -2.9 c 0,-0.1 -0.1,0 0,0 h 11.65 3 11.65 c 0.1,0 0,-0.1 0,0 v 2.9 c 0,0.055 0.045,0.1 0.1,0.1 h 6 c 0.055,0 0.1,-0.045 0.1,-0.1 v -2.9 c 0,-0.1 -0.1,0 0,0 h 5.8 c 0.1,0 0,-0.1 0,0 v 2.9 c 0,0.055 0.045,0.1 0.1,0.1 h 6 c 0.055,0 0.1,-0.045 0.1,-0.1 v -2.9 c 0,-0.1 -0.1,0 0,0 h 5.8 c 0.1,0 0,-0.1 0,0 v 2.9 c 0,0.055 0.045,0.1 0.1,0.1 h 6 c 0.055,0 0.1,-0.045 0.1,-0.1 v -2.9 c 0,-0.1 -0.1,0 0,0 h 5.8 c 0.1,0 0,-0.1 0,0 v 2.9 c 0,0.055 0.045,0.1 0.1,0.1 h 6 c 0.055,0 0.1,-0.045 0.1,-0.1 v -2.9 c 0,-0.1 -0.1,0 0,0 h 11.65 c 0.055,0 0.1,-0.045 0.1,-0.1 v -6.4 c 0,-0.1 -0.1,0 0,0 h 2.9 c 0.055,0 0.1,-0.045 0.1,-0.1 v -6 c 0,-0.055 -0.045,-0.1 -0.1,-0.1 h -2.9 c -0.1,0 0,0.1 0,0 v -6.4 c 0,-0.055 -0.045,-0.1 -0.1,-0.1 h -65.5 -3 -65.5 c -0.055,0 -0.1,0.045 -0.1,0.1 v 6.4 c 0,0.1 0.1,0 0,0 h -2.9 c -0.055,0 -0.1,0.045 -0.1,0.1 v 6 c 0,0.055 0.045,0.1 0.1,0.1 h 2.9 c 0.1,0 0,-0.1 0,0 v 6.4 c 0,0.055 0.045,0.1 0.1,0.1"
       stroke="#000000"
       stroke-width="0.2"
       id="path40" />
  </g>
  <g
     id="p-5"
     style="fill:none;stroke-linecap:round;stroke-linejoin:round"
     transform="translate(-46.027606,-99.372452)">
    <text
       alignment-baseline="hanging"
       font-size="4px"
       style="font-style:normal;font-weight:normal;font-family:sans-serif;fill:#ff0000"
       text-anchor="middle"
       transform="translate(363.5,165.95)"
       id="text43" />
    <path
       d="m 296.5,175.95 h 11.65 c 0.1,0 0,-0.1 0,0 v 2.9 c 0,0.055 0.045,0.1 0.1,0.1 h 6 c 0.055,0 0.1,-0.045 0.1,-0.1 v -2.9 c 0,-0.1 -0.1,0 0,0 h 5.8 c 0.1,0 0,-0.1 0,0 v 2.9 c 0,0.055 0.045,0.1 0.1,0.1 h 6 c 0.055,0 0.1,-0.045 0.1,-0.1 v -2.9 c 0,-0.1 -0.1,0 0,0 h 5.8 c 0.1,0 0,-0.1 0,0 v 2.9 c 0,0.055 0.045,0.1 0.1,0.1 h 6 c 0.055,0 0.1,-0.045 0.1,-0.1 v -2.9 c 0,-0.1 -0.1,0 0,0 h 5.8 c 0.1,0 0,-0.1 0,0 v 2.9 c 0,0.055 0.045,0.1 0.1,0.1 h 6 c 0.055,0 0.1,-0.045 0.1,-0.1 v -2.9 c 0,-0.1 -0.1,0 0,0 h 11.65 3 11.65 c 0.1,0 0,-0.1 0,0 v 2.9 c 0,0.055 0.045,0.1 0.1,0.1 h 6 c 0.055,0 0.1,-0.045 0.1,-0.1 v -2.9 c 0,-0.1 -0.1,0 0,0 h 5.8 c 0.1,0 0,-0.1 0,0 v 2.9 c 0,0.055 0.045,0.1 0.1,0.1 h 6 c 0.055,0 0.1,-0.045 0.1,-0.1 v -2.9 c 0,-0.1 -0.1,0 0,0 h 5.8 c 0.1,0 0,-0.1 0,0 v 2.9 c 0,0.055 0.045,0.1 0.1,0.1 h 6 c 0.055,0 0.1,-0.045 0.1,-0.1 v -2.9 c 0,-0.1 -0.1,0 0,0 h 5.8 c 0.1,0 0,-0.1 0,0 v 2.9 c 0,0.055 0.045,0.1 0.1,0.1 h 6 c 0.055,0 0.1,-0.045 0.1,-0.1 v -2.9 c 0,-0.1 -0.1,0 0,0 h 11.65 c 0.055,0 0.1,-0.045 0.1,-0.1 v -6.4 c 0,-0.1 -0.1,0 0,0 h 2.9 c 0.055,0 0.1,-0.045 0.1,-0.1 v -6 c 0,-0.055 -0.045,-0.1 -0.1,-0.1 h -2.9 c -0.1,0 0,0.1 0,0 v -6.4 c 0,-0.055 -0.045,-0.1 -0.1,-0.1 H 365 362 296.5 c -0.055,0 -0.1,0.045 -0.1,0.1 v 6.4 c 0,0.1 0.1,0 0,0 h -2.9 c -0.055,0 -0.1,0.045 -0.1,0.1 v 6 c 0,0.055 0.045,0.1 0.1,0.1 h 2.9 c 0.1,0 0,-0.1 0,0 v 6.4 c 0,0.055 0.045,0.1 0.1,0.1"
       stroke="#000000"
       stroke-width="0.2"
       id="path45" />
    <path
       d="m 364.9,166.35 v 2.9 c 0,0.1 0.1,0 0,0 h -2.8 c -0.1,0 0,0.1 0,0 v -5.8 c 0,-0.1 -0.1,0 0,0 h 2.8 c 0.1,0 0,-0.1 0,0 z"
       stroke="#0000ff"
       stroke-width="0.2"
       id="path47" />
  </g>
  <g
     id="p-6"
     style="fill:none;stroke-linecap:round;stroke-linejoin:round"
     transform="translate(-187.72761,-75.877677)">
    <text
       alignment-baseline="hanging"
       font-size="4px"
       style="font-style:normal;font-weight:normal;font-family:sans-serif;fill:#ff0000"
       text-anchor="middle"
       transform="translate(505.2,165.95)"
       id="text50" />
    <path
       d="m 438.2,175.95 h 11.65 c 0.1,0 0,-0.1 0,0 v 2.9 c 0,0.055 0.045,0.1 0.1,0.1 h 6 c 0.055,0 0.1,-0.045 0.1,-0.1 v -2.9 c 0,-0.1 -0.1,0 0,0 h 5.8 c 0.1,0 0,-0.1 0,0 v 2.9 c 0,0.055 0.045,0.1 0.1,0.1 h 6 c 0.055,0 0.1,-0.045 0.1,-0.1 v -2.9 c 0,-0.1 -0.1,0 0,0 h 5.8 c 0.1,0 0,-0.1 0,0 v 2.9 c 0,0.055 0.045,0.1 0.1,0.1 h 6 c 0.055,0 0.1,-0.045 0.1,-0.1 v -2.9 c 0,-0.1 -0.1,0 0,0 h 5.8 c 0.1,0 0,-0.1 0,0 v 2.9 c 0,0.055 0.045,0.1 0.1,0.1 h 6 c 0.055,0 0.1,-0.045 0.1,-0.1 v -2.9 c 0,-0.1 -0.1,0 0,0 h 11.65 3 11.65 c 0.1,0 0,-0.1 0,0 v 2.9 c 0,0.055 0.045,0.1 0.1,0.1 h 6 c 0.055,0 0.1,-0.045 0.1,-0.1 v -2.9 c 0,-0.1 -0.1,0 0,0 h 5.8 c 0.1,0 0,-0.1 0,0 v 2.9 c 0,0.055 0.045,0.1 0.1,0.1 h 6 c 0.055,0 0.1,-0.045 0.1,-0.1 v -2.9 c 0,-0.1 -0.1,0 0,0 h 5.8 c 0.1,0 0,-0.1 0,0 v 2.9 c 0,0.055 0.045,0.1 0.1,0.1 h 6 c 0.055,0 0.1,-0.045 0.1,-0.1 v -2.9 c 0,-0.1 -0.1,0 0,0 h 5.8 c 0.1,0 0,-0.1 0,0 v 2.9 c 0,0.055 0.045,0.1 0.1,0.1 h 6 c 0.055,0 0.1,-0.045 0.1,-0.1 v -2.9 c 0,-0.1 -0.1,0 0,0 h 11.65 c 0.055,0 0.1,-0.045 0.1,-0.1 v -6.4 c 0,-0.1 -0.1,0 0,0 h 2.9 c 0.055,0 0.1,-0.045 0.1,-0.1 v -6 c 0,-0.055 -0.045,-0.1 -0.1,-0.1 h -2.9 c -0.1,0 0,0.1 0,0 v -6.4 c 0,-0.055 -0.045,-0.1 -0.1,-0.1 h -65.5 c -0.055,0 -0.1,0.045 -0.1,0.1 v 9.4 c 0,0.1 0.1,0 0,0 h -2.8 c -0.1,0 0,0.1 0,0 v -9.4 c 0,-0.055 -0.045,-0.1 -0.1,-0.1 h -65.5 c -0.055,0 -0.1,0.045 -0.1,0.1 v 6.4 c 0,0.1 0.1,0 0,0 h -2.9 c -0.055,0 -0.1,0.045 -0.1,0.1 v 6 c 0,0.055 0.045,0.1 0.1,0.1 h 2.9 c 0.1,0 0,-0.1 0,0 v 6.4 c 0,0.055 0.045,0.1 0.1,0.1"
       stroke="#000000"
       stroke-width="0.2"
       id="path52" />
  </g>
  <g
     id="p-7"
     style="fill:none;stroke-linecap:round;stroke-linejoin:round"
     transform="translate(-329.42761,-52.382907)">
    <text
       alignment-baseline="hanging"
       font-size="4px"
       style="font-style:normal;font-weight:normal;font-family:sans-serif;fill:#ff0000"
       text-anchor="middle"
       transform="translate(646.9,165.95)"
       id="text55" />
    <path
       d="m 579.9,175.95 h 11.65 c 0.1,0 0,-0.1 0,0 v 2.9 c 0,0.055 0.045,0.1 0.1,0.1 h 6 c 0.055,0 0.1,-0.045 0.1,-0.1 v -2.9 c 0,-0.1 -0.1,0 0,0 h 5.8 c 0.1,0 0,-0.1 0,0 v 2.9 c 0,0.055 0.045,0.1 0.1,0.1 h 6 c 0.055,0 0.1,-0.045 0.1,-0.1 v -2.9 c 0,-0.1 -0.1,0 0,0 h 5.8 c 0.1,0 0,-0.1 0,0 v 2.9 c 0,0.055 0.045,0.1 0.1,0.1 h 6 c 0.055,0 0.1,-0.045 0.1,-0.1 v -2.9 c 0,-0.1 -0.1,0 0,0 h 5.8 c 0.1,0 0,-0.1 0,0 v 2.9 c 0,0.055 0.045,0.1 0.1,0.1 h 6 c 0.055,0 0.1,-0.045 0.1,-0.1 v -2.9 c 0,-0.1 -0.1,0 0,0 h 11.65 3 11.65 c 0.1,0 0,-0.1 0,0 v 2.9 c 0,0.055 0.045,0.1 0.1,0.1 h 6 c 0.055,0 0.1,-0.045 0.1,-0.1 v -2.9 c 0,-0.1 -0.1,0 0,0 h 5.8 c 0.1,0 0,-0.1 0,0 v 2.9 c 0,0.055 0.045,0.1 0.1,0.1 h 6 c 0.055,0 0.1,-0.045 0.1,-0.1 v -2.9 c 0,-0.1 -0.1,0 0,0 h 5.8 c 0.1,0 0,-0.1 0,0 v 2.9 c 0,0.055 0.045,0.1 0.1,0.1 h 6 c 0.055,0 0.1,-0.045 0.1,-0.1 v -2.9 c 0,-0.1 -0.1,0 0,0 h 5.8 c 0.1,0 0,-0.1 0,0 v 2.9 c 0,0.055 0.045,0.1 0.1,0.1 h 6 c 0.055,0 0.1,-0.045 0.1,-0.1 v -2.9 c 0,-0.1 -0.1,0 0,0 h 11.65 3 c 0.055,0 0.1,-0.045 0.1,-0.1 v -6.5 c 0,-0.055 -0.045,-0.1 -0.1,-0.1 H 714 c -0.1,0 0,0.1 0,0 v -5.8 c 0,-0.1 -0.1,0 0,0 h 2.9 c 0.055,0 0.1,-0.045 0.1,-0.1 v -6.5 c 0,-0.055 -0.045,-0.1 -0.1,-0.1 h -3 -65.5 -3 -65.5 -3 c -0.055,0 -0.1,0.045 -0.1,0.1 v 6.5 c 0,0.055 0.045,0.1 0.1,0.1 h 2.9 c 0.1,0 0,-0.1 0,0 v 5.8 c 0,0.1 0.1,0 0,0 h -2.9 c -0.055,0 -0.1,0.045 -0.1,0.1 v 6.5 c 0,0.055 0.045,0.1 0.1,0.1 h 3"
       stroke="#000000"
       stroke-width="0.2"
       id="path57" />
    <path
       d="m 648.3,166.35 v 2.9 c 0,0.1 0.1,0 0,0 h -2.8 c -0.1,0 0,0.1 0,0 v -5.8 c 0,-0.1 -0.1,0 0,0 h 2.8 c 0.1,0 0,-0.1 0,0 z"
       stroke="#0000ff"
       stroke-width="0.2"
       id="path59" />
  </g>
  <g
     id="p-8"
     style="fill:none;stroke-linecap:round;stroke-linejoin:round;">
    <path
       d="M 18.250 150.200 H 25.293 C 25.349 150.200 25.393 150.155 25.393 150.100 V 147.200 C 25.393 147.100 25.293 147.200 25.393 147.200 H 31.193 C 31.293 147.200 31.193 147.100 31.193 147.200 V 150.100 C 31.193 150.155 31.238 150.200 31.293 150.200 H 37.293 C 37.349 150.200 37.393 150.155 37.393 150.100 V 147.200 C 37.393 147.100 37.293 147.200 37.393 147.200 H 43.193 C 43.293 147.200 43.193 147.100 43.193 147.200 V 150.100 C 43.193 150.155 43.238 150.200 43.293 150.200 H 49.293 C 49.349 150.200 49.393 150.155 49.393 150.100 V 147.200 C 49.393 147.100 49.293 147.200 49.393 147.200 H 55.193 C 55.293 147.200 55.193 147.100 55.193 147.200 V 150.100 C 55.193 150.155 55.238 150.200 55.293 150.200 H 61.293 C 61.349 150.200 61.393 150.155 61.393 150.100 V 147.200 C 61.393 147.100 61.293 147.200 61.393 147.200 H 67.193 C 67.293 147.200 67.193 147.100 67.193 147.200 V 150.100 C 67.193 150.155 67.238 150.200 67.293 150.200 H 74.337 M 15.250 150.200 H 18.250 M 74.337 150.200 H 77.337 H 88.359 C 88.414 150.200 88.459 150.155 88.459 150.100 V 147.200 C 88.459 147.100 88.359 147.200 88.459 147.200 H 94.259 C 94.359 147.200 94.259 147.100 94.259 147.200 V 150.100 C 94.259 150.155 94.303 150.200 94.359 150.200 H 105.380 M 74.337 150.200 H 77.337 M 105.380 150.200 H 108.380 H 120.098 C 120.153 150.200 120.198 150.155 120.198 150.100 V 147.200 C 120.198 147.100 120.098 147.200 120.198 147.200 H 125.998 C 126.098 147.200 125.998 147.100 125.998 147.200 V 150.100 C 125.998 150.155 126.043 150.200 126.098 150.200 H 132.098 C 132.153 150.200 132.198 150.155 132.198 150.100 V 147.200 C 132.198 147.100 132.098 147.200 132.198 147.200 H 137.998 C 138.098 147.200 137.998 147.100 137.998 147.200 V 150.100 C 137.998 150.155 138.043 150.200 138.098 150.200 H 144.098 C 144.153 150.200 144.198 150.155 144.198 150.100 V 147.200 C 144.198 147.100 144.098 147.200 144.198 147.200 H 149.998 C 150.098 147.200 149.998 147.100 149.998 147.200 V 150.100 C 149.998 150.155 150.043 150.200 150.098 150.200 H 156.098 C 156.153 150.200 156.198 150.155 156.198 150.100 V 147.200 C 156.198 147.100 156.098 147.200 156.198 147.200 H 161.998 C 162.098 147.200 161.998 147.100 161.998 147.200 V 150.100 C 161.998 150.155 162.043 150.200 162.098 150.200 H 173.815 M 105.380 150.200 H 108.380 M 173.815 150.200 H 176.815 H 188.533 C 188.588 150.200 188.633 150.155 188.633 150.100 V 147.200 C 188.633 147.100 188.533 147.200 188.633 147.200 H 194.433 C 194.533 147.200 194.433 147.100 194.433 147.200 V 150.100 C 194.433 150.155 194.477 150.200 194.533 150.200 H 200.533 C 200.588 150.200 200.633 150.155 200.633 150.100 V 147.200 C 200.633 147.100 200.533 147.200 200.633 147.200 H 206.433 C 206.533 147.200 206.433 147.100 206.433 147.200 V 150.100 C 206.433 150.155 206.477 150.200 206.533 150.200 H 212.533 C 212.588 150.200 212.633 150.155 212.633 150.100 V 147.200 C 212.633 147.100 212.533 147.200 212.633 147.200 H 218.433 C 218.533 147.200 218.433 147.100 218.433 147.200 V 150.100 C 218.433 150.155 218.477 150.200 218.533 150.200 H 224.533 C 224.588 150.200 224.633 150.155 224.633 150.100 V 147.200 C 224.633 147.100 224.533 147.200 224.633 147.200 H 230.433 C 230.533 147.200 230.433 147.100 230.433 147.200 V 150.100 C 230.433 150.155 230.477 150.200 230.533 150.200 H 242.250 M 173.815 150.200 H 176.815 M 242.250 150.200 H 245.250"
       stroke="rgb(0,0,0)"
       stroke-width="0.20"
       id="path62" />
    <path
       d="M 123.098 81.500 H 120.198 C 120.098 81.500 120.198 81.600 120.198 81.500 V 78.700 C 120.198 78.600 120.098 78.700 120.198 78.700 H 125.998 C 126.098 78.700 125.998 78.600 125.998 78.700 V 81.500 C 125.998 81.600 126.098 81.500 125.998 81.500 H 123.098 Z"
       stroke="rgb(0,0,255)"
       stroke-width="0.20"
       id="path64" />
    <path
       d="M 135.098 81.500 H 132.198 C 132.098 81.500 132.198 81.600 132.198 81.500 V 78.700 C 132.198 78.600 132.098 78.700 132.198 78.700 H 137.998 C 138.098 78.700 137.998 78.600 137.998 78.700 V 81.500 C 137.998 81.600 138.098 81.500 137.998 81.500 H 135.098 Z"
       stroke="rgb(0,0,255)"
       stroke-width="0.20"
       id="path66" />
    <path
       d="M 147.098 81.500 H 144.198 C 144.098 81.500 144.198 81.600 144.198 81.500 V 78.700 C 144.198 78.600 144.098 78.700 144.198 78.700 H 149.998 C 150.098 78.700 149.998 78.600 149.998 78.700 V 81.500 C 149.998 81.600 150.098 81.500 149.998 81.500 H 147.098 Z"
       stroke="rgb(0,0,255)"
       stroke-width="0.20"
       id="path68" />
    <path
       d="M 159.098 81.500 H 156.198 C 156.098 81.500 156.198 81.600 156.198 81.500 V 78.700 C 156.198 78.600 156.098 78.700 156.198 78.700 H 161.998 C 162.098 78.700 161.998 78.600 161.998 78.700 V 81.500 C 161.998 81.600 162.098 81.500 161.998 81.500 H 159.098 Z"
       stroke="rgb(0,0,255)"
       stroke-width="0.20"
       id="path70" />
    <path
       d="M 191.533 81.500 H 188.633 C 188.533 81.500 188.633 81.600 188.633 81.500 V 78.700 C 188.633 78.600 188.533 78.700 188.633 78.700 H 194.433 C 194.533 78.700 194.433 78.600 194.433 78.700 V 81.500 C 194.433 81.600 194.533 81.500 194.433 81.500 H 191.533 Z"
       stroke="rgb(0,0,255)"
       stroke-width="0.20"
       id="path72" />
    <path
       d="M 203.533 81.500 H 200.633 C 200.533 81.500 200.633 81.600 200.633 81.500 V 78.700 C 200.633 78.600 200.533 78.700 200.633 78.700 H 206.433 C 206.533 78.700 206.433 78.600 206.433 78.700 V 81.500 C 206.433 81.600 206.533 81.500 206.433 81.500 H 203.533 Z"
       stroke="rgb(0,0,255)"
       stroke-width="0.20"
       id="path74" />
    <path
       d="M 215.533 81.500 H 212.633 C 212.533 81.500 212.633 81.600 212.633 81.500 V 78.700 C 212.633 78.600 212.533 78.700 212.633 78.700 H 218.433 C 218.533 78.700 218.433 78.600 218.433 78.700 V 81.500 C 218.433 81.600 218.533 81.500 218.433 81.500 H 215.533 Z"
       stroke="rgb(0,0,255)"
       stroke-width="0.20"
       id="path76" />
    <path
       d="M 227.533 81.500 H 224.633 C 224.533 81.500 224.633 81.600 224.633 81.500 V 78.700 C 224.633 78.600 224.533 78.700 224.633 78.700 H 230.433 C 230.533 78.700 230.433 78.600 230.433 78.700 V 81.500 C 230.433 81.600 230.533 81.500 230.433 81.500 H 227.533 Z"
       stroke="rgb(0,0,255)"
       stroke-width="0.20"
       id="path78" />
    <path
       d="M 74.337 10.000 H 67.293 C 67.238 10.000 67.193 10.045 67.193 10.100 V 13.000 C 67.193 13.100 67.293 13.000 67.193 13.000 H 61.393 C 61.293 13.000 61.393 13.100 61.393 13.000 V 10.100 C 61.393 10.045 61.349 10.000 61.293 10.000 H 55.293 C 55.238 10.000 55.193 10.045 55.193 10.100 V 13.000 C 55.193 13.100 55.293 13.000 55.193 13.000 H 49.393 C 49.293 13.000 49.393 13.100 49.393 13.000 V 10.100 C 49.393 10.045 49.349 10.000 49.293 10.000 H 43.293 C 43.238 10.000 43.193 10.045 43.193 10.100 V 13.000 C 43.193 13.100 43.293 13.000 43.193 13.000 H 37.393 C 37.293 13.000 37.393 13.100 37.393 13.000 V 10.100 C 37.393 10.045 37.349 10.000 37.293 10.000 H 31.293 C 31.238 10.000 31.193 10.045 31.193 10.100 V 13.000 C 31.193 13.100 31.293 13.000 31.193 13.000 H 25.393 C 25.293 13.000 25.393 13.100 25.393 13.000 V 10.100 C 25.393 10.045 25.349 10.000 25.293 10.000 H 18.250 H 15.250 M 77.337 10.000 H 74.337 M 105.380 10.000 H 94.359 C 94.303 10.000 94.259 10.045 94.259 10.100 V 13.000 C 94.259 13.100 94.359 13.000 94.259 13.000 H 88.459 C 88.359 13.000 88.459 13.100 88.459 13.000 V 10.100 C 88.459 10.045 88.414 10.000 88.359 10.000 H 77.337 H 74.337 M 108.380 10.000 H 105.380 M 173.815 10.000 H 162.098 C 162.043 10.000 161.998 10.045 161.998 10.100 V 13.000 C 161.998 13.100 162.098 13.000 161.998 13.000 H 156.198 C 156.098 13.000 156.198 13.100 156.198 13.000 V 10.100 C 156.198 10.045 156.153 10.000 156.098 10.000 H 150.098 C 150.043 10.000 149.998 10.045 149.998 10.100 V 13.000 C 149.998 13.100 150.098 13.000 149.998 13.000 H 144.198 C 144.098 13.000 144.198 13.100 144.198 13.000 V 10.100 C 144.198 10.045 144.153 10.000 144.098 10.000 H 138.098 C 138.043 10.000 137.998 10.045 137.998 10.100 V 13.000 C 137.998 13.100 138.098 13.000 137.998 13.000 H 132.198 C 132.098 13.000 132.198 13.100 132.198 13.000 V 10.100 C 132.198 10.045 132.153 10.000 132.098 10.000 H 126.098 C 126.043 10.000 125.998 10.045 125.998 10.100 V 13.000 C 125.998 13.100 126.098 13.000 125.998 13.000 H 120.198 C 120.098 13.000 120.198 13.100 120.198 13.000 V 10.100 C 120.198 10.045 120.153 10.000 120.098 10.000 H 108.380 H 105.380 M 176.815 10.000 H 173.815 M 242.250 10.000 H 230.533 C 230.477 10.000 230.433 10.045 230.433 10.100 V 13.000 C 230.433 13.100 230.533 13.000 230.433 13.000 H 224.633 C 224.533 13.000 224.633 13.100 224.633 13.000 V 10.100 C 224.633 10.045 224.588 10.000 224.533 10.000 H 218.533 C 218.477 10.000 218.433 10.045 218.433 10.100 V 13.000 C 218.433 13.100 218.533 13.000 218.433 13.000 H 212.633 C 212.533 13.000 212.633 13.100 212.633 13.000 V 10.100 C 212.633 10.045 212.588 10.000 212.533 10.000 H 206.533 C 206.477 10.000 206.433 10.045 206.433 10.100 V 13.000 C 206.433 13.100 206.533 13.000 206.433 13.000 H 200.633 C 200.533 13.000 200.633 13.100 200.633 13.000 V 10.100 C 200.633 10.045 200.588 10.000 200.533 10.000 H 194.533 C 194.477 10.000 194.433 10.045 194.433 10.100 V 13.000 C 194.433 13.100 194.533 13.000 194.433 13.000 H 188.633 C 188.533 13.000 188.633 13.100 188.633 13.000 V 10.100 C 188.633 10.045 188.588 10.000 188.533 10.000 H 176.815 H 173.815 M 245.250 10.000 H 242.250 M 15.150 81.600 V 93.350 C 15.150 93.405 15.195 93.450 15.250 93.450 H 18.150 C 18.250 93.450 18.150 93.350 18.150 93.450 V 99.250 C 18.150 99.350 18.250 99.250 18.150 99.250 H 15.250 C 15.195 99.250 15.150 99.295 15.150 99.350 V 105.350 C 15.150 105.405 15.195 105.450 15.250 105.450 H 18.150 C 18.250 105.450 18.150 105.350 18.150 105.450 V 111.250 C 18.150 111.350 18.250 111.250 18.150 111.250 H 15.250 C 15.195 111.250 15.150 111.295 15.150 111.350 V 117.350 C 15.150 117.405 15.195 117.450 15.250 117.450 H 18.150 C 18.250 117.450 18.150 117.350 18.150 117.450 V 123.250 C 18.150 123.350 18.250 123.250 18.150 123.250 H 15.250 C 15.195 123.250 15.150 123.295 15.150 123.350 V 129.350 C 15.150 129.405 15.195 129.450 15.250 129.450 H 18.150 C 18.250 129.450 18.150 129.350 18.150 129.450 V 135.250 C 18.150 135.350 18.250 135.250 18.150 135.250 H 15.250 C 15.195 135.250 15.150 135.295 15.150 135.350 V 147.100 M 15.150 78.600 V 81.600 M 15.150 147.100 V 150.100 M 15.150 13.100 V 24.850 C 15.150 24.905 15.195 24.950 15.250 24.950 H 18.150 C 18.250 24.950 18.150 24.850 18.150 24.950 V 30.750 C 18.150 30.850 18.250 30.750 18.150 30.750 H 15.250 C 15.195 30.750 15.150 30.795 15.150 30.850 V 36.850 C 15.150 36.905 15.195 36.950 15.250 36.950 H 18.150 C 18.250 36.950 18.150 36.850 18.150 36.950 V 42.750 C 18.150 42.850 18.250 42.750 18.150 42.750 H 15.250 C 15.195 42.750 15.150 42.795 15.150 42.850 V 48.850 C 15.150 48.905 15.195 48.950 15.250 48.950 H 18.150 C 18.250 48.950 18.150 48.850 18.150 48.950 V 54.750 C 18.150 54.850 18.250 54.750 18.150 54.750 H 15.250 C 15.195 54.750 15.150 54.795 15.150 54.850 V 60.850 C 15.150 60.905 15.195 60.950 15.250 60.950 H 18.150 C 18.250 60.950 18.150 60.850 18.150 60.950 V 66.750 C 18.150 66.850 18.250 66.750 18.150 66.750 H 15.250 C 15.195 66.750 15.150 66.795 15.150 66.850 V 78.600 M 15.150 10.100 V 13.100 M 15.150 78.600 V 81.600"
       stroke="rgb(0,0,0)"
       stroke-width="0.20"
       id="path80" />
    <path
       d="M 77.237 132.350 V 135.250 C 77.237 135.350 77.337 135.250 77.237 135.250 H 74.437 C 74.337 135.250 74.437 135.350 74.437 135.250 V 129.450 C 74.437 129.350 74.337 129.450 74.437 129.450 H 77.237 C 77.337 129.450 77.237 129.350 77.237 129.450 V 132.350 Z"
       stroke="rgb(0,0,255)"
       stroke-width="0.20"
       id="path82" />
    <path
       d="M 77.237 120.350 V 123.250 C 77.237 123.350 77.337 123.250 77.237 123.250 H 74.437 C 74.337 123.250 74.437 123.350 74.437 123.250 V 117.450 C 74.437 117.350 74.337 117.450 74.437 117.450 H 77.237 C 77.337 117.450 77.237 117.350 77.237 117.450 V 120.350 Z"
       stroke="rgb(0,0,255)"
       stroke-width="0.20"
       id="path84" />
    <path
       d="M 77.237 108.350 V 111.250 C 77.237 111.350 77.337 111.250 77.237 111.250 H 74.437 C 74.337 111.250 74.437 111.350 74.437 111.250 V 105.450 C 74.437 105.350 74.337 105.450 74.437 105.450 H 77.237 C 77.337 105.450 77.237 105.350 77.237 105.450 V 108.350 Z"
       stroke="rgb(0,0,255)"
       stroke-width="0.20"
       id="path86" />
    <path
       d="M 77.237 96.350 V 99.250 C 77.237 99.350 77.337 99.250 77.237 99.250 H 74.437 C 74.337 99.250 74.437 99.350 74.437 99.250 V 93.450 C 74.437 93.350 74.337 93.450 74.437 93.450 H 77.237 C 77.337 93.450 77.237 93.350 77.237 93.450 V 96.350 Z"
       stroke="rgb(0,0,255)"
       stroke-width="0.20"
       id="path88" />
    <path
       d="M 77.237 63.850 V 66.750 C 77.237 66.850 77.337 66.750 77.237 66.750 H 74.437 C 74.337 66.750 74.437 66.850 74.437 66.750 V 60.950 C 74.437 60.850 74.337 60.950 74.437 60.950 H 77.237 C 77.337 60.950 77.237 60.850 77.237 60.950 V 63.850 Z"
       stroke="rgb(0,0,255)"
       stroke-width="0.20"
       id="path90" />
    <path
       d="M 77.237 51.850 V 54.750 C 77.237 54.850 77.337 54.750 77.237 54.750 H 74.437 C 74.337 54.750 74.437 54.850 74.437 54.750 V 48.950 C 74.437 48.850 74.337 48.950 74.437 48.950 H 77.237 C 77.337 48.950 77.237 48.850 77.237 48.950 V 51.850 Z"
       stroke="rgb(0,0,255)"
       stroke-width="0.20"
       id="path92" />
    <path
       d="M 77.237 39.850 V 42.750 C 77.237 42.850 77.337 42.750 77.237 42.750 H 74.437 C 74.337 42.750 74.437 42.850 74.437 42.750 V 36.950 C 74.437 36.850 74.337 36.950 74.437 36.950 H 77.237 C 77.337 36.950 77.237 36.850 77.237 36.950 V 39.850 Z"
       stroke="rgb(0,0,255)"
       stroke-width="0.20"
       id="path94" />
    <path
       d="M 77.237 27.850 V 30.750 C 77.237 30.850 77.337 30.750 77.237 30.750 H 74.437 C 74.337 30.750 74.437 30.850 74.437 30.750 V 24.950 C 74.437 24.850 74.337 24.950 74.437 24.950 H 77.237 C 77.337 24.950 77.237 24.850 77.237 24.950 V 27.850 Z"
       stroke="rgb(0,0,255)"
       stroke-width="0.20"
       id="path96" />
    <path
       d="M 108.280 132.350 V 135.250 C 108.280 135.350 108.380 135.250 108.280 135.250 H 105.480 C 105.380 135.250 105.480 135.350 105.480 135.250 V 129.450 C 105.480 129.350 105.380 129.450 105.480 129.450 H 108.280 C 108.380 129.450 108.280 129.350 108.280 129.450 V 132.350 Z"
       stroke="rgb(0,0,255)"
       stroke-width="0.20"
       id="path98" />
    <path
       d="M 108.280 120.350 V 123.250 C 108.280 123.350 108.380 123.250 108.280 123.250 H 105.480 C 105.380 123.250 105.480 123.350 105.480 123.250 V 117.450 C 105.480 117.350 105.380 117.450 105.480 117.450 H 108.280 C 108.380 117.450 108.280 117.350 108.280 117.450 V 120.350 Z"
       stroke="rgb(0,0,255)"
       stroke-width="0.20"
       id="path100" />
    <path
       d="M 108.280 108.350 V 111.250 C 108.280 111.350 108.380 111.250 108.280 111.250 H 105.480 C 105.380 111.250 105.480 111.350 105.480 111.250 V 105.450 C 105.480 105.350 105.380 105.450 105.480 105.450 H 108.280 C 108.380 105.450 108.280 105.350 108.280 105.450 V 108.350 Z"
       stroke="rgb(0,0,255)"
       stroke-width="0.20"
       id="path102" />
    <path
       d="M 108.280 96.350 V 99.250 C 108.280 99.350 108.380 99.250 108.280 99.250 H 105.480 C 105.380 99.250 105.480 99.350 105.480 99.250 V 93.450 C 105.480 93.350 105.380 93.450 105.480 93.450 H 108.280 C 108.380 93.450 108.280 93.350 108.280 93.450 V 96.350 Z"
       stroke="rgb(0,0,255)"
       stroke-width="0.20"
       id="path104" />
    <path
       d="M 108.280 63.850 V 66.750 C 108.280 66.850 108.380 66.750 108.280 66.750 H 105.480 C 105.380 66.750 105.480 66.850 105.480 66.750 V 60.950 C 105.480 60.850 105.380 60.950 105.480 60.950 H 108.280 C 108.380 60.950 108.280 60.850 108.280 60.950 V 63.850 Z"
       stroke="rgb(0,0,255)"
       stroke-width="0.20"
       id="path106" />
    <path
       d="M 108.280 51.850 V 54.750 C 108.280 54.850 108.380 54.750 108.280 54.750 H 105.480 C 105.380 54.750 105.480 54.850 105.480 54.750 V 48.950 C 105.480 48.850 105.380 48.950 105.480 48.950 H 108.280 C 108.380 48.950 108.280 48.850 108.280 48.950 V 51.850 Z"
       stroke="rgb(0,0,255)"
       stroke-width="0.20"
       id="path108" />
    <path
       d="M 108.280 39.850 V 42.750 C 108.280 42.850 108.380 42.750 108.280 42.750 H 105.480 C 105.380 42.750 105.480 42.850 105.480 42.750 V 36.950 C 105.480 36.850 105.380 36.950 105.480 36.950 H 108.280 C 108.380 36.950 108.280 36.850 108.280 36.950 V 39.850 Z"
       stroke="rgb(0,0,255)"
       stroke-width="0.20"
       id="path110" />
    <path
       d="M 108.280 27.850 V 30.750 C 108.280 30.850 108.380 30.750 108.280 30.750 H 105.480 C 105.380 30.750 105.480 30.850 105.480 30.750 V 24.950 C 105.480 24.850 105.380 24.950 105.480 24.950 H 108.280 C 108.380 24.950 108.280 24.850 108.280 24.950 V 27.850 Z"
       stroke="rgb(0,0,255)"
       stroke-width="0.20"
       id="path112" />
    <path
       d="M 176.715 132.350 V 135.250 C 176.715 135.350 176.815 135.250 176.715 135.250 H 173.915 C 173.815 135.250 173.915 135.350 173.915 135.250 V 129.450 C 173.915 129.350 173.815 129.450 173.915 129.450 H 176.715 C 176.815 129.450 176.715 129.350 176.715 129.450 V 132.350 Z"
       stroke="rgb(0,0,255)"
       stroke-width="0.20"
       id="path114" />
    <path
       d="M 176.715 120.350 V 123.250 C 176.715 123.350 176.815 123.250 176.715 123.250 H 173.915 C 173.815 123.250 173.915 123.350 173.915 123.250 V 117.450 C 173.915 117.350 173.815 117.450 173.915 117.450 H 176.715 C 176.815 117.450 176.715 117.350 176.715 117.450 V 120.350 Z"
       stroke="rgb(0,0,255)"
       stroke-width="0.20"
       id="path116" />
    <path
       d="M 176.715 108.350 V 111.250 C 176.715 111.350 176.815 111.250 176.715 111.250 H 173.915 C 173.815 111.250 173.915 111.350 173.915 111.250 V 105.450 C 173.915 105.350 173.815 105.450 173.915 105.450 H 176.715 C 176.815 105.450 176.715 105.350 176.715 105.450 V 108.350 Z"
       stroke="rgb(0,0,255)"
       stroke-width="0.20"
       id="path118" />
    <path
       d="M 176.715 96.350 V 99.250 C 176.715 99.350 176.815 99.250 176.715 99.250 H 173.915 C 173.815 99.250 173.915 99.350 173.915 99.250 V 93.450 C 173.915 93.350 173.815 93.450 173.915 93.450 H 176.715 C 176.815 93.450 176.715 93.350 176.715 93.450 V 96.350 Z"
       stroke="rgb(0,0,255)"
       stroke-width="0.20"
       id="path120" />
    <path
       d="M 176.715 63.850 V 66.750 C 176.715 66.850 176.815 66.750 176.715 66.750 H 173.915 C 173.815 66.750 173.915 66.850 173.915 66.750 V 60.950 C 173.915 60.850 173.815 60.950 173.915 60.950 H 176.715 C 176.815 60.950 176.715 60.850 176.715 60.950 V 63.850 Z"
       stroke="rgb(0,0,255)"
       stroke-width="0.20"
       id="path122" />
    <path
       d="M 176.715 51.850 V 54.750 C 176.715 54.850 176.815 54.750 176.715 54.750 H 173.915 C 173.815 54.750 173.915 54.850 173.915 54.750 V 48.950 C 173.915 48.850 173.815 48.950 173.915 48.950 H 176.715 C 176.815 48.950 176.715 48.850 176.715 48.950 V 51.850 Z"
       stroke="rgb(0,0,255)"
       stroke-width="0.20"
       id="path124" />
    <path
       d="M 176.715 39.850 V 42.750 C 176.715 42.850 176.815 42.750 176.715 42.750 H 173.915 C 173.815 42.750 173.915 42.850 173.915 42.750 V 36.950 C 173.915 36.850 173.815 36.950 173.915 36.950 H 176.715 C 176.815 36.950 176.715 36.850 176.715 36.950 V 39.850 Z"
       stroke="rgb(0,0,255)"
       stroke-width="0.20"
       id="path126" />
    <path
       d="M 176.715 27.850 V 30.750 C 176.715 30.850 176.815 30.750 176.715 30.750 H 173.915 C 173.815 30.750 173.915 30.850 173.915 30.750 V 24.950 C 173.915 24.850 173.815 24.950 173.915 24.950 H 176.715 C 176.815 24.950 176.715 24.850 176.715 24.950 V 27.850 Z"
       stroke="rgb(0,0,255)"
       stroke-width="0.20"
       id="path128" />
    <path
       d="M 245.350 147.100 V 135.350 C 245.350 135.295 245.305 135.250 245.250 135.250 H 242.350 C 242.250 135.250 242.350 135.350 242.350 135.250 V 129.450 C 242.350 129.350 242.250 129.450 242.350 129.450 H 245.250 C 245.305 129.450 245.350 129.405 245.350 129.350 V 123.350 C 245.350 123.295 245.305 123.250 245.250 123.250 H 242.350 C 242.250 123.250 242.350 123.350 242.350 123.250 V 117.450 C 242.350 117.350 242.250 117.450 242.350 117.450 H 245.250 C 245.305 117.450 245.350 117.405 245.350 117.350 V 111.350 C 245.350 111.295 245.305 111.250 245.250 111.250 H 242.350 C 242.250 111.250 242.350 111.350 242.350 111.250 V 105.450 C 242.350 105.350 242.250 105.450 242.350 105.450 H 245.250 C 245.305 105.450 245.350 105.405 245.350 105.350 V 99.350 C 245.350 99.295 245.305 99.250 245.250 99.250 H 242.350 C 242.250 99.250 242.350 99.350 242.350 99.250 V 93.450 C 242.350 93.350 242.250 93.450 242.350 93.450 H 245.250 C 245.305 93.450 245.350 93.405 245.350 93.350 V 81.600 V 78.600 M 245.350 150.100 V 147.100 M 245.350 78.600 V 66.850 C 245.350 66.795 245.305 66.750 245.250 66.750 H 242.350 C 242.250 66.750 242.350 66.850 242.350 66.750 V 60.950 C 242.350 60.850 242.250 60.950 242.350 60.950 H 245.250 C 245.305 60.950 245.350 60.905 245.350 60.850 V 54.850 C 245.350 54.795 245.305 54.750 245.250 54.750 H 242.350 C 242.250 54.750 242.350 54.850 242.350 54.750 V 48.950 C 242.350 48.850 242.250 48.950 242.350 48.950 H 245.250 C 245.305 48.950 245.350 48.905 245.350 48.850 V 42.850 C 245.350 42.795 245.305 42.750 245.250 42.750 H 242.350 C 242.250 42.750 242.350 42.850 242.350 42.750 V 36.950 C 242.350 36.850 242.250 36.950 242.350 36.950 H 245.250 C 245.305 36.950 245.350 36.905 245.350 36.850 V 30.850 C 245.350 30.795 245.305 30.750 245.250 30.750 H 242.350 C 242.250 30.750 242.350 30.850 242.350 30.750 V 24.950 C 242.350 24.850 242.250 24.950 242.350 24.950 H 245.250 C 245.305 24.950 245.350 24.905 245.350 24.850 V 13.100 V 10.100 M 245.350 81.600 V 78.600"
       stroke="rgb(0,0,0)"
       stroke-width="0.20"
       id="path130" />
  </g>
  <text
     xml:space="preserve"
     style="font-size:14px;line-height:4.50574px;font-family:sans-serif;letter-spacing:0px;word-spacing:0px;stroke-width:0.264583;-inkscape-font-specification:'sans-serif, Normal';font-weight:normal;font-style:normal;font-stretch:normal;font-variant:normal;font-variant-ligatures:normal;font-variant-caps:normal;font-variant-numeric:normal;font-variant-east-asian:normal;fill:#ff0000"
     x="29.608664"
     y="155.59311"
     id="text5784"
     transform="scale(0.93567767,1.0687441)"><tspan
       sodipodi:role="line"
       id="tspan5782"
       style="font-style:normal;font-variant:normal;font-weight:normal;font-stretch:normal;font-size:14.00000039px;font-family:sans-serif;-inkscape-font-specification:'sans-serif, Normal';font-variant-ligatures:normal;font-variant-caps:normal;font-variant-numeric:normal;font-variant-east-asian:normal;stroke-width:0.264583;fill:#ff0000"
       x="29.608664"
       y="155.59311">Solder</tspan></text>
  <text
     xml:space="preserve"
     style="font-size:14px;line-height:4.20928px;font-family:sans-serif;letter-spacing:0px;word-spacing:0px;stroke-width:0.264583;fill:#ff0000"
     x="124.02978"
     y="166.28923"
     id="text16022"><tspan
       sodipodi:role="line"
       id="tspan16020"
       style="font-size:14px;stroke-width:0.264583;fill:#ff0000"
       x="124.02978"
       y="166.28923">Paste</tspan></text>
  <text
     xml:space="preserve"
     style="font-size:14px;line-height:4.20928px;font-family:sans-serif;letter-spacing:0px;word-spacing:0px;stroke-width:0.264583;fill:#ff0000"
     x="192.86041"
     y="166.28923"
     id="text22864"><tspan
       sodipodi:role="line"
       id="tspan22862"
       style="font-size:14px;stroke-width:0.264583;fill:#ff0000"
       x="192.86041"
       y="166.28923">Clean</tspan></text>
</svg>
