<?xml version="1.0" standalone="no"?>
<svg viewBox="0 0 1024 768" version="1.1" xmlns="http://www.w3.org/2000/svg" xmlns:xlink="http://www.w3.org/1999/xlink" stroke-linecap="round" stroke-linejoin="round" fill-rule="evenodd" xml:space="preserve" >
<defs >
<clipPath id="clipId0" >
<path d="M0,768 1024,768 1024,0 0,0 z" />
</clipPath>
</defs>
<g clip-path="url(#clipId0)" fill="none" stroke="rgb(0,0,0)" stroke-width="0.1" />
<g clip-path="url(#clipId0)" fill="none" stroke="rgb(0,0,0)" stroke-width="0.25" >
<polyline points="597.663,623.866 593.333,616.366 " />
<polyline points="417.677,623.866 413.347,616.366 " />
<polyline points="610.653,616.366 606.323,608.867 " />
<polyline points="430.667,616.366 426.337,608.867 " />
<polyline points="417.677,312.121 413.347,304.622 " />
<polyline points="597.663,312.121 593.333,304.622 " />
<polyline points="430.667,304.622 426.337,297.122 " />
<polyline points="610.653,304.622 606.323,297.122 " />
<polyline points="238.526,638.98 232.032,627.731 " />
<polyline points="258.01,627.731 251.516,616.482 " />
<polyline points="772.484,304.506 765.99,293.257 " />
<polyline points="791.968,293.257 785.474,282.008 " />
<polyline points="687.656,467.993 683.326,460.494 " />
<polyline points="327.684,467.993 323.354,460.494 " />
<polyline points="700.646,460.494 696.316,452.995 " />
<polyline points="340.674,460.494 336.344,452.995 " />
<polyline points="679.237,740.463 667.988,733.968 " />
<polyline points="690.486,720.978 679.237,714.484 " />
<polyline points="344.763,206.504 333.514,200.01 " />
<polyline points="356.012,187.02 344.763,180.526 " />
<polyline points="591.535,124.47 591.517,124.465 " />
<polyline points="591.552,124.475 591.535,124.47 " />
<polyline points="591.465,124.451 591.448,124.447 " />
<polyline points="591.5,124.461 591.483,124.456 " />
<polyline points="591.517,124.465 591.5,124.461 " />
<polyline points="591.483,124.456 591.465,124.451 " />
<polyline points="249.521,760.471 774.479,760.471 " />
<polyline points="212.023,655.854 245.021,655.854 " />
<polyline points="238.526,638.98 251.516,638.98 " />
<polyline points="597.663,623.866 606.323,623.866 " />
<polyline points="417.677,623.866 426.337,623.866 " />
<polyline points="238.526,616.482 251.516,616.482 " />
<polyline points="597.663,608.867 606.323,608.867 " />
<polyline points="417.677,608.867 426.337,608.867 " />
<polyline points="212.023,599.608 245.021,599.608 " />
<polyline points="687.656,467.993 696.316,467.993 " />
<polyline points="327.684,467.993 336.344,467.993 " />
<polyline points="687.656,452.995 696.316,452.995 " />
<polyline points="327.684,452.995 336.344,452.995 " />
<polyline points="778.979,321.38 811.977,321.38 " />
<polyline points="417.677,312.121 426.337,312.121 " />
<polyline points="597.663,312.121 606.323,312.121 " />
<polyline points="772.484,304.506 785.474,304.506 " />
<polyline points="417.677,297.122 426.337,297.122 " />
<polyline points="597.663,297.122 606.323,297.122 " />
<polyline points="772.484,282.008 785.474,282.008 " />
<polyline points="778.979,265.134 811.977,265.134 " />
<polyline points="249.521,160.517 774.479,160.517 " />
<polyline points="429.506,145.519 594.494,145.519 " />
<polyline points="497.001,40.5268 526.999,40.5268 " />
<polyline points="465.431,10.5292 558.569,10.5292 " />
<polyline points="483.352,8.27938 540.648,8.27938 " />
<polyline points="560.746,7.52941 607.618,7.52941 " />
<polyline points="416.382,7.52941 463.254,7.52941 " />
<polyline points="432.535,124.451 432.552,124.447 " />
<polyline points="432.518,124.456 432.535,124.451 " />
<polyline points="432.483,124.465 432.5,124.461 " />
<polyline points="432.5,124.461 432.518,124.456 " />
<polyline points="432.448,124.475 432.465,124.47 " />
<polyline points="432.465,124.47 432.483,124.465 " />
<polyline points="679.237,740.463 690.486,733.968 " />
<polyline points="667.988,720.978 679.237,714.484 " />
<polyline points="344.763,206.504 356.012,200.01 " />
<polyline points="333.514,187.02 344.763,180.526 " />
<polyline points="696.316,467.993 700.646,460.494 " />
<polyline points="336.344,467.993 340.674,460.494 " />
<polyline points="683.326,460.494 687.656,452.995 " />
<polyline points="323.354,460.494 327.684,452.995 " />
<polyline points="251.516,638.98 258.01,627.731 " />
<polyline points="232.032,627.731 238.526,616.482 " />
<polyline points="785.474,304.506 791.968,293.257 " />
<polyline points="765.99,293.257 772.484,282.008 " />
<polyline points="606.323,623.866 610.653,616.366 " />
<polyline points="426.337,623.866 430.667,616.366 " />
<polyline points="593.333,616.366 597.663,608.867 " />
<polyline points="413.347,616.366 417.677,608.867 " />
<polyline points="426.337,312.121 430.667,304.622 " />
<polyline points="606.323,312.121 610.653,304.622 " />
<polyline points="413.347,304.622 417.677,297.122 " />
<polyline points="593.333,304.622 597.663,297.122 " />
<polyline points="212.023,722.974 212.023,198.015 " />
<polyline points="316.64,193.515 316.64,160.517 " />
<polyline points="333.514,200.01 333.514,187.02 " />
<polyline points="356.012,200.01 356.012,187.02 " />
<polyline points="369.511,85.5233 369.511,74.2742 " />
<polyline points="372.886,193.515 372.886,160.517 " />
<polyline points="414.508,160.517 414.508,143.613 " />
<polyline points="422.007,160.517 422.007,145.048 " />
<polyline points="483.352,10.5292 483.352,8.27938 " />
<polyline points="540.648,10.5292 540.648,8.27938 " />
<polyline points="601.993,160.517 601.993,145.048 " />
<polyline points="609.492,160.517 609.492,143.613 " />
<polyline points="651.114,760.471 651.114,727.473 " />
<polyline points="654.489,85.5233 654.489,74.2742 " />
<polyline points="667.988,733.968 667.988,720.978 " />
<polyline points="690.486,733.968 690.486,720.978 " />
<polyline points="707.36,760.471 707.36,727.473 " />
<polyline points="811.977,722.974 811.977,198.015 " />
<path d="M245.021,655.854  A28.1228,28.1228 0 0,0 245.021,599.608 " />
<circle cx="245.021" cy="627.731" r="22.4982" />
<circle cx="245.021" cy="627.731" r="26.2479" />
<path d="M212.023,722.974  A37.4971,37.4971 0 0,0 249.521,760.471 " />
<path d="M249.521,160.517  A37.4971,37.4971 0 0,0 212.023,198.015 " />
<circle cx="273.37" cy="699.124" r="24.8981" />
<circle cx="273.37" cy="221.864" r="24.8981" />
<circle cx="332.014" cy="460.494" r="20.6234" />
<circle cx="332.014" cy="460.494" r="24.3731" />
<path d="M396.535,24.1513  A112.491,112.491 0 0,0 416.382,7.52942 " />
<circle cx="344.763" cy="193.515" r="22.4982" />
<circle cx="344.763" cy="193.515" r="26.2479" />
<path d="M316.64,193.515  A28.1228,28.1228 0 0,0 372.886,193.515 " />
<circle cx="422.007" cy="616.366" r="20.6234" />
<circle cx="422.007" cy="616.366" r="24.3731" />
<circle cx="422.007" cy="304.622" r="20.6234" />
<circle cx="422.007" cy="304.622" r="24.3731" />
<path d="M369.511,85.5233  A59.9953,59.9953 0 0,0 429.506,145.519 " />
<path d="M396.535,24.1513  A59.9953,59.9953 0 0,0 369.511,74.2742 " />
<circle cx="438.452" cy="79.8988" r="44.9965" />
<circle cx="438.452" cy="79.8988" r="47.6213" />
<circle cx="438.452" cy="79.8988" r="52.4959" />
<circle cx="438.452" cy="79.8988" r="60.3703" />
<path d="M497.001,40.5268  A59.9953,59.9953 0 0,0 479.993,23.906 " />
<circle cx="512" cy="460.494" r="18.4486" />
<circle cx="512" cy="460.494" r="23.9981" />
<circle cx="512" cy="460.494" r="36.1097" />
<circle cx="512" cy="460.494" r="67.4947" />
<circle cx="512" cy="460.494" r="71.2444" />
<circle cx="512" cy="460.494" r="74.9941" />
<circle cx="512" cy="460.494" r="112.491" />
<circle cx="512" cy="460.494" r="209.421" />
<circle cx="512" cy="460.494" r="224.42" />
<circle cx="512" cy="460.494" r="258.73" />
<circle cx="512" cy="460.494" r="262.479" />
<path d="M544.007,23.906  A58.912,58.912 0 0,0 560.746,7.52942 " />
<path d="M463.254,7.52942  A58.912,58.912 0 0,0 479.993,23.906 " />
<path d="M544.007,23.906  A59.9953,59.9953 0 0,0 526.999,40.5269 " />
<circle cx="585.548" cy="79.8988" r="44.9965" />
<circle cx="585.548" cy="79.8988" r="47.6213" />
<circle cx="585.548" cy="79.8988" r="52.4959" />
<circle cx="585.548" cy="79.8988" r="60.3703" />
<path d="M594.494,145.519  A59.9953,59.9953 0 0,0 654.489,85.5233 " />
<path d="M654.489,74.2742  A59.9953,59.9953 0 0,0 627.465,24.1513 " />
<circle cx="601.993" cy="616.366" r="20.6234" />
<circle cx="601.993" cy="616.366" r="24.3731" />
<circle cx="601.993" cy="304.622" r="20.6234" />
<circle cx="601.993" cy="304.622" r="24.3731" />
<path d="M707.36,727.473  A28.1228,28.1228 0 0,0 651.114,727.473 " />
<circle cx="679.237" cy="727.473" r="22.4982" />
<circle cx="679.237" cy="727.473" r="26.2479" />
<path d="M607.618,7.52942  A112.491,112.491 0 0,0 627.465,24.1513 " />
<circle cx="691.986" cy="460.494" r="20.6234" />
<circle cx="691.986" cy="460.494" r="24.3731" />
<circle cx="750.63" cy="699.124" r="24.8981" />
<circle cx="750.63" cy="221.864" r="24.8981" />
<path d="M774.479,760.471  A37.4971,37.4971 0 0,0 811.977,722.974 " />
<path d="M811.977,198.015  A37.4971,37.4971 0 0,0 774.479,160.517 " />
<circle cx="778.979" cy="293.257" r="22.4982" />
<circle cx="778.979" cy="293.257" r="26.2479" />
<path d="M778.979,265.134  A28.1228,28.1228 0 0,0 778.979,321.38 " />
</g>
</svg>
